<?xml version="1.0" standalone="no"?>
<!DOCTYPE svg PUBLIC "-//W3C//DTD SVG 1.1//EN" "http://www.w3.org/Graphics/SVG/1.1/DTD/svg11.dtd" >
<svg xmlns="http://www.w3.org/2000/svg" xmlns:xlink="http://www.w3.org/1999/xlink" version="1.1">
<metadata>
Created by FontForge 20201107 at Sun Dec 24 15:25:40 2023
 By 
Copyright 2015-2018 Indian Type Foundry. All rights reserved.
</metadata>
<defs>
<font id="KohinoorBangla-Medium" horiz-adv-x="0" >
  <font-face 
    font-family="Kohinoor Bangla Medium"
    font-weight="500"
    font-stretch="normal"
    units-per-em="2048"
    panose-1="0 0 6 0 0 0 0 0 0 0"
    ascent="1638"
    descent="-410"
    x-height="1126"
    cap-height="1436"
    bbox="-1167 -809 3017 2357"
    underline-thickness="102"
    underline-position="-204"
    unicode-range="U+0020-FB02"
  />
<missing-glyph horiz-adv-x="1024" 
d="M0 0v1434h1024v-1434h-1024zM512 809l348 522h-696zM573 717l349 -522v1044zM164 102h696l-348 523zM102 1239v-1044l349 522z" />
    <glyph glyph-name="fi" unicode="fi" horiz-adv-x="1249" 
d="M434 0h-203v977h-180v149h185v115q0 338 444 338q109 0 214 -17t159 -46l-52 -156q-53 21 -146 37t-191 16q-127 0 -176.5 -44t-49.5 -136v-107h652v-1126h-203v977h-453v-977z" />
    <glyph glyph-name="fl" unicode="fl" horiz-adv-x="1323" 
d="M434 0h-203v977h-180v149h185v115q0 338 444 338q137 0 245.5 -23.5t164.5 -56.5v-1206q0 -70 25.5 -101.5t82.5 -31.5q32 0 80 16v-166q-63 -26 -141 -26q-123 0 -186.5 67t-63.5 189v1151q-99 22 -223 22q-125 0 -175.5 -44t-50.5 -136v-107h240v-149h-244v-977z" />
    <glyph glyph-name=".notdef" horiz-adv-x="1024" 
d="M0 0v1434h1024v-1434h-1024zM512 809l348 522h-696zM573 717l349 -522v1044zM164 102h696l-348 523zM102 1239v-1044l349 522z" />
    <glyph glyph-name=".null" 
 />
    <glyph glyph-name="nonmarkingreturn" horiz-adv-x="682" 
 />
    <glyph glyph-name="space" unicode=" " horiz-adv-x="585" 
 />
    <glyph glyph-name="exclam" unicode="!" horiz-adv-x="598" 
d="M377 524h-162q-15 338 -47 942h256q-7 -140 -22.5 -461.5t-24.5 -480.5zM440 135q0 -58 -41 -98.5t-102 -40.5q-58 0 -98.5 41t-40.5 98q0 61 40 103.5t99 42.5q61 0 102 -42t41 -104z" />
    <glyph glyph-name="quotedbl" unicode="&#x22;" horiz-adv-x="718" 
d="M598 995h-147l-37 475h219zM268 995h-145l-37 475h219z" />
    <glyph glyph-name="numbersign" unicode="#" horiz-adv-x="1394" 
d="M416 0h-176l63 401h-223l14 158h232l55 315h-227l12 158h237l64 389h178l-63 -389h358l64 389h176l-64 -389h199l-15 -158h-208l-52 -315h201l-14 -158h-209l-66 -401h-178l66 401h-359zM557 874l-53 -315h360l51 315h-358z" />
    <glyph glyph-name="dollar" unicode="$" horiz-adv-x="1101" 
d="M637 -274h-178l4 280q-239 16 -404 154l121 162q63 -56 156.5 -98t204.5 -42q132 0 196 53.5t64 141.5q0 43 -15.5 76t-52 61.5t-74.5 49.5t-104 50l-125 56q-145 65 -221 152.5t-76 219.5q0 151 101.5 250t257.5 123l-5 277h179l-7 -273q193 -17 316 -127l-127 -151
q-45 45 -120 73.5t-153 28.5q-112 0 -173.5 -49.5t-61.5 -136.5q0 -80 56.5 -132.5t174.5 -105.5l111 -51q65 -30 109 -54.5t88.5 -58t70.5 -69.5t42 -84.5t16 -106.5q0 -67 -23.5 -128.5t-68.5 -114t-118 -90t-165 -50.5z" />
    <glyph glyph-name="percent" unicode="%" horiz-adv-x="1728" 
d="M1466 1294l-1067 -1247l-106 94l1065 1248zM737 1057q0 -195 -88.5 -296.5t-236.5 -101.5q-151 0 -234.5 97t-83.5 293q0 190 88.5 290.5t239.5 100.5q147 0 231 -96.5t84 -286.5zM258 1051q0 -131 42.5 -194.5t117.5 -63.5q80 0 117.5 61t37.5 195q0 258 -163 258
q-152 0 -152 -256zM1632 377q0 -195 -87.5 -296t-235.5 -101q-151 0 -234.5 97t-83.5 294q0 189 88.5 289t237.5 100t232 -95.5t83 -287.5zM1155 373q0 -260 160 -260q79 0 117 61.5t38 194.5q0 260 -163 260q-152 0 -152 -256z" />
    <glyph glyph-name="ampersand" unicode="&#x26;" horiz-adv-x="1417" 
d="M1038 133q-177 -166 -477 -166q-124 0 -221.5 36t-154.5 95.5t-86 129t-29 143.5q0 278 340 397q-129 143 -129 307q0 148 104 249t272 101q167 0 266 -98t99 -248q0 -130 -79 -231t-247 -152q122 -135 332 -319q47 72 71.5 171t24.5 200h181q-2 -122 -39.5 -252.5
t-106.5 -227.5q53 -48 297 -239v-29h-250q-90 66 -168 133zM465 1075q0 -76 38 -144t83 -110q142 40 198 102t56 152q0 80 -51 133.5t-136 53.5q-84 0 -136 -50t-52 -137zM264 385q0 -104 84 -179t234 -75q203 0 325 115q-264 242 -395 389q-123 -33 -185.5 -93.5
t-62.5 -156.5z" />
    <glyph glyph-name="quotesingle" unicode="'" horiz-adv-x="391" 
d="M268 995h-145l-37 475h219z" />
    <glyph glyph-name="parenleft" unicode="(" horiz-adv-x="690" 
d="M793 -469h-201q-36 31 -82.5 85.5t-109.5 156t-113 218t-85.5 279.5t-35.5 332q0 170 35 334t85.5 280.5t112.5 217t108.5 155t82.5 84.5h203v-18q-89 -85 -166 -191t-142 -238t-102 -293.5t-37 -330.5t37 -330.5t102 -293t142 -237.5t166 -190v-20z" />
    <glyph glyph-name="parenright" unicode=")" horiz-adv-x="690" 
d="M98 -469h-200v20q89 84 166 190t141.5 237.5t101.5 293t37 330.5t-37 330.5t-101.5 293.5t-141.5 238t-166 191v18h202q36 -30 82.5 -84.5t108.5 -155t112.5 -217t85.5 -280.5t35 -334q0 -169 -35.5 -332t-85.5 -279.5t-113 -218t-109.5 -156t-82.5 -85.5z" />
    <glyph glyph-name="asterisk" unicode="*" horiz-adv-x="837" 
d="M344 819l-70 -96l-133 98l68 97l108 112l-155 31l-111 37l49 155l113 -34l141 -68l-18 156v118h166v-118l-21 -158l144 70l112 36l49 -157l-110 -37l-158 -29l111 -117l69 -94l-133 -96l-71 94l-74 137z" />
    <glyph glyph-name="plus" unicode="+" horiz-adv-x="1099" 
d="M635 215h-174v401h-398v170h398v402h174v-402h399v-170h-399v-401z" />
    <glyph glyph-name="comma" unicode="," horiz-adv-x="526" 
d="M430 78q0 -136 -88.5 -243t-202.5 -146l-65 100q79 33 124.5 81t45.5 103q0 52 -30.5 85.5t-92.5 62.5v18q0 59 39.5 99.5t101.5 40.5q75 0 121.5 -54.5t46.5 -146.5z" />
    <glyph glyph-name="hyphen" unicode="-" horiz-adv-x="718" 
d="M670 537h-619v174h619v-174z" />
    <glyph glyph-name="period" unicode="." horiz-adv-x="499" 
d="M397 139q0 -61 -42.5 -103t-106.5 -42q-61 0 -103.5 42.5t-42.5 102.5q0 64 42 108t104 44q64 0 106.5 -43.5t42.5 -108.5z" />
    <glyph glyph-name="slash" unicode="/" horiz-adv-x="729" 
d="M172 -291h-178l563 1786h178z" />
    <glyph glyph-name="zero" unicode="0" horiz-adv-x="1185" 
d="M1073 711q0 -370 -122.5 -550.5t-366.5 -180.5q-248 0 -359.5 174t-111.5 542q0 374 121 555t366 181q247 0 360 -174.5t113 -546.5zM319 711q0 -282 65 -416.5t212 -134.5q150 0 210 126.5t60 409.5t-66 420t-214 137t-207.5 -128.5t-59.5 -413.5z" />
    <glyph glyph-name="one" unicode="1" horiz-adv-x="909" 
d="M664 0h-203v797q4 270 8 391h-8l-148 -101l-166 -116l-118 164l422 276h213v-1411z" />
    <glyph glyph-name="two" unicode="2" horiz-adv-x="1042" 
d="M942 0h-836l-32 178q338 354 495 547q71 85 102 158.5t31 156.5q0 98 -54 152.5t-146 54.5q-89 0 -139 -56t-60 -142l-209 45q27 143 135 238t285 95q186 0 293.5 -99.5t107.5 -264.5q0 -230 -194 -455q-83 -100 -201 -225q-25 -27 -201 -203v-8q114 6 265 6h358v-178z
" />
    <glyph glyph-name="three" unicode="3" horiz-adv-x="1058" 
d="M944 412q0 -206 -123.5 -318t-345.5 -112q-154 0 -263.5 68t-156.5 169l185 100q89 -161 258 -161q128 0 186.5 61t58.5 180t-72.5 171.5t-224.5 52.5h-92v174h90q132 0 192 59.5t60 183.5q0 98 -52.5 155.5t-154.5 57.5q-91 0 -142 -49.5t-64 -130.5l-199 31
q21 142 129.5 234t280.5 92q195 0 302 -95.5t107 -277.5q0 -131 -60.5 -216.5t-154.5 -111.5v-8q51 -6 95 -25t81 -54.5t58.5 -94t21.5 -135.5z" />
    <glyph glyph-name="four" unicode="4" horiz-adv-x="1110" 
d="M872 0h-198v332h-580l-47 170l576 909h249v-905h199v-174h-199v-332zM526 940l-268 -434h416v344q0 250 12 352h-8q-28 -60 -152 -262z" />
    <glyph glyph-name="five" unicode="5" horiz-adv-x="1112" 
d="M1004 463q0 -223 -125 -352t-340 -129q-313 0 -433 258l201 92q72 -174 250 -174q119 0 179.5 74t60.5 210q0 267 -244 267q-116 0 -186 -78l-199 67l61 713h707v-176h-526l-39 -424l8 -2q37 29 96 48.5t123 19.5q199 0 302.5 -105.5t103.5 -308.5z" />
    <glyph glyph-name="six" unicode="6" horiz-adv-x="1118" 
d="M1018 477q0 -228 -125.5 -362.5t-331.5 -134.5q-438 0 -438 532q0 150 40.5 292.5t109.5 255.5t153 201.5t178 149.5h277v-25q-177 -102 -293.5 -225t-186.5 -284l5 -5q75 46 206 46q188 0 297 -111t109 -330zM326 516q0 -191 69.5 -276.5t184.5 -85.5q233 0 233 297
q0 292 -254 292q-117 0 -217 -53q-16 -65 -16 -174z" />
    <glyph glyph-name="seven" unicode="7" horiz-adv-x="944" 
d="M453 0h-205v59q0 138 27.5 285t70 270.5t98.5 244t107.5 207t103.5 159.5v8q-114 -8 -274 -8h-369v186h828l47 -194q-80 -106 -151 -227.5t-138 -271.5t-106 -322t-39 -339v-57z" />
    <glyph glyph-name="eight" unicode="8" horiz-adv-x="1175" 
d="M1057 399q0 -204 -125.5 -311.5t-347.5 -107.5q-225 0 -345 99t-120 300q0 136 70.5 220t181.5 118v8q-91 22 -150 102t-59 213q0 188 117.5 290t314.5 102q199 0 310.5 -95t111.5 -280q0 -129 -59.5 -209.5t-151.5 -112.5v-8q51 -10 93.5 -32t79.5 -60t58 -98.5
t21 -137.5zM324 391q0 -116 67.5 -180t198.5 -64q262 0 262 242t-268 242q-131 0 -195.5 -64.5t-64.5 -175.5zM360 1047q0 -119 58 -182.5t170 -63.5q229 0 229 243q0 99 -59.5 158.5t-169.5 59.5q-112 0 -170 -56.5t-58 -158.5z" />
    <glyph glyph-name="nine" unicode="9" horiz-adv-x="1089" 
d="M504 0h-279v25q358 209 482 524l-7 6q-74 -43 -204 -43q-186 0 -300 109t-114 323q0 227 127.5 357.5t333.5 130.5q152 0 250.5 -66.5t141 -181.5t42.5 -279q0 -147 -40.5 -290t-108 -258t-150.5 -206t-174 -151zM287 975q0 -289 256 -289q112 0 219 59q10 74 10 154
q0 188 -67.5 273t-180.5 85q-237 0 -237 -282z" />
    <glyph glyph-name="colon" unicode=":" horiz-adv-x="499" 
d="M397 954q0 -61 -42.5 -103t-106.5 -42q-61 0 -103.5 42.5t-42.5 102.5q0 64 42 108t104 44q64 0 106.5 -43.5t42.5 -108.5zM397 150q0 -61 -42.5 -103.5t-106.5 -42.5q-61 0 -103.5 43t-42.5 103q0 64 42 107.5t104 43.5q64 0 106.5 -43t42.5 -108z" />
    <glyph glyph-name="semicolon" unicode=";" horiz-adv-x="526" 
d="M422 78q0 -136 -89 -244t-202 -147l-61 96q81 36 126.5 85t45.5 105q0 54 -34 87.5t-95 60.5v18q0 59 39.5 99.5t101.5 40.5q76 0 122 -54t46 -147zM414 956q0 -60 -44 -102.5t-108 -42.5q-60 0 -102.5 42.5t-42.5 102.5q0 64 42.5 108t102.5 44q64 0 108 -44t44 -108z
" />
    <glyph glyph-name="less" unicode="&#x3c;" horiz-adv-x="1099" 
d="M1034 395v-207l-971 437v170l971 438v-207l-450 -197l-299 -114v-8l297 -117z" />
    <glyph glyph-name="equal" unicode="=" horiz-adv-x="1099" 
d="M1034 848h-971v172h971v-172zM1034 383h-971v172h971v-172z" />
    <glyph glyph-name="greater" unicode="&#x3e;" horiz-adv-x="1099" 
d="M1034 625l-971 -437v207l453 195l297 115v8l-297 116l-453 197v207l971 -436v-172z" />
    <glyph glyph-name="question" unicode="?" horiz-adv-x="854" 
d="M555 745l-252 -229q-94 32 -94 119q0 34 19.5 68t51 63.5t69.5 60t76 63t69.5 67t51 78t19.5 89.5q0 85 -50 133t-140 48q-62 0 -114 -20t-78 -41t-54 -52l-135 156q142 137 395 137q180 0 282.5 -87t102.5 -245q0 -88 -27.5 -160.5t-71.5 -126.5t-120 -121zM518 135
q0 -59 -41 -99t-104 -40q-60 0 -100 39.5t-40 99.5q0 62 41.5 104t100.5 42q63 0 103 -41t40 -105z" />
    <glyph glyph-name="at" unicode="@" horiz-adv-x="1935" 
d="M1307 -178q-79 -50 -196.5 -79.5t-244.5 -29.5q-355 0 -547 191.5t-192 525.5q0 195 71.5 370t196 302t300 201.5t374.5 74.5q335 0 537 -179t202 -476q0 -173 -58 -311t-166 -217.5t-249 -79.5q-159 0 -209 108h-8q-86 -108 -239 -108q-152 0 -226.5 89t-74.5 232
q0 107 28 197t76 152.5t112.5 106t136.5 63.5t148 20q75 0 149.5 -18t123.5 -48l-64 -411q-14 -82 -14 -136q0 -90 86 -90q82 0 144.5 62.5t93 158.5t30.5 207q0 246 -154 380t-432 134q-154 0 -291 -61.5t-233.5 -165t-152.5 -243.5t-56 -293q0 -283 150.5 -429.5
t437.5 -146.5q95 0 187.5 25.5t152.5 66.5zM758 469q0 -102 38.5 -150.5t118.5 -48.5q60 0 110 30.5t75 74.5q0 47 10 104l47 322q-50 16 -100 16q-129 0 -214 -97.5t-85 -250.5z" />
    <glyph glyph-name="A" unicode="A" horiz-adv-x="1259" 
d="M535 977l-125 -406h436l-123 400q-67 229 -92 321h-8q-18 -68 -88 -315zM231 0h-211l455 1436h307l459 -1436h-219l-121 393h-547z" />
    <glyph glyph-name="B" unicode="B" horiz-adv-x="1259" 
d="M629 0h-447v1436h461q91 0 164.5 -19.5t133.5 -61t93 -115t33 -173.5q0 -124 -56 -207.5t-145 -109.5v-9q119 -15 196 -97t77 -228q0 -69 -16 -128.5t-53.5 -113t-95 -91.5t-145.5 -60.5t-200 -22.5zM385 637v-461h268q142 0 208.5 57.5t66.5 172.5q0 231 -285 231h-258z
M385 1260v-445h227q130 0 191 56t61 171q0 218 -254 218h-225z" />
    <glyph glyph-name="C" unicode="C" horiz-adv-x="1177" 
d="M1106 115q-52 -57 -157 -96t-255 -39t-262 51.5t-180 148.5t-101.5 228t-33.5 299q0 354 154.5 551.5t445.5 197.5q255 0 401 -133l-133 -156q-111 107 -285 107q-181 0 -276.5 -136.5t-95.5 -416.5q0 -271 99 -414t292 -143q176 0 272 96z" />
    <glyph glyph-name="D" unicode="D" horiz-adv-x="1339" 
d="M582 0h-396v1436h396q331 0 487 -171t156 -528q0 -169 -35.5 -301t-111 -231t-200.5 -152t-296 -53zM391 1257v-1079h182q231 0 335 128.5t104 408.5q0 150 -29.5 255.5t-88.5 168t-139 90.5t-190 28h-174z" />
    <glyph glyph-name="E" unicode="E" horiz-adv-x="1101" 
d="M999 0h-813v1436h787v-179h-582v-440h508v-178h-508v-461h608v-178z" />
    <glyph glyph-name="F" unicode="F" horiz-adv-x="1034" 
d="M393 0h-207v1436h783v-179h-576v-485h504v-178h-504v-594z" />
    <glyph glyph-name="G" unicode="G" horiz-adv-x="1314" 
d="M1165 109q-163 -129 -469 -129q-579 0 -579 731q0 189 49 334t136.5 233.5t200.5 133t249 44.5q276 0 411 -135l-133 -152q-110 103 -289 103q-65 0 -121.5 -14.5t-111.5 -52t-93.5 -97t-62.5 -156t-24 -221.5q0 -301 102.5 -438t308.5 -137q148 0 219 45v532h207v-624z
" />
    <glyph glyph-name="H" unicode="H" horiz-adv-x="1429" 
d="M391 0h-205v1436h205v-623h645v623h207v-1436h-207v635h-645v-635z" />
    <glyph glyph-name="I" unicode="I" horiz-adv-x="614" 
d="M412 0h-207v1436h207v-1436z" />
    <glyph glyph-name="J" unicode="J" horiz-adv-x="827" 
d="M643 311q0 -152 -91 -245t-278 -93q-86 0 -153 16t-103 34l66 186q85 -51 195 -51q85 0 121 38.5t36 125.5v1114h207v-1125z" />
    <glyph glyph-name="K" unicode="K" horiz-adv-x="1224" 
d="M1200 0h-260l-508 715v8l483 713h240l-491 -713zM391 0h-205v1436h205v-1436z" />
    <glyph glyph-name="L" unicode="L" horiz-adv-x="1015" 
d="M983 0h-797v1436h205v-1258h592v-178z" />
    <glyph glyph-name="M" unicode="M" horiz-adv-x="1773" 
d="M381 0h-195v1436h328l371 -951h10l371 951h321v-1436h-201v1192h-10l-393 -995h-199l-391 995h-12v-1192z" />
    <glyph glyph-name="N" unicode="N" horiz-adv-x="1449" 
d="M385 0h-199v1436h273l428 -809q136 -264 176 -357h12q-6 152 -6 432v734h195v-1436h-267l-438 825q-66 127 -172 359h-12q10 -215 10 -416v-768z" />
    <glyph glyph-name="O" unicode="O" horiz-adv-x="1368" 
d="M1251 725q0 -194 -41 -338.5t-117.5 -232.5t-181 -131t-237.5 -43t-233.5 40t-174 125.5t-111.5 227.5t-38 338q0 193 41 337.5t117.5 233t180.5 131.5t236 43t233 -40.5t175 -126t112.5 -227.5t38.5 -337zM328 727q0 -156 25 -267t73.5 -176t112.5 -94.5t149 -29.5
q84 0 146 28t109 90.5t71 170.5t24 262q0 155 -24.5 265.5t-73 175.5t-112.5 94.5t-150 29.5q-82 0 -143.5 -27.5t-109.5 -89t-72.5 -170t-24.5 -262.5z" />
    <glyph glyph-name="P" unicode="P" horiz-adv-x="1169" 
d="M391 0h-205v1436h435q225 0 350 -100.5t125 -315.5q0 -219 -128 -344t-386 -125h-191v-551zM391 1255v-528h187q165 0 235 67.5t70 198.5q0 137 -75 199.5t-228 62.5h-189z" />
    <glyph glyph-name="Q" unicode="Q" horiz-adv-x="1392" 
d="M1343 -199l-204 -116l-410 301q-208 -10 -344 74.5t-197 247t-61 403.5q0 193 41 337.5t118 233t181.5 131.5t237.5 43q563 0 563 -731q0 -281 -82 -451.5t-225 -230.5v-8zM338 727q0 -155 25.5 -266.5t74.5 -176.5t113.5 -94.5t148.5 -29.5q85 0 148 27.5t111 90t72 171
t24 262.5q0 156 -25 266.5t-73.5 175.5t-113 94t-151.5 29q-66 0 -119 -16.5t-97.5 -56t-74.5 -101.5t-46.5 -156.5t-16.5 -218.5z" />
    <glyph glyph-name="R" unicode="R" horiz-adv-x="1228" 
d="M391 0h-205v1436h392q483 0 483 -410q0 -171 -90.5 -273t-227.5 -120v-8q48 -23 89.5 -66.5t89.5 -126.5l252 -432h-248l-254 461q-34 62 -80.5 89.5t-116.5 27.5h-84v-578zM391 1257v-507h166q293 0 293 258q0 132 -75 190.5t-226 58.5h-158z" />
    <glyph glyph-name="S" unicode="S" horiz-adv-x="1114" 
d="M1022 383q0 -81 -33 -153.5t-94 -128.5t-157 -88.5t-214 -32.5q-160 0 -278 47t-187 110l121 170q175 -145 367 -145q126 0 195 58.5t69 150.5q0 60 -37.5 107.5t-97 80.5t-131.5 64.5t-144 69t-131.5 83.5t-97 118.5t-37.5 164.5q0 170 130 283.5t331 113.5
q127 0 228 -39t161 -96l-127 -158q-125 109 -276 109q-110 0 -174 -55.5t-64 -143.5q0 -61 37.5 -109t97 -81.5t132 -65.5t145 -69.5t132 -83.5t97 -118t37.5 -163z" />
    <glyph glyph-name="T" unicode="T" horiz-adv-x="995" 
d="M602 0h-207v1257h-377v179h959v-179h-375v-1257z" />
    <glyph glyph-name="U" unicode="U" horiz-adv-x="1404" 
d="M1225 518q0 -269 -145 -403.5t-396 -134.5q-247 0 -375.5 133.5t-128.5 367.5v955h205v-920q0 -179 84 -267.5t242 -88.5q307 0 307 332v944h207v-918z" />
    <glyph glyph-name="V" unicode="V" horiz-adv-x="1267" 
d="M780 0h-295l-467 1436h228l299 -959q46 -146 92 -313h8q44 171 88 315l299 957h217z" />
    <glyph glyph-name="W" unicode="W" horiz-adv-x="1916" 
d="M662 0h-277l-367 1436h218l204 -799q70 -293 88 -424h9q26 132 84 371l204 852h275l213 -858q49 -200 82 -363h8q51 263 86 399l205 822h207l-371 -1436h-275l-204 836q-56 228 -88 393h-9q-39 -207 -80 -365z" />
    <glyph glyph-name="X" unicode="X" horiz-adv-x="1228" 
d="M264 0h-235l467 735l-443 701h250l313 -529h11l307 529h235l-438 -697l469 -739h-246l-344 565h-10z" />
    <glyph glyph-name="Y" unicode="Y" horiz-adv-x="1159" 
d="M682 0h-205v502l-479 934h233l349 -723h8l350 723h223l-479 -934v-502z" />
    <glyph glyph-name="Z" unicode="Z" horiz-adv-x="1079" 
d="M1008 0h-922l-33 176l701 1069v8h-631v183h846l32 -176l-694 -1070v-8h701v-182z" />
    <glyph glyph-name="bracketleft" unicode="[" horiz-adv-x="669" 
d="M645 -467h-442v2138h442v-145h-258v-1848h258v-145z" />
    <glyph glyph-name="backslash" unicode="\" horiz-adv-x="729" 
d="M735 -291h-176l-565 1786h178z" />
    <glyph glyph-name="bracketright" unicode="]" horiz-adv-x="669" 
d="M465 -467h-442v145h260v1848h-260v145h442v-2138z" />
    <glyph glyph-name="asciicircum" unicode="^" horiz-adv-x="1112" 
d="M279 616h-199l362 820h228l362 -818h-203l-155 369l-115 295h-8l-117 -297z" />
    <glyph glyph-name="underscore" unicode="_" horiz-adv-x="1024" 
d="M1020 -256h-1016v162h1016v-162z" />
    <glyph glyph-name="grave" unicode="`" horiz-adv-x="1032" 
d="M788 1364l-116 -90l-430 260l188 108z" />
    <glyph glyph-name="a" unicode="a" horiz-adv-x="1116" 
d="M748 123q-120 -143 -322 -143q-151 0 -239.5 89t-88.5 212q0 187 166 279.5t461 84.5v113q0 119 -54.5 167t-160.5 48q-161 0 -238 -133l-145 112q144 193 387 193q401 0 401 -352v-492q0 -145 101 -145h31v-146q-39 -20 -86 -20q-154 0 -205 133h-8zM299 299
q0 -69 47.5 -114.5t130.5 -45.5q80 0 145.5 38t102.5 95v224q-126 6 -220.5 -12.5t-150 -65.5t-55.5 -119z" />
    <glyph glyph-name="b" unicode="b" horiz-adv-x="1161" 
d="M1061 594q0 -182 -61 -318.5t-189 -216t-311 -79.5q-209 0 -338 63v1511h200v-497h9q36 30 103.5 55t152.5 25q94 0 170.5 -30t136.5 -92.5t93.5 -169.5t33.5 -251zM365 176q67 -26 159 -26q155 0 244.5 106.5t89.5 314.5q0 89 -15 158t-41 113t-63 72t-77 39.5t-87 11.5
q-63 0 -120.5 -26.5t-89.5 -70.5v-692z" />
    <glyph glyph-name="c" unicode="c" horiz-adv-x="985" 
d="M924 119q-115 -137 -357 -137q-467 0 -467 567q0 296 134 447t358 151q124 0 211 -38t131 -93l-135 -142q-89 99 -213 99q-277 0 -277 -404q0 -415 277 -415q134 0 211 96z" />
    <glyph glyph-name="d" unicode="d" horiz-adv-x="1167" 
d="M805 109q-36 -51 -112 -90t-177 -39q-195 0 -305.5 132t-110.5 400q0 156 40 276t112 193t165.5 110t205.5 37q88 0 182 -20v446h201v-1554h-154l-39 109h-8zM307 532q0 -201 72.5 -293t187.5 -92q167 0 240 156v623q-65 30 -164 30q-166 0 -251 -100t-85 -324z" />
    <glyph glyph-name="e" unicode="e" horiz-adv-x="1128" 
d="M981 92q-142 -108 -373 -108q-254 0 -381 140.5t-127 442.5q0 144 38.5 256.5t106.5 182t156.5 105.5t192.5 36q201 0 311.5 -120.5t110.5 -326.5q0 -101 -10 -196h-705q9 -185 89 -268.5t243 -83.5q79 0 148.5 27.5t109.5 64.5zM582 981q-116 0 -193 -81t-84 -245h514
q2 20 2 56q0 270 -239 270z" />
    <glyph glyph-name="f" unicode="f" horiz-adv-x="753" 
d="M434 0h-203v977h-180v149h185v144q0 140 87 225.5t259 85.5q95 0 174 -22l-35 -168q-72 20 -146 20q-73 0 -105 -35t-32 -108v-142h277v-149h-281v-977z" />
    <glyph glyph-name="g" unicode="g" horiz-adv-x="1161" 
d="M999 8q0 -219 -128.5 -332.5t-350.5 -113.5q-271 0 -395 129l117 157q100 -114 293 -114q140 0 203 66.5t63 209.5v90h-8q-35 -31 -102.5 -56.5t-155.5 -25.5q-91 0 -167 28t-137.5 88t-96 164.5t-34.5 246.5q0 176 58.5 307.5t184 209t306.5 77.5q219 0 350 -62v-1069z
M305 561q0 -373 279 -373q63 0 120.5 26t94.5 71v655q-73 29 -166 29q-153 0 -240.5 -103.5t-87.5 -304.5z" />
    <glyph glyph-name="h" unicode="h" horiz-adv-x="1198" 
d="M365 0h-203v1554h203v-548h8q45 51 124.5 94t192.5 43q164 0 258 -97t94 -272v-774h-202v737q0 105 -53 166.5t-154 61.5q-93 0 -164.5 -52t-103.5 -125v-788z" />
    <glyph glyph-name="i" unicode="i" horiz-adv-x="595" 
d="M403 0h-202v1126h202v-1126zM430 1444q0 -56 -38.5 -93.5t-96.5 -37.5q-56 0 -94.5 38t-38.5 93q0 59 38.5 98t94.5 39q59 0 97 -38.5t38 -98.5z" />
    <glyph glyph-name="j" unicode="j" horiz-adv-x="540" 
d="M373 96q0 -435 -361 -549l-67 166q55 20 92 44.5t69.5 67.5t48 111.5t15.5 165.5v1024h203v-1030zM399 1444q0 -56 -38.5 -93.5t-96.5 -37.5q-56 0 -94.5 38t-38.5 93q0 59 38.5 98t94.5 39q59 0 97 -38.5t38 -98.5z" />
    <glyph glyph-name="k" unicode="k" horiz-adv-x="1069" 
d="M1026 0h-250l-389 584v8l377 534h244l-392 -530v-8zM365 0h-203v1554h203v-1554z" />
    <glyph glyph-name="l" unicode="l" horiz-adv-x="606" 
d="M561 10q-67 -26 -143 -26q-121 0 -184.5 67t-63.5 189v1314h201v-1261q0 -70 26.5 -101.5t83.5 -31.5q32 0 80 16v-166z" />
    <glyph glyph-name="m" unicode="m" horiz-adv-x="1796" 
d="M365 0h-203v1126h160l38 -114h9q41 56 114.5 97.5t178.5 41.5q219 0 292 -172h9q41 73 126 122.5t205 49.5q168 0 257 -94.5t89 -280.5v-776h-202v737q0 118 -53 178t-146 60q-84 0 -148.5 -50t-89.5 -120v-805h-202v723q0 123 -52.5 187.5t-152.5 64.5
q-86 0 -147.5 -53.5t-81.5 -128.5v-793z" />
    <glyph glyph-name="n" unicode="n" horiz-adv-x="1198" 
d="M365 0h-203v1126h155l41 -114h9q42 51 125.5 95t189.5 44q170 0 263.5 -94t96.5 -279v-778h-202v733q0 116 -56 179t-161 63q-91 0 -160 -51t-98 -131v-793z" />
    <glyph glyph-name="o" unicode="o" horiz-adv-x="1163" 
d="M1063 569q0 -134 -27 -239t-84.5 -184.5t-152.5 -121.5t-224 -42q-131 0 -224 40.5t-147.5 119t-79 180.5t-24.5 237q0 134 27 239.5t84.5 184.5t152.5 121.5t224 42.5q130 0 223.5 -41t148 -119t79 -180.5t24.5 -237.5zM309 571q0 -214 66.5 -317.5t212.5 -103.5
q144 0 205 98t61 309q0 216 -66 319t-213 103q-140 0 -203 -99.5t-63 -308.5z" />
    <glyph glyph-name="p" unicode="p" horiz-adv-x="1167" 
d="M362 -397h-200v1523h149l43 -108h8q100 129 287 129q195 0 306.5 -136.5t111.5 -400.5q0 -293 -144.5 -452.5t-383.5 -159.5q-89 0 -177 16v-411zM360 197q70 -27 162 -27q168 0 253 102t85 316q0 105 -22 183t-60.5 121.5t-84.5 64t-101 20.5q-81 0 -139.5 -39
t-92.5 -96v-645z" />
    <glyph glyph-name="q" unicode="q" horiz-adv-x="1159" 
d="M999 -397h-196v456h-8q-35 -29 -106 -54t-161 -25t-165.5 30.5t-135.5 93.5t-93.5 170t-33.5 250q0 135 34 245.5t100.5 193.5t173.5 128.5t245 45.5q218 0 346 -64v-1470zM305 543q0 -391 281 -391q64 0 122.5 25.5t92.5 68.5v692q-72 29 -172 29q-154 0 -239 -108.5
t-85 -315.5z" />
    <glyph glyph-name="r" unicode="r" horiz-adv-x="774" 
d="M362 0h-200v1126h155l43 -137h9q39 71 113 114.5t171 43.5q67 0 109 -10v-207q-66 16 -127 16q-82 0 -157 -33.5t-116 -95.5v-817z" />
    <glyph glyph-name="s" unicode="s" horiz-adv-x="983" 
d="M881 311q0 -60 -25 -117t-73.5 -105t-131 -77.5t-186.5 -29.5q-141 0 -249 44t-167 105l123 148q52 -55 131.5 -92t171.5 -37q100 0 151.5 43t51.5 110q0 46 -30.5 80t-80 56t-109 43t-118.5 48t-108.5 62t-80 93.5t-30.5 135.5q0 134 107 229t288 95q114 0 205 -35.5
t147 -95.5l-131 -135q-39 42 -100 69t-127 27q-91 0 -139.5 -41t-48.5 -103q0 -46 31 -80.5t80 -56.5t109 -43t119.5 -48t108.5 -62t80 -94t31 -136z" />
    <glyph glyph-name="t" unicode="t" horiz-adv-x="792" 
d="M764 47q-87 -57 -270 -57q-301 0 -301 327v650h-160v127l160 41l65 284h135v-293h301v-159h-301v-645q0 -81 39.5 -120.5t110.5 -39.5q108 0 168 43z" />
    <glyph glyph-name="u" unicode="u" horiz-adv-x="1200" 
d="M834 113q-43 -53 -121.5 -94.5t-194.5 -41.5q-356 0 -362 383v766h202v-733q0 -248 222 -248q113 0 182.5 64t75.5 168v749h202v-1126h-166l-32 113h-8z" />
    <glyph glyph-name="v" unicode="v" horiz-adv-x="1028" 
d="M637 0h-231l-388 1126h222l198 -632q52 -172 80 -301h8q21 98 80 301l197 632h207z" />
    <glyph glyph-name="w" unicode="w" horiz-adv-x="1591" 
d="M575 0h-253l-299 1126h206l148 -591q45 -183 76 -359h8q26 165 69 328l160 622h234l149 -618q55 -222 70 -332h8q44 217 82 365l147 585h189l-297 -1126h-258l-207 899h-8z" />
    <glyph glyph-name="x" unicode="x" horiz-adv-x="1013" 
d="M266 0h-237l360 584l-340 542h232l231 -391h8l207 391h238l-338 -544l358 -582h-233l-246 426h-8z" />
    <glyph glyph-name="y" unicode="y" horiz-adv-x="1048" 
d="M629 -72q-27 -83 -61.5 -145t-84 -111.5t-119 -75.5t-157.5 -26t-146 24l35 175q56 -23 111 -23q96 0 153.5 55t85.5 172l-411 1153h223l166 -501q70 -212 119 -406h8q28 154 104 406l156 501h209z" />
    <glyph glyph-name="z" unicode="z" horiz-adv-x="954" 
d="M866 0h-762l-30 180l540 768v8h-501v170h698l37 -180l-539 -768v-8h557v-170z" />
    <glyph glyph-name="braceleft" unicode="{" horiz-adv-x="702" 
d="M692 -455q-53 -20 -121 -20q-153 0 -229 80t-76 233q0 88 25.5 250.5t25.5 243.5q0 80 -42.5 127t-139.5 59v180q97 10 139.5 57t42.5 128t-25.5 238t-25.5 245q0 313 297 313q78 0 129 -22l-24 -139q-47 14 -88 14q-129 0 -129 -170q0 -81 24.5 -235t24.5 -228
q0 -108 -48 -184t-145 -103v-8q97 -28 145 -104.5t48 -184.5q0 -74 -24.5 -233t-24.5 -240q0 -170 129 -170q37 0 88 15z" />
    <glyph glyph-name="bar" unicode="|" horiz-adv-x="563" 
d="M356 -526h-149v2257h149v-2257z" />
    <glyph glyph-name="braceright" unicode="}" horiz-adv-x="702" 
d="M436 -162q0 -153 -77 -233t-230 -80q-68 0 -121 20l27 142q51 -15 88 -15q65 0 97 45t32 125q0 81 -24.5 240t-24.5 233q0 109 47 185t145 104v8q-97 27 -144.5 102.5t-47.5 184.5q0 74 24.5 228t24.5 235q0 80 -32 125t-97 45q-41 0 -88 -14l-27 139q51 22 129 22
q299 0 299 -313q0 -88 -26.5 -245t-26.5 -238q0 -166 184 -185v-180q-97 -12 -140.5 -59t-43.5 -127q0 -81 26.5 -243.5t26.5 -250.5z" />
    <glyph glyph-name="asciitilde" unicode="~" horiz-adv-x="1110" 
d="M215 526q0 -26 6 -53l-170 25q-2 12 -2 45q0 120 65.5 194t182.5 74q62 0 136.5 -23.5t131.5 -52.5t123 -52.5t113 -23.5q92 0 92 111q0 17 -4 53l168 -24q2 -11 2 -70q-8 -113 -71 -178.5t-175 -65.5q-63 0 -137.5 23.5t-131.5 51.5t-122.5 51.5t-112.5 23.5
q-94 0 -94 -109z" />
    <glyph glyph-name="exclamdown" unicode="&#xa1;" horiz-adv-x="602" 
d="M434 -322h-260l47 908h164zM442 1010q0 -63 -40 -104.5t-99 -41.5q-62 0 -102.5 41.5t-40.5 104.5q0 57 41 97t102 40q58 0 98.5 -40t40.5 -97z" />
    <glyph glyph-name="cent" unicode="&#xa2;" horiz-adv-x="987" 
d="M373 -266h-127l104 289q-248 114 -248 526q0 150 37 265.5t103 187.5t154.5 108.5t195.5 36.5q83 0 158 -21l94 256h129l-111 -305q40 -27 70 -67l-146 -140l-258 -710q27 -6 60 -6q129 0 211 100l123 -135q-17 -22 -41.5 -42.5t-66 -43.5t-106 -37t-141.5 -14
q-59 0 -100 8zM305 569q0 -259 111 -356h4l270 745q-46 19 -106 19q-130 0 -204.5 -98.5t-74.5 -309.5z" />
    <glyph glyph-name="sterling" unicode="&#xa3;" horiz-adv-x="1138" 
d="M1067 0h-920l-34 168q71 36 108 96.5t43 169.5l15 193h-156v166h166l18 231q15 199 134.5 305.5t299.5 106.5q225 0 344 -144l-135 -139q-80 107 -229 107q-193 0 -209 -230l-18 -237h415v-166h-428l-12 -181q-13 -191 -119 -262v-8h717v-176z" />
    <glyph glyph-name="currency" unicode="&#xa4;" horiz-adv-x="1099" 
d="M295 295l-121 -119l-123 121l119 119q-72 109 -72 250q0 136 76 249l-123 123l123 121l123 -123q112 76 258 76q136 0 250 -70l119 117l123 -121l-119 -118q73 -110 73 -246q0 -141 -79 -254l125 -123l-123 -121l-125 123q-110 -72 -254 -72t-250 68zM270 670
q0 -119 79 -200t200 -81q122 0 201 80t79 201q0 120 -79 200t-201 80q-121 0 -200 -80.5t-79 -199.5z" />
    <glyph glyph-name="yen" unicode="&#xa5;" horiz-adv-x="1120" 
d="M664 0h-207v500h-398v170h310l-361 751h234l198 -440l121 -309h8l121 311l201 438h221l-362 -751h307v-170h-393v-500z" />
    <glyph glyph-name="brokenbar" unicode="&#xa6;" horiz-adv-x="563" 
d="M356 819h-149v709h149v-709zM356 -336h-149v709h149v-709z" />
    <glyph glyph-name="section" unicode="&#xa7;" horiz-adv-x="1167" 
d="M1057 279q0 -111 -43.5 -211.5t-122.5 -177t-198.5 -121.5t-262.5 -45q-100 0 -186 22l30 152q84 -31 168 -31q80 0 140 19.5t91.5 53t46.5 70t15 76.5q0 59 -32.5 113.5t-84.5 101t-115 94t-126 102.5t-115 116t-84.5 144.5t-32.5 178.5q0 112 43 216t119.5 183.5
t192 127.5t252.5 48q92 0 163 -18l-32 -147q-70 24 -150 24q-131 0 -204.5 -58.5t-73.5 -154.5q0 -59 33 -117t86.5 -108t117.5 -102t128 -110.5t117.5 -121t86.5 -145.5t33 -174zM860 135q2 -31 -8 -78h10q62 99 62 222q0 76 -31.5 144t-82.5 120.5t-112.5 103t-123.5 100
t-113.5 100.5t-85.5 116t-37 137q-3 30 6 65h-10q-58 -88 -58 -221q0 -64 24.5 -123.5t64.5 -105t92 -93t106 -87t106 -86t93.5 -91.5t68.5 -103t29 -120z" />
    <glyph glyph-name="dieresis" unicode="&#xa8;" horiz-adv-x="1032" 
d="M848 1458q0 -50 -33.5 -84.5t-85.5 -34.5q-51 0 -85 34.5t-34 84.5q0 51 34 85t85 34q52 0 85.5 -34t33.5 -85zM422 1458q0 -50 -34.5 -84.5t-86.5 -34.5q-51 0 -85 34.5t-34 84.5q0 51 34 85t85 34q52 0 86.5 -34t34.5 -85z" />
    <glyph glyph-name="copyright" unicode="&#xa9;" horiz-adv-x="1710" 
d="M1604 709q0 -157 -57.5 -294.5t-156.5 -235t-238.5 -154t-297.5 -56.5q-161 0 -300.5 55t-238.5 152t-155 234t-56 295t57.5 296t157.5 235.5t239.5 153.5t297.5 56q216 0 386.5 -93.5t266 -262t95.5 -381.5zM1114 383q-90 -90 -242 -90q-167 0 -256.5 107t-89.5 305
t96 310.5t257 112.5q95 0 153.5 -27.5t85.5 -62.5l-88 -110q-56 69 -153 69q-90 0 -141.5 -70.5t-51.5 -215.5q0 -147 51.5 -216t143.5 -69q94 0 151 68zM264 709q0 -168 75.5 -302.5t210.5 -210t306 -75.5q256 0 422 165t166 419q0 259 -165 424t-425 165t-425 -164
t-165 -421z" />
    <glyph glyph-name="guillemotleft" unicode="&#xab;" horiz-adv-x="1077" 
d="M997 203l-131 -101l-342 459l342 461l131 -102l-256 -359zM553 203l-129 -101l-344 459l344 461l129 -102l-256 -359z" />
    <glyph glyph-name="logicalnot" unicode="&#xac;" horiz-adv-x="1099" 
d="M1055 377h-164v377h-848v159h1012v-536z" />
    <glyph glyph-name="registered" unicode="&#xae;" horiz-adv-x="1036" 
d="M954 1024q0 -193 -123.5 -313.5t-314.5 -120.5q-189 0 -311.5 117.5t-122.5 312.5q0 193 125 313.5t311 120.5q190 0 313 -118t123 -312zM182 1022q0 -152 96 -247t238 -95q147 0 242.5 93.5t95.5 246.5q0 155 -96.5 248.5t-239.5 93.5q-145 0 -240.5 -92.5t-95.5 -247.5
zM471 805h-94v457h149q72 0 115 -34t43 -102q0 -109 -84 -129l113 -192h-111l-88 168h-43v-168zM471 1182v-131h47q39 0 55.5 16t16.5 51q0 64 -66 64h-53z" />
    <glyph glyph-name="macron" unicode="&#xaf;" horiz-adv-x="1032" 
d="M831 1352h-632v159h632v-159z" />
    <glyph glyph-name="degree" unicode="&#xb0;" horiz-adv-x="757" 
d="M682 1151q0 -131 -87 -215t-220 -84t-216 80t-83 211t87 215t220 84t216 -80t83 -211zM207 1149q0 -77 50 -129.5t126 -52.5q75 0 120.5 50.5t45.5 127.5q0 76 -49 128t-125 52q-75 0 -121.5 -50t-46.5 -126z" />
    <glyph glyph-name="plusminus" unicode="&#xb1;" horiz-adv-x="1099" 
d="M1034 61h-971v170h398v385h-398v170h398v402h174v-402h399v-170h-399v-385h399v-170z" />
    <glyph glyph-name="twosuperior" unicode="&#xb2;" horiz-adv-x="743" 
d="M657 799h-577l-25 116q24 24 99 94.5t137.5 134t107.5 118.5q78 91 78 161q0 57 -30.5 88t-88.5 31q-55 0 -87.5 -35.5t-39.5 -87.5l-159 33q20 95 92.5 153t197.5 58q133 0 204 -61.5t71 -165.5q0 -125 -119 -260q-62 -70 -145 -150l-121 -108l162 6h243v-125z" />
    <glyph glyph-name="threesuperior" unicode="&#xb3;" horiz-adv-x="741" 
d="M666 1047q0 -127 -84.5 -196t-237.5 -69q-106 0 -177.5 42.5t-107.5 109.5l136 72q56 -103 167 -103q80 0 114 34.5t34 100.5q0 67 -45.5 98t-145.5 31h-65v115h70q87 0 123 34.5t36 104.5q0 53 -33 88t-98 35q-53 0 -85 -30t-42 -78l-151 20q12 91 87.5 149t194.5 58
q134 0 208.5 -56.5t74.5 -168.5q0 -149 -125 -203q68 -11 110 -58t42 -130z" />
    <glyph glyph-name="acute" unicode="&#xb4;" horiz-adv-x="1032" 
d="M788 1534l-430 -260l-116 90l358 278z" />
    <glyph glyph-name="uni00B5" unicode="&#xb5;" horiz-adv-x="1255" 
d="M362 -397h-200v1523h203v-720q0 -259 221 -259q125 0 190.5 70t65.5 207v702h202v-796q0 -90 26.5 -130t84.5 -40q18 0 33 6v-156q-40 -18 -90 -18q-81 0 -136.5 39.5t-74.5 122.5h-8q-33 -72 -108 -121t-202 -49q-124 0 -207 71v-452z" />
    <glyph glyph-name="paragraph" unicode="&#xb6;" horiz-adv-x="1198" 
d="M614 106q0 -309 -225 -481l-110 109q48 41 75 70t54.5 75t39 107t11.5 145v508h-47q-165 0 -258 94t-93 285q0 204 119 311t324 107h112zM969 0h-154v1436h154v-1436z" />
    <glyph glyph-name="periodcentered" unicode="&#xb7;" horiz-adv-x="512" 
d="M403 717q0 -61 -42.5 -103.5t-106.5 -42.5q-61 0 -103 43t-42 103q0 64 41.5 107.5t103.5 43.5q64 0 106.5 -43t42.5 -108z" />
    <glyph glyph-name="cedilla" unicode="&#xb8;" horiz-adv-x="1032" 
d="M657 -238q0 -85 -52.5 -155t-168.5 -107l-63 105q127 57 127 157q0 66 -51 125v9h172q36 -52 36 -134z" />
    <glyph glyph-name="onesuperior" unicode="&#xb9;" horiz-adv-x="620" 
d="M479 799h-160v489q0 60 2.5 132.5t2.5 80.5h-2l-103 -74l-113 -71l-79 127l290 166h162v-850z" />
    <glyph glyph-name="guillemotright" unicode="&#xbb;" horiz-adv-x="1077" 
d="M997 561l-342 -459l-131 101l256 358l-256 359l131 102zM553 561l-342 -459l-131 101l258 358l-258 359l131 102z" />
    <glyph glyph-name="questiondown" unicode="&#xbf;" horiz-adv-x="854" 
d="M297 397l252 230q94 -32 94 -119q0 -40 -26.5 -79.5t-66 -72t-85.5 -71.5t-85.5 -76t-66 -87t-26.5 -104q0 -85 50 -132.5t140 -47.5q62 0 114 20t78 41t54 52l135 -156q-142 -137 -395 -137q-180 0 -282.5 87t-102.5 245q0 128 52 216.5t167 190.5zM334 1008q0 59 41 99
t104 40q60 0 99.5 -39.5t39.5 -99.5q0 -62 -41 -104t-100 -42q-63 0 -103 41t-40 105z" />
    <glyph glyph-name="Agrave" unicode="&#xc0;" horiz-adv-x="1259" 
d="M535 977l-125 -406h436l-123 400q-67 229 -92 321h-8q-18 -68 -88 -315zM231 0h-211l455 1436h307l459 -1436h-219l-121 393h-547zM731 1659l-117 -90l-430 260l189 108z" />
    <glyph glyph-name="Aacute" unicode="&#xc1;" horiz-adv-x="1259" 
d="M535 977l-125 -406h436l-123 400q-67 229 -92 321h-8q-18 -68 -88 -315zM231 0h-211l455 1436h307l459 -1436h-219l-121 393h-547zM1059 1851l-430 -260l-117 90l358 279z" />
    <glyph glyph-name="Acircumflex" unicode="&#xc2;" horiz-adv-x="1259" 
d="M535 977l-125 -406h436l-123 400q-67 229 -92 321h-8q-18 -68 -88 -315zM231 0h-211l455 1436h307l459 -1436h-219l-121 393h-547zM627 1778l-330 -189l-72 121l402 254l403 -254l-76 -121z" />
    <glyph glyph-name="Atilde" unicode="&#xc3;" horiz-adv-x="1259" 
d="M535 977l-125 -406h436l-123 400q-67 229 -92 321h-8q-18 -68 -88 -315zM231 0h-211l455 1436h307l459 -1436h-219l-121 393h-547zM494 1714q-49 0 -82.5 -15.5t-63.5 -51.5l-80 122q24 35 76.5 68t130.5 33q61 0 158.5 -37t136.5 -37q50 0 80.5 18t56.5 52l80 -123
q-19 -34 -71.5 -69.5t-129.5 -35.5q-51 0 -151.5 38t-140.5 38z" />
    <glyph glyph-name="Adieresis" unicode="&#xc4;" horiz-adv-x="1259" 
d="M535 977l-125 -406h436l-123 400q-67 229 -92 321h-8q-18 -68 -88 -315zM231 0h-211l455 1436h307l459 -1436h-219l-121 393h-547zM535 1776q0 -50 -34.5 -84.5t-86.5 -34.5q-51 0 -85 34.5t-34 84.5q0 51 34 84.5t85 33.5q52 0 86.5 -33.5t34.5 -84.5zM961 1776
q0 -50 -33.5 -84.5t-85.5 -34.5q-51 0 -85 34.5t-34 84.5q0 51 34 84.5t85 33.5q52 0 85.5 -33.5t33.5 -84.5z" />
    <glyph glyph-name="Aring" unicode="&#xc5;" horiz-adv-x="1259" 
d="M535 977l-125 -406h436l-123 400q-67 229 -92 321h-8q-18 -68 -88 -315zM231 0h-211l455 1436h307l459 -1436h-219l-121 393h-547zM510 1784q0 -55 31.5 -88t87.5 -33t86 31t30 86t-31.5 88t-88.5 33q-55 0 -85 -32t-30 -85zM864 1788q0 -102 -66.5 -169t-172.5 -67
t-170 61.5t-64 162.5q0 102 66.5 167.5t173.5 65.5q106 0 169.5 -60.5t63.5 -160.5z" />
    <glyph glyph-name="AE" unicode="&#xc6;" horiz-adv-x="1785" 
d="M207 0h-217l768 1436h899v-179h-567v-440h493v-178h-493v-461h593v-178h-788v422h-463zM887 1276l-363 -678h371v678h-8z" />
    <glyph glyph-name="Ccedilla" unicode="&#xc7;" horiz-adv-x="1177" 
d="M1106 115q-52 -57 -157 -96t-255 -39t-262 51.5t-180 148.5t-101.5 228t-33.5 299q0 354 154.5 551.5t445.5 197.5q255 0 401 -133l-133 -156q-111 107 -285 107q-181 0 -276.5 -136.5t-95.5 -416.5q0 -271 99 -414t292 -143q176 0 272 96zM801 -238q0 -85 -52.5 -155
t-168.5 -107l-64 105q127 57 127 157q0 66 -51 125v9h172q37 -53 37 -134z" />
    <glyph glyph-name="Egrave" unicode="&#xc8;" horiz-adv-x="1101" 
d="M999 0h-813v1436h787v-179h-582v-440h508v-178h-508v-461h608v-178zM702 1681l-116 -90l-430 260l188 109z" />
    <glyph glyph-name="Eacute" unicode="&#xc9;" horiz-adv-x="1101" 
d="M999 0h-813v1436h787v-179h-582v-440h508v-178h-508v-461h608v-178zM1010 1851l-430 -260l-117 90l358 279z" />
    <glyph glyph-name="Ecircumflex" unicode="&#xca;" horiz-adv-x="1101" 
d="M999 0h-813v1436h787v-179h-582v-440h508v-178h-508v-461h608v-178zM569 1778l-329 -189l-72 121l401 254l404 -254l-76 -121z" />
    <glyph glyph-name="Edieresis" unicode="&#xcb;" horiz-adv-x="1101" 
d="M999 0h-813v1436h787v-179h-582v-440h508v-178h-508v-461h608v-178zM911 1776q0 -50 -33 -84.5t-85 -34.5q-51 0 -85 34.5t-34 84.5q0 51 34 84.5t85 33.5q52 0 85 -33.5t33 -84.5zM485 1776q0 -50 -34 -84.5t-86 -34.5q-51 0 -85 34.5t-34 84.5q0 51 34 84.5t85 33.5
q52 0 86 -33.5t34 -84.5z" />
    <glyph glyph-name="Igrave" unicode="&#xcc;" horiz-adv-x="614" 
d="M412 0h-207v1436h207v-1436zM434 1681l-117 -90l-430 260l189 109z" />
    <glyph glyph-name="Iacute" unicode="&#xcd;" horiz-adv-x="614" 
d="M412 0h-207v1436h207v-1436zM717 1851l-430 -260l-117 90l358 279z" />
    <glyph glyph-name="Icircumflex" unicode="&#xce;" horiz-adv-x="614" 
d="M412 0h-207v1436h207v-1436zM307 1778l-330 -189l-71 121l401 254l404 -254l-76 -121z" />
    <glyph glyph-name="Idieresis" unicode="&#xcf;" horiz-adv-x="614" 
d="M412 0h-207v1436h207v-1436zM641 1776q0 -50 -33.5 -84.5t-85.5 -34.5q-51 0 -85 34.5t-34 84.5q0 51 34 84.5t85 33.5q52 0 85.5 -33.5t33.5 -84.5zM215 1776q0 -50 -34.5 -84.5t-86.5 -34.5q-51 0 -85 34.5t-34 84.5q0 51 34 84.5t85 33.5q52 0 86.5 -33.5t34.5 -84.5z
" />
    <glyph glyph-name="Eth" unicode="&#xd0;" horiz-adv-x="1353" 
d="M596 0h-397v668h-154v145h154v623h397q330 0 485.5 -170.5t155.5 -528.5q0 -169 -35.5 -301t-110 -231t-199.5 -152t-296 -53zM406 1257v-444h305v-145h-305v-490h182q231 0 334.5 128.5t103.5 408.5q0 150 -29.5 255.5t-88.5 168t-139 90.5t-189 28h-174z" />
    <glyph glyph-name="Ntilde" unicode="&#xd1;" horiz-adv-x="1449" 
d="M385 0h-199v1436h273l428 -809q136 -264 176 -357h12q-6 152 -6 432v734h195v-1436h-267l-438 825q-66 127 -172 359h-12q10 -215 10 -416v-768zM590 1714q-49 0 -82.5 -15.5t-63.5 -51.5l-79 122q24 35 76 68t130 33q61 0 158.5 -37t136.5 -37q50 0 81 18.5t57 51.5
l79 -123q-19 -34 -71.5 -69.5t-128.5 -35.5q-51 0 -152 38t-141 38z" />
    <glyph glyph-name="Ograve" unicode="&#xd2;" horiz-adv-x="1390" 
d="M1264 725q0 -194 -41 -338.5t-118 -232.5t-181.5 -131t-237.5 -43t-233.5 40t-174 125.5t-111.5 227.5t-38 338q0 193 41 337.5t118 233t181 131.5t236 43t233 -40.5t175 -126t112.5 -227.5t38.5 -337zM340 727q0 -156 25 -267t73.5 -176t112.5 -94.5t149 -29.5
q67 0 119.5 17t96.5 56.5t73.5 102.5t45.5 157.5t16 217.5q0 155 -25 265.5t-73 175.5t-112.5 94.5t-150.5 29.5q-82 0 -143.5 -27.5t-109.5 -89t-72.5 -170t-24.5 -262.5zM823 1681l-116 -90l-431 260l189 109z" />
    <glyph glyph-name="Oacute" unicode="&#xd3;" horiz-adv-x="1390" 
d="M1264 725q0 -194 -41 -338.5t-118 -232.5t-181.5 -131t-237.5 -43t-233.5 40t-174 125.5t-111.5 227.5t-38 338q0 193 41 337.5t118 233t181 131.5t236 43t233 -40.5t175 -126t112.5 -227.5t38.5 -337zM340 727q0 -156 25 -267t73.5 -176t112.5 -94.5t149 -29.5
q67 0 119.5 17t96.5 56.5t73.5 102.5t45.5 157.5t16 217.5q0 155 -25 265.5t-73 175.5t-112.5 94.5t-150.5 29.5q-82 0 -143.5 -27.5t-109.5 -89t-72.5 -170t-24.5 -262.5zM1116 1851l-430 -260l-117 90l359 279z" />
    <glyph glyph-name="Ocircumflex" unicode="&#xd4;" horiz-adv-x="1390" 
d="M1264 725q0 -194 -41 -338.5t-118 -232.5t-181.5 -131t-237.5 -43t-233.5 40t-174 125.5t-111.5 227.5t-38 338q0 193 41 337.5t118 233t181 131.5t236 43t233 -40.5t175 -126t112.5 -227.5t38.5 -337zM340 727q0 -156 25 -267t73.5 -176t112.5 -94.5t149 -29.5
q67 0 119.5 17t96.5 56.5t73.5 102.5t45.5 157.5t16 217.5q0 155 -25 265.5t-73 175.5t-112.5 94.5t-150.5 29.5q-82 0 -143.5 -27.5t-109.5 -89t-72.5 -170t-24.5 -262.5zM694 1778l-329 -189l-72 121l401 254l404 -254l-76 -121z" />
    <glyph glyph-name="Otilde" unicode="&#xd5;" horiz-adv-x="1390" 
d="M1264 725q0 -194 -41 -338.5t-118 -232.5t-181.5 -131t-237.5 -43t-233.5 40t-174 125.5t-111.5 227.5t-38 338q0 193 41 337.5t118 233t181 131.5t236 43t233 -40.5t175 -126t112.5 -227.5t38.5 -337zM340 727q0 -156 25 -267t73.5 -176t112.5 -94.5t149 -29.5
q67 0 119.5 17t96.5 56.5t73.5 102.5t45.5 157.5t16 217.5q0 155 -25 265.5t-73 175.5t-112.5 94.5t-150.5 29.5q-82 0 -143.5 -27.5t-109.5 -89t-72.5 -170t-24.5 -262.5zM561 1714q-49 0 -82 -15.5t-63 -51.5l-80 122q24 35 76.5 68t130.5 33q61 0 158.5 -37t136.5 -37
q50 0 80.5 18t56.5 52l80 -123q-19 -34 -71.5 -69.5t-129.5 -35.5q-51 0 -152 38t-141 38z" />
    <glyph glyph-name="Odieresis" unicode="&#xd6;" horiz-adv-x="1390" 
d="M1264 725q0 -194 -41 -338.5t-118 -232.5t-181.5 -131t-237.5 -43t-233.5 40t-174 125.5t-111.5 227.5t-38 338q0 193 41 337.5t118 233t181 131.5t236 43t233 -40.5t175 -126t112.5 -227.5t38.5 -337zM340 727q0 -156 25 -267t73.5 -176t112.5 -94.5t149 -29.5
q67 0 119.5 17t96.5 56.5t73.5 102.5t45.5 157.5t16 217.5q0 155 -25 265.5t-73 175.5t-112.5 94.5t-150.5 29.5q-82 0 -143.5 -27.5t-109.5 -89t-72.5 -170t-24.5 -262.5zM1028 1776q0 -50 -33.5 -84.5t-85.5 -34.5q-51 0 -84.5 34.5t-33.5 84.5q0 51 33.5 84.5t84.5 33.5
q52 0 85.5 -33.5t33.5 -84.5zM602 1776q0 -50 -34.5 -84.5t-86.5 -34.5q-51 0 -85 34.5t-34 84.5q0 51 34 84.5t85 33.5q52 0 86.5 -33.5t34.5 -84.5z" />
    <glyph glyph-name="multiply" unicode="&#xd7;" horiz-adv-x="1099" 
d="M549 588l-307 -314l-119 121l313 307l-313 308l119 116l307 -311l307 313l119 -120l-311 -308l311 -307l-119 -117z" />
    <glyph glyph-name="Oslash" unicode="&#xd8;" horiz-adv-x="1390" 
d="M1276 725q0 -194 -42.5 -338.5t-121.5 -232.5t-185.5 -131t-240.5 -43q-199 0 -326 88l-55 -86h-188v4l127 192q-127 181 -127 533q0 193 42 337.5t120.5 233t184 131.5t238.5 43q196 0 326 -90l59 90h189v-4l-131 -197q131 -186 131 -530zM475 238q84 -78 225 -78
q85 0 149.5 28t113.5 90.5t74.5 171t25.5 261.5q0 209 -55 338zM328 727q0 -218 55 -340l532 811q-84 78 -225 78q-67 0 -121 -16.5t-100 -56t-76.5 -101.5t-47.5 -156.5t-17 -218.5z" />
    <glyph glyph-name="Ugrave" unicode="&#xd9;" horiz-adv-x="1404" 
d="M1225 518q0 -269 -145 -403.5t-396 -134.5q-247 0 -375.5 133.5t-128.5 367.5v955h205v-920q0 -179 84 -267.5t242 -88.5q307 0 307 332v944h207v-918zM817 1681l-117 -90l-430 260l189 109z" />
    <glyph glyph-name="Uacute" unicode="&#xda;" horiz-adv-x="1404" 
d="M1225 518q0 -269 -145 -403.5t-396 -134.5q-247 0 -375.5 133.5t-128.5 367.5v955h205v-920q0 -179 84 -267.5t242 -88.5q307 0 307 332v944h207v-918zM1145 1851l-430 -260l-117 90l358 279z" />
    <glyph glyph-name="Ucircumflex" unicode="&#xdb;" horiz-adv-x="1404" 
d="M1225 518q0 -269 -145 -403.5t-396 -134.5q-247 0 -375.5 133.5t-128.5 367.5v955h205v-920q0 -179 84 -267.5t242 -88.5q307 0 307 332v944h207v-918zM700 1778l-329 -189l-72 121l401 254l404 -254l-76 -121z" />
    <glyph glyph-name="Udieresis" unicode="&#xdc;" horiz-adv-x="1404" 
d="M1225 518q0 -269 -145 -403.5t-396 -134.5q-247 0 -375.5 133.5t-128.5 367.5v955h205v-920q0 -179 84 -267.5t242 -88.5q307 0 307 332v944h207v-918zM1034 1776q0 -50 -33.5 -84.5t-85.5 -34.5q-51 0 -84.5 34.5t-33.5 84.5q0 51 33.5 84.5t84.5 33.5q52 0 85.5 -33.5
t33.5 -84.5zM608 1776q0 -50 -34.5 -84.5t-86.5 -34.5q-51 0 -84.5 34.5t-33.5 84.5q0 51 33.5 84.5t84.5 33.5q52 0 86.5 -33.5t34.5 -84.5z" />
    <glyph glyph-name="Yacute" unicode="&#xdd;" horiz-adv-x="1159" 
d="M682 0h-205v502l-479 934h233l349 -723h8l350 723h223l-479 -934v-502zM1022 1851l-430 -260l-117 90l359 279z" />
    <glyph glyph-name="Thorn" unicode="&#xde;" horiz-adv-x="1089" 
d="M387 0h-201v1436h201v-275q87 17 188 17q97 0 175.5 -24t138.5 -74t92.5 -132.5t32.5 -193.5q0 -234 -122 -360t-360 -126q-69 0 -145 13v-281zM389 463q57 -14 127 -14q285 0 285 276q0 270 -271 270q-55 0 -141 -14v-518z" />
    <glyph glyph-name="germandbls" unicode="&#xdf;" horiz-adv-x="1236" 
d="M1171 315q0 -67 -24.5 -126t-72 -105.5t-126 -74t-178.5 -27.5q-183 0 -301 77l84 160q104 -69 229 -69q91 0 143 42.5t52 112.5q0 60 -43 107t-104 80.5t-122 68.5t-104 87.5t-43 119.5q0 46 24 90t58.5 81t69 75.5t58.5 88t24 103.5q0 89 -55 136t-148 47
q-111 0 -171.5 -69t-60.5 -210v-1110h-198v1106q0 223 118.5 338t317.5 115q184 0 288.5 -92.5t104.5 -239.5q0 -69 -23 -130.5t-55.5 -103.5t-65.5 -77t-56 -65.5t-23 -55.5q0 -30 30 -59t74.5 -53t97 -58.5t97 -73t74.5 -100.5t30 -136z" />
    <glyph glyph-name="agrave" unicode="&#xe0;" horiz-adv-x="1124" 
d="M750 123q-120 -143 -322 -143q-151 0 -239.5 89t-88.5 212q0 187 166 279.5t461 84.5v113q0 119 -54.5 167t-160.5 48q-161 0 -238 -133l-145 112q144 193 387 193q402 0 402 -352v-492q0 -145 100 -145h31v-146q-39 -20 -86 -20q-154 0 -205 133h-8zM301 299
q0 -69 47.5 -114.5t130.5 -45.5q80 0 145.5 38t102.5 95v224q-126 6 -220.5 -12.5t-150 -65.5t-55.5 -119zM645 1364l-117 -90l-430 260l189 108z" />
    <glyph glyph-name="aacute" unicode="&#xe1;" horiz-adv-x="1124" 
d="M750 123q-120 -143 -322 -143q-151 0 -239.5 89t-88.5 212q0 187 166 279.5t461 84.5v113q0 119 -54.5 167t-160.5 48q-161 0 -238 -133l-145 112q144 193 387 193q402 0 402 -352v-492q0 -145 100 -145h31v-146q-39 -20 -86 -20q-154 0 -205 133h-8zM301 299
q0 -69 47.5 -114.5t130.5 -45.5q80 0 145.5 38t102.5 95v224q-126 6 -220.5 -12.5t-150 -65.5t-55.5 -119zM967 1534l-430 -260l-117 90l358 278z" />
    <glyph glyph-name="acircumflex" unicode="&#xe2;" horiz-adv-x="1124" 
d="M750 123q-120 -143 -322 -143q-151 0 -239.5 89t-88.5 212q0 187 166 279.5t461 84.5v113q0 119 -54.5 167t-160.5 48q-161 0 -238 -133l-145 112q144 193 387 193q402 0 402 -352v-492q0 -145 100 -145h31v-146q-39 -20 -86 -20q-154 0 -205 133h-8zM301 299
q0 -69 47.5 -114.5t130.5 -45.5q80 0 145.5 38t102.5 95v224q-126 6 -220.5 -12.5t-150 -65.5t-55.5 -119zM547 1460l-330 -188l-72 121l402 254l403 -254l-76 -121z" />
    <glyph glyph-name="atilde" unicode="&#xe3;" horiz-adv-x="1124" 
d="M750 123q-120 -143 -322 -143q-151 0 -239.5 89t-88.5 212q0 187 166 279.5t461 84.5v113q0 119 -54.5 167t-160.5 48q-161 0 -238 -133l-145 112q144 193 387 193q402 0 402 -352v-492q0 -145 100 -145h31v-146q-39 -20 -86 -20q-154 0 -205 133h-8zM301 299
q0 -69 47.5 -114.5t130.5 -45.5q80 0 145.5 38t102.5 95v224q-126 6 -220.5 -12.5t-150 -65.5t-55.5 -119zM428 1397q-49 0 -82 -16t-63 -52l-80 123q24 34 76.5 67t130.5 33q61 0 158.5 -36.5t136.5 -36.5q50 0 80.5 18t56.5 51l80 -123q-18 -34 -71 -69t-130 -35
q-51 0 -152 38t-141 38z" />
    <glyph glyph-name="adieresis" unicode="&#xe4;" horiz-adv-x="1124" 
d="M750 123q-120 -143 -322 -143q-151 0 -239.5 89t-88.5 212q0 187 166 279.5t461 84.5v113q0 119 -54.5 167t-160.5 48q-161 0 -238 -133l-145 112q144 193 387 193q402 0 402 -352v-492q0 -145 100 -145h31v-146q-39 -20 -86 -20q-154 0 -205 133h-8zM301 299
q0 -69 47.5 -114.5t130.5 -45.5q80 0 145.5 38t102.5 95v224q-126 6 -220.5 -12.5t-150 -65.5t-55.5 -119zM891 1458q0 -50 -33.5 -84.5t-85.5 -34.5q-51 0 -85 34.5t-34 84.5q0 51 34 85t85 34q52 0 85.5 -34t33.5 -85zM465 1458q0 -50 -34.5 -84.5t-86.5 -34.5
q-51 0 -85 34.5t-34 84.5q0 51 34 85t85 34q52 0 86.5 -34t34.5 -85z" />
    <glyph glyph-name="aring" unicode="&#xe5;" horiz-adv-x="1124" 
d="M750 123q-120 -143 -322 -143q-151 0 -239.5 89t-88.5 212q0 187 166 279.5t461 84.5v113q0 119 -54.5 167t-160.5 48q-161 0 -238 -133l-145 112q144 193 387 193q402 0 402 -352v-492q0 -145 100 -145h31v-146q-39 -20 -86 -20q-154 0 -205 133h-8zM301 299
q0 -69 47.5 -114.5t130.5 -45.5q80 0 145.5 38t102.5 95v224q-126 6 -220.5 -12.5t-150 -65.5t-55.5 -119zM799 1470q0 -102 -67 -168.5t-173 -66.5t-169.5 61t-63.5 162q0 102 66.5 168t172.5 66t170 -61t64 -161zM444 1466q0 -55 31.5 -87.5t87.5 -32.5t86.5 30.5
t30.5 85.5t-32 88t-89 33q-55 0 -85 -32t-30 -85z" />
    <glyph glyph-name="ae" unicode="&#xe6;" horiz-adv-x="1748" 
d="M829 170q-19 -41 -46.5 -73.5t-72 -62t-113.5 -45.5t-157 -16q-96 0 -169 26t-115.5 71t-63 99t-20.5 116q0 65 17 117.5t62 101.5t117.5 82t190 53t272.5 20v97q0 107 -57 162t-166 55q-53 0 -96.5 -12t-74 -34t-48 -40.5t-35.5 -42.5l-133 137q133 164 395 164
q268 0 350 -164h8q119 166 336 166q204 0 317 -121.5t113 -331.5q0 -100 -16 -194h-702q13 -184 95 -266t240 -82q165 0 275 106l100 -147q-134 -127 -397 -127q-157 0 -251 47.5t-146 138.5h-9zM276 307q0 -73 53.5 -123.5t141.5 -50.5q260 0 260 258v121q-241 0 -348 -46
t-107 -159zM1192 981q-51 0 -94.5 -17t-81.5 -53.5t-62 -101.5t-30 -154h514q2 20 2 54q0 135 -64.5 203.5t-183.5 68.5z" />
    <glyph glyph-name="ccedilla" unicode="&#xe7;" horiz-adv-x="985" 
d="M924 119q-115 -137 -357 -137q-467 0 -467 567q0 296 134 447t358 151q124 0 211 -38t131 -93l-135 -142q-89 99 -213 99q-277 0 -277 -404q0 -415 277 -415q134 0 211 96zM702 -238q0 -85 -52.5 -155t-168.5 -107l-63 105q127 57 127 157q0 66 -51 125v9h172
q36 -52 36 -134z" />
    <glyph glyph-name="egrave" unicode="&#xe8;" horiz-adv-x="1128" 
d="M981 92q-142 -108 -373 -108q-254 0 -381 140.5t-127 442.5q0 144 38.5 256.5t106.5 182t156.5 105.5t192.5 36q201 0 311.5 -120.5t110.5 -326.5q0 -101 -10 -196h-705q9 -185 89 -268.5t243 -83.5q79 0 148.5 27.5t109.5 64.5zM582 981q-116 0 -193 -81t-84 -245h514
q2 20 2 56q0 270 -239 270zM705 1364l-117 -90l-430 260l188 108z" />
    <glyph glyph-name="eacute" unicode="&#xe9;" horiz-adv-x="1128" 
d="M981 92q-142 -108 -373 -108q-254 0 -381 140.5t-127 442.5q0 144 38.5 256.5t106.5 182t156.5 105.5t192.5 36q201 0 311.5 -120.5t110.5 -326.5q0 -101 -10 -196h-705q9 -185 89 -268.5t243 -83.5q79 0 148.5 27.5t109.5 64.5zM582 981q-116 0 -193 -81t-84 -245h514
q2 20 2 56q0 270 -239 270zM1022 1534l-430 -260l-117 90l359 278z" />
    <glyph glyph-name="ecircumflex" unicode="&#xea;" horiz-adv-x="1128" 
d="M981 92q-142 -108 -373 -108q-254 0 -381 140.5t-127 442.5q0 144 38.5 256.5t106.5 182t156.5 105.5t192.5 36q201 0 311.5 -120.5t110.5 -326.5q0 -101 -10 -196h-705q9 -185 89 -268.5t243 -83.5q79 0 148.5 27.5t109.5 64.5zM582 981q-116 0 -193 -81t-84 -245h514
q2 20 2 56q0 270 -239 270zM563 1460l-330 -188l-71 121l401 254l404 -254l-76 -121z" />
    <glyph glyph-name="edieresis" unicode="&#xeb;" horiz-adv-x="1128" 
d="M981 92q-142 -108 -373 -108q-254 0 -381 140.5t-127 442.5q0 144 38.5 256.5t106.5 182t156.5 105.5t192.5 36q201 0 311.5 -120.5t110.5 -326.5q0 -101 -10 -196h-705q9 -185 89 -268.5t243 -83.5q79 0 148.5 27.5t109.5 64.5zM582 981q-116 0 -193 -81t-84 -245h514
q2 20 2 56q0 270 -239 270zM895 1458q0 -50 -33.5 -84.5t-85.5 -34.5q-51 0 -85 34.5t-34 84.5q0 51 34 85t85 34q52 0 85.5 -34t33.5 -85zM469 1458q0 -50 -34.5 -84.5t-86.5 -34.5q-51 0 -85 34.5t-34 84.5q0 51 34 85t85 34q52 0 86.5 -34t34.5 -85z" />
    <glyph glyph-name="igrave" unicode="&#xec;" horiz-adv-x="595" 
d="M403 0h-202v1126h202v-1126zM428 1364l-117 -90l-430 260l189 108z" />
    <glyph glyph-name="iacute" unicode="&#xed;" horiz-adv-x="595" 
d="M403 0h-202v1126h202v-1126zM711 1534l-430 -260l-117 90l358 278z" />
    <glyph glyph-name="icircumflex" unicode="&#xee;" horiz-adv-x="595" 
d="M403 0h-202v1126h202v-1126zM297 1460l-330 -188l-71 121l401 254l403 -254l-75 -121z" />
    <glyph glyph-name="idieresis" unicode="&#xef;" horiz-adv-x="595" 
d="M403 0h-202v1126h202v-1126zM631 1458q0 -50 -33.5 -84.5t-85.5 -34.5q-51 0 -85 34.5t-34 84.5q0 51 34 85t85 34q52 0 85.5 -34t33.5 -85zM205 1458q0 -50 -34.5 -84.5t-86.5 -34.5q-51 0 -85 34.5t-34 84.5q0 51 34 85t85 34q52 0 86.5 -34t34.5 -85z" />
    <glyph glyph-name="eth" unicode="&#xf0;" horiz-adv-x="1095" 
d="M979 565q0 -272 -118 -422.5t-339 -150.5q-196 0 -313 120.5t-117 331.5q0 115 36 207t96.5 148t136 85t159.5 29q112 0 209 -41l4 2q-47 140 -145 259l-320 -162v139l226 117q-107 92 -293 192v17h293q96 -57 170 -129l272 137v-139l-184 -97q104 -132 165.5 -296.5
t61.5 -346.5zM291 459q0 -145 68 -220t182 -75q250 0 250 364q0 78 -15 158q-37 25 -100.5 44.5t-128.5 19.5q-256 0 -256 -291z" />
    <glyph glyph-name="ntilde" unicode="&#xf1;" horiz-adv-x="1198" 
d="M365 0h-203v1126h155l41 -114h9q42 51 125.5 95t189.5 44q170 0 263.5 -94t96.5 -279v-778h-202v733q0 116 -56 179t-161 63q-91 0 -160 -51t-98 -131v-793zM465 1397q-90 0 -146 -68l-79 123q24 35 76 67.5t130 32.5q61 0 158.5 -36.5t136.5 -36.5q51 0 81.5 18t56.5 51
l79 -123q-19 -34 -71 -69t-129 -35q-51 0 -152 38t-141 38z" />
    <glyph glyph-name="ograve" unicode="&#xf2;" horiz-adv-x="1163" 
d="M1063 569q0 -134 -27 -239t-84.5 -184.5t-152.5 -121.5t-224 -42q-131 0 -224 40.5t-147.5 119t-79 180.5t-24.5 237q0 134 27 239.5t84.5 184.5t152.5 121.5t224 42.5q130 0 223.5 -41t148 -119t79 -180.5t24.5 -237.5zM309 571q0 -214 66.5 -317.5t212.5 -103.5
q144 0 205 98t61 309q0 216 -66 319t-213 103q-140 0 -203 -99.5t-63 -308.5zM702 1364l-116 -90l-430 260l188 108z" />
    <glyph glyph-name="oacute" unicode="&#xf3;" horiz-adv-x="1163" 
d="M1063 569q0 -134 -27 -239t-84.5 -184.5t-152.5 -121.5t-224 -42q-131 0 -224 40.5t-147.5 119t-79 180.5t-24.5 237q0 134 27 239.5t84.5 184.5t152.5 121.5t224 42.5q130 0 223.5 -41t148 -119t79 -180.5t24.5 -237.5zM309 571q0 -214 66.5 -317.5t212.5 -103.5
q144 0 205 98t61 309q0 216 -66 319t-213 103q-140 0 -203 -99.5t-63 -308.5zM1004 1534l-431 -260l-116 90l358 278z" />
    <glyph glyph-name="ocircumflex" unicode="&#xf4;" horiz-adv-x="1163" 
d="M1063 569q0 -134 -27 -239t-84.5 -184.5t-152.5 -121.5t-224 -42q-131 0 -224 40.5t-147.5 119t-79 180.5t-24.5 237q0 134 27 239.5t84.5 184.5t152.5 121.5t224 42.5q130 0 223.5 -41t148 -119t79 -180.5t24.5 -237.5zM309 571q0 -214 66.5 -317.5t212.5 -103.5
q144 0 205 98t61 309q0 216 -66 319t-213 103q-140 0 -203 -99.5t-63 -308.5zM580 1460l-330 -188l-72 121l402 254l403 -254l-76 -121z" />
    <glyph glyph-name="otilde" unicode="&#xf5;" horiz-adv-x="1163" 
d="M1063 569q0 -134 -27 -239t-84.5 -184.5t-152.5 -121.5t-224 -42q-131 0 -224 40.5t-147.5 119t-79 180.5t-24.5 237q0 134 27 239.5t84.5 184.5t152.5 121.5t224 42.5q130 0 223.5 -41t148 -119t79 -180.5t24.5 -237.5zM309 571q0 -214 66.5 -317.5t212.5 -103.5
q144 0 205 98t61 309q0 216 -66 319t-213 103q-140 0 -203 -99.5t-63 -308.5zM446 1397q-49 0 -82 -16t-63 -52l-80 123q24 34 76.5 67t130.5 33q61 0 158.5 -36.5t136.5 -36.5q50 0 80.5 18t56.5 51l80 -123q-18 -34 -71 -69t-130 -35q-51 0 -152 38t-141 38z" />
    <glyph glyph-name="odieresis" unicode="&#xf6;" horiz-adv-x="1163" 
d="M1063 569q0 -134 -27 -239t-84.5 -184.5t-152.5 -121.5t-224 -42q-131 0 -224 40.5t-147.5 119t-79 180.5t-24.5 237q0 134 27 239.5t84.5 184.5t152.5 121.5t224 42.5q130 0 223.5 -41t148 -119t79 -180.5t24.5 -237.5zM309 571q0 -214 66.5 -317.5t212.5 -103.5
q144 0 205 98t61 309q0 216 -66 319t-213 103q-140 0 -203 -99.5t-63 -308.5zM913 1458q0 -50 -33 -84.5t-85 -34.5q-51 0 -85 34.5t-34 84.5q0 51 34 85t85 34q52 0 85 -34t33 -85zM487 1458q0 -50 -34 -84.5t-86 -34.5q-51 0 -85 34.5t-34 84.5q0 51 34 85t85 34
q52 0 86 -34t34 -85z" />
    <glyph glyph-name="divide" unicode="&#xf7;" horiz-adv-x="1099" 
d="M1034 616h-971v170h971v-170zM682 326q0 -54 -39 -92.5t-96 -38.5t-95 38.5t-38 92.5q0 57 38 96t95 39t96 -39t39 -96zM682 1075q0 -56 -39 -94.5t-96 -38.5t-95 38.5t-38 94.5t38 94.5t95 38.5t96 -38.5t39 -94.5z" />
    <glyph glyph-name="oslash" unicode="&#xf8;" horiz-adv-x="1163" 
d="M276 -20h-174v8l105 151q-107 144 -107 420q0 134 27 239.5t84.5 184.5t152.5 121.5t224 42.5q155 0 258 -62l43 62h172v-6l-103 -154q105 -139 105 -418q0 -134 -27 -239t-84.5 -184.5t-152.5 -121.5t-224 -42q-158 0 -256 61zM426 199q58 -49 162 -49q145 0 207.5 98.5
t62.5 308.5q0 144 -35 231zM305 571q0 -143 35 -233l399 590q-60 51 -164 51q-141 0 -205.5 -100t-64.5 -308z" />
    <glyph glyph-name="ugrave" unicode="&#xf9;" horiz-adv-x="1200" 
d="M834 113q-43 -53 -121.5 -94.5t-194.5 -41.5q-356 0 -362 383v766h202v-733q0 -248 222 -248q113 0 182.5 64t75.5 168v749h202v-1126h-166l-32 113h-8zM713 1364l-117 -90l-430 260l188 108z" />
    <glyph glyph-name="uacute" unicode="&#xfa;" horiz-adv-x="1200" 
d="M834 113q-43 -53 -121.5 -94.5t-194.5 -41.5q-356 0 -362 383v766h202v-733q0 -248 222 -248q113 0 182.5 64t75.5 168v749h202v-1126h-166l-32 113h-8zM1042 1534l-430 -260l-116 90l358 278z" />
    <glyph glyph-name="ucircumflex" unicode="&#xfb;" horiz-adv-x="1200" 
d="M834 113q-43 -53 -121.5 -94.5t-194.5 -41.5q-356 0 -362 383v766h202v-733q0 -248 222 -248q113 0 182.5 64t75.5 168v749h202v-1126h-166l-32 113h-8zM600 1460l-330 -188l-71 121l401 254l404 -254l-76 -121z" />
    <glyph glyph-name="udieresis" unicode="&#xfc;" horiz-adv-x="1200" 
d="M834 113q-43 -53 -121.5 -94.5t-194.5 -41.5q-356 0 -362 383v766h202v-733q0 -248 222 -248q113 0 182.5 64t75.5 168v749h202v-1126h-166l-32 113h-8zM932 1458q0 -50 -33.5 -84.5t-85.5 -34.5q-51 0 -85 34.5t-34 84.5q0 51 34 85t85 34q52 0 85.5 -34t33.5 -85z
M506 1458q0 -50 -34.5 -84.5t-86.5 -34.5q-51 0 -85 34.5t-34 84.5q0 51 34 85t85 34q52 0 86.5 -34t34.5 -85z" />
    <glyph glyph-name="yacute" unicode="&#xfd;" horiz-adv-x="1048" 
d="M629 -72q-27 -83 -61.5 -145t-84 -111.5t-119 -75.5t-157.5 -26t-146 24l35 175q56 -23 111 -23q96 0 153.5 55t85.5 172l-411 1153h223l166 -501q70 -212 119 -406h8q28 154 104 406l156 501h209zM981 1534l-430 -260l-117 90l359 278z" />
    <glyph glyph-name="thorn" unicode="&#xfe;" horiz-adv-x="1167" 
d="M362 -391h-200v1937h198v-510h9q35 40 105.5 72.5t166.5 32.5q92 0 168 -32.5t134 -97t90 -169t32 -240.5q0 -291 -140.5 -453.5t-381.5 -162.5q-101 0 -181 22v-399zM360 188q72 -30 177 -30q151 0 236 104.5t85 321.5q0 107 -23 185t-63 120.5t-87.5 62t-104.5 19.5
q-61 0 -122.5 -29.5t-97.5 -79.5v-674z" />
    <glyph glyph-name="ydieresis" unicode="&#xff;" horiz-adv-x="1048" 
d="M629 -72q-27 -83 -61.5 -145t-84 -111.5t-119 -75.5t-157.5 -26t-146 24l35 175q56 -23 111 -23q96 0 153.5 55t85.5 172l-411 1153h223l166 -501q70 -212 119 -406h8q28 154 104 406l156 501h209zM856 1458q0 -50 -33.5 -84.5t-85.5 -34.5q-51 0 -85 34.5t-34 84.5
q0 51 34 85t85 34q52 0 85.5 -34t33.5 -85zM430 1458q0 -50 -34.5 -84.5t-86.5 -34.5q-51 0 -85 34.5t-34 84.5q0 51 34 85t85 34q52 0 86.5 -34t34.5 -85z" />
    <glyph glyph-name="dotlessi" unicode="&#x131;" horiz-adv-x="595" 
d="M403 0h-202v1126h202v-1126z" />
    <glyph glyph-name="Lslash" unicode="&#x141;" horiz-adv-x="1026" 
d="M995 0h-796v543l-138 -92v165l138 93v727h204v-590l306 203v-164l-306 -205v-502h592v-178z" />
    <glyph glyph-name="lslash" unicode="&#x142;" horiz-adv-x="630" 
d="M567 10q-67 -26 -143 -26q-121 0 -184.5 67t-63.5 189v385l-119 -88v163l119 88v766h201v-616l198 147v-163l-198 -148v-481q0 -70 26.5 -101.5t83.5 -31.5q32 0 80 16v-166z" />
    <glyph glyph-name="OE" unicode="&#x152;" horiz-adv-x="1988" 
d="M1087 164q-109 -184 -401 -184q-134 0 -236.5 40t-178 125.5t-115 227.5t-39.5 338q0 193 42 337.5t121 233t185 131.5t240 43q270 0 382 -168h5v148h768v-179h-586v-440h512v-178h-512v-461h614v-178h-796v164h-5zM328 727q0 -567 374 -567q85 0 149.5 28t113.5 90.5
t74.5 171t25.5 261.5q0 155 -26.5 266t-77.5 175.5t-117 94t-152 29.5q-67 0 -121 -16.5t-100.5 -56t-77 -101.5t-48 -156.5t-17.5 -218.5z" />
    <glyph glyph-name="oe" unicode="&#x153;" horiz-adv-x="1882" 
d="M952 184q-55 -99 -143.5 -150.5t-233.5 -51.5q-131 0 -224 40.5t-147.5 119t-79 180.5t-24.5 237q0 134 27 239t83.5 184.5t151.5 122t224 42.5q269 0 368 -199h11q59 99 156.5 149t221.5 50q206 0 318.5 -121.5t112.5 -331.5q0 -94 -17 -194h-700v-13q17 -178 99 -256.5
t235 -78.5q164 0 274 106l100 -147q-134 -127 -397 -127q-297 0 -407 200h-9zM309 571q0 -213 67.5 -317t213.5 -104t207 98.5t61 318.5q0 412 -285 412q-142 0 -203 -99t-61 -309zM1059 670q0 -3 -1 -8t-1 -7h514q2 20 2 54q0 135 -63.5 203.5t-182.5 68.5q-106 0 -179 -73
t-89 -238z" />
    <glyph glyph-name="Scaron" unicode="&#x160;" horiz-adv-x="1114" 
d="M1022 383q0 -81 -33 -153.5t-94 -128.5t-157 -88.5t-214 -32.5q-160 0 -278 47t-187 110l121 170q175 -145 367 -145q126 0 195 58.5t69 150.5q0 60 -37.5 107.5t-97 80.5t-131.5 64.5t-144 69t-131.5 83.5t-97 118.5t-37.5 164.5q0 170 130 283.5t331 113.5
q127 0 228 -39t161 -96l-127 -158q-125 109 -276 109q-110 0 -174 -55.5t-64 -143.5q0 -61 37.5 -109t97 -81.5t132 -65.5t145 -69.5t132 -83.5t97 -118t37.5 -163zM981 1839l-403 -256l-402 256l72 121l330 -188l327 188z" />
    <glyph glyph-name="scaron" unicode="&#x161;" horiz-adv-x="983" 
d="M881 311q0 -60 -25 -117t-73.5 -105t-131 -77.5t-186.5 -29.5q-141 0 -249 44t-167 105l123 148q52 -55 131.5 -92t171.5 -37q100 0 151.5 43t51.5 110q0 46 -30.5 80t-80 56t-109 43t-118.5 48t-108.5 62t-80 93.5t-30.5 135.5q0 134 107 229t288 95q114 0 205 -35.5
t147 -95.5l-131 -135q-39 42 -100 69t-127 27q-91 0 -139.5 -41t-48.5 -103q0 -46 31 -80.5t80 -56.5t109 -43t119.5 -48t108.5 -62t80 -94t31 -136zM895 1522l-403 -256l-402 256l72 120l330 -188l327 188z" />
    <glyph glyph-name="Ydieresis" unicode="&#x178;" horiz-adv-x="1159" 
d="M682 0h-205v502l-479 934h233l349 -723h8l350 723h223l-479 -934v-502zM911 1776q0 -50 -33 -84.5t-85 -34.5q-51 0 -85 34.5t-34 84.5q0 51 34 84.5t85 33.5q52 0 85 -33.5t33 -84.5zM485 1776q0 -50 -34 -84.5t-86 -34.5q-51 0 -85 34.5t-34 84.5q0 51 34 84.5t85 33.5
q52 0 86 -33.5t34 -84.5z" />
    <glyph glyph-name="Zcaron" unicode="&#x17d;" horiz-adv-x="1079" 
d="M1008 0h-922l-33 176l701 1069v8h-631v183h846l32 -176l-694 -1070v-8h701v-182zM942 1839l-403 -256l-402 256l72 121l330 -188l327 188z" />
    <glyph glyph-name="zcaron" unicode="&#x17e;" horiz-adv-x="954" 
d="M866 0h-762l-30 180l540 768v8h-501v170h698l37 -180l-539 -768v-8h557v-170zM881 1522l-404 -256l-401 256l71 120l330 -188l328 188z" />
    <glyph glyph-name="florin" unicode="&#x192;" horiz-adv-x="1073" 
d="M508 -27q-23 -171 -131 -271.5t-271 -100.5q-143 0 -202 39l67 176q27 -16 68.5 -28.5t77.5 -12.5q165 0 190 200l88 691h-205v163h226l28 226q22 172 128 272t270 100q137 0 200 -36l-65 -174q-52 36 -146 36q-164 0 -186 -200l-27 -224h263v-163h-283z" />
    <glyph glyph-name="circumflex" unicode="&#x2c6;" horiz-adv-x="1032" 
d="M514 1460l-330 -188l-71 121l401 254l404 -254l-76 -121z" />
    <glyph glyph-name="caron" unicode="&#x2c7;" horiz-adv-x="1032" 
d="M918 1522l-404 -256l-401 256l71 120l330 -188l328 188z" />
    <glyph glyph-name="breve" unicode="&#x2d8;" horiz-adv-x="1032" 
d="M883 1511q-13 -26 -30.5 -50.5t-49.5 -56.5t-70 -55t-95 -39t-122 -16t-121.5 16t-94.5 39t-70.5 55t-49.5 56.5t-30 50.5l133 80q7 -17 21.5 -37t41.5 -47t71.5 -44t98.5 -17t98.5 17t72 43.5t42 47t21.5 37.5z" />
    <glyph glyph-name="dotaccent" unicode="&#x2d9;" horiz-adv-x="1032" 
d="M653 1454q0 -58 -39.5 -97.5t-99.5 -39.5q-58 0 -97.5 40t-39.5 97q0 59 39.5 99t97.5 40q60 0 99.5 -40t39.5 -99z" />
    <glyph glyph-name="ring" unicode="&#x2da;" horiz-adv-x="1032" 
d="M752 1470q0 -102 -67 -168.5t-173 -66.5t-169.5 61t-63.5 162q0 102 66.5 168t172.5 66t170 -61t64 -161zM397 1466q0 -55 31.5 -87.5t87.5 -32.5t86.5 30.5t30.5 85.5t-32 88t-89 33q-55 0 -85 -32t-30 -85z" />
    <glyph glyph-name="ogonek" unicode="&#x2db;" horiz-adv-x="1032" 
d="M735 -449q-66 -32 -180 -32q-131 0 -195.5 63t-64.5 162q0 57 24.5 110.5t59 92t83 74.5t86 56.5t77.5 39.5l73 -92q-39 -20 -76 -45t-75.5 -58.5t-62 -74t-23.5 -80.5q0 -109 133 -109q58 0 106 25z" />
    <glyph glyph-name="tilde" unicode="&#x2dc;" horiz-adv-x="1032" 
d="M381 1397q-49 0 -82 -16t-63 -52l-80 123q24 35 76 67.5t130 32.5q61 0 158.5 -36.5t136.5 -36.5q51 0 81.5 18t56.5 51l79 -123q-19 -34 -71 -69t-129 -35q-51 0 -152 38t-141 38z" />
    <glyph glyph-name="hungarumlaut" unicode="&#x2dd;" horiz-adv-x="1032" 
d="M535 1530l-400 -279l-104 103l362 297zM999 1487l-428 -234l-88 115l398 254z" />
    <glyph glyph-name="danda" unicode="&#x964;" horiz-adv-x="1015" 
d="M606 0h-196v1333h196v-1333z" />
    <glyph glyph-name="doubledanda" unicode="&#x965;" horiz-adv-x="1550" 
d="M1141 0h-197v1333h197v-1333zM606 0h-196v1333h196v-1333z" />
    <glyph glyph-name="bnAnji" unicode="&#x980;" horiz-adv-x="1177" 
d="M1231 82q-34 -34 -91 -58t-120 -24q-131 0 -204 79t-73 232v690q0 75 -39.5 114.5t-115.5 39.5q-121 0 -210 -89.5t-89 -213.5q0 -180 215 -180q62 0 112 16l33 -162q-81 -30 -168 -30q-80 0 -147 21t-119.5 63.5t-82.5 112t-30 159.5q0 127 60.5 235.5t175 176
t258.5 67.5q163 0 248.5 -86t85.5 -235v-684q0 -76 20 -113t74 -37q65 0 111 53z" />
    <glyph glyph-name="bnCandrabindu" unicode="&#x981;" 
d="M145 1726q-58 -110 -170 -174.5t-258 -64.5t-258 64.5t-170 174.5l138 78q92 -166 290 -166q196 0 291 166zM-178 1892q0 -46 -29.5 -76t-75.5 -30q-47 0 -75.5 30t-28.5 76q0 45 29 76t75 31q45 0 75 -31t30 -76z" />
    <glyph glyph-name="bnAnusvara" unicode="&#x982;" horiz-adv-x="927" 
d="M817 82l-125 -98l-620 489l168 115zM795 1047q0 -132 -96.5 -223t-231.5 -91q-142 0 -238 82t-96 217q0 134 96.5 226t231.5 92q143 0 238.5 -83t95.5 -220zM305 1047q0 -74 45.5 -123.5t114.5 -49.5q68 0 113 45.5t45 114.5q0 71 -46 121.5t-114 50.5
q-67 0 -111.5 -45.5t-46.5 -113.5z" />
    <glyph glyph-name="bnVisarga" unicode="&#x983;" horiz-adv-x="903" 
d="M760 1057q0 -124 -90 -209.5t-217 -85.5q-134 0 -223 77t-89 203q0 125 90.5 211t217.5 86q133 0 222 -77.5t89 -204.5zM760 283q0 -124 -90 -209.5t-217 -85.5q-134 0 -223 77t-89 203q0 125 90.5 211t217.5 86q133 0 222 -77.5t89 -204.5zM307 283q0 -67 41.5 -110.5
t104.5 -43.5q60 0 99.5 40t39.5 101q0 65 -40 110.5t-101 45.5t-101.5 -40.5t-42.5 -102.5zM307 1055q0 -66 41.5 -110t104.5 -44q60 0 99.5 40.5t39.5 102.5q0 65 -40 109.5t-101 44.5t-101.5 -40.5t-42.5 -102.5z" />
    <glyph glyph-name="bnA" unicode="&#x985;" horiz-adv-x="1861" 
d="M1903 1174h-234v-1027l86 -57l-133 -119l-479 330q-136 -133 -359 -133q-148 0 -271 58t-212 165t-150.5 247.5t-99.5 315.5l172 80q23 -121 57 -223.5t83 -191t110 -150t140 -96.5t171 -35q146 0 229 88t83 227q0 112 -50 175t-135 63q-65 0 -103 -36t-38 -99
q0 -87 86 -131l-131 -99q-68 32 -106.5 98t-38.5 144q0 127 88 212t233 85q168 0 274.5 -116.5t106.5 -297.5q0 -118 -43 -211l252 -178l8 2q-16 129 -16 383v527h-1524v157h1944v-157z" />
    <glyph glyph-name="bnAA" unicode="&#x986;" horiz-adv-x="2437" 
d="M2245 0h-191v983q0 104 -42 147.5t-130 43.5h-213v-1027l86 -57l-133 -119l-479 330q-136 -133 -359 -133q-148 0 -271 58t-212 165t-150.5 247.5t-99.5 315.5l172 80q23 -121 57 -223.5t83 -191t110 -150t140 -96.5t171 -35q146 0 229 88t83 227q0 112 -50 175t-135 63
q-65 0 -103 -36t-38 -99q0 -87 86 -131l-131 -99q-68 32 -106.5 98t-38.5 144q0 127 88 212t233 85q168 0 274.5 -116.5t106.5 -297.5q0 -118 -43 -211l252 -178l8 2q-16 129 -16 383v527h-1524v157h1962q111 0 162 -71h10q-33 96 -33 229v47h185v-205h233v-157h-233v-1174z
" />
    <glyph glyph-name="bnI" unicode="&#x987;" horiz-adv-x="1024" 
d="M965 25l-127 -127q-32 20 -91 55q-309 187 -402.5 232.5t-211.5 58.5v157h135q216 0 321 78.5t105 210.5q0 92 -54.5 147.5t-147.5 55.5q-75 0 -120.5 -41.5t-45.5 -110.5q0 -85 86 -133l-133 -100q-69 37 -105.5 102t-36.5 142q0 136 96 224.5t256 88.5
q174 0 283 -105.5t109 -273.5q0 -170 -107.5 -271t-288.5 -124v-8q90 -24 285 -140zM881 1407q0 -29 -7 -76h191v-157h-1106v157h729q6 38 6 66q0 84 -52.5 119.5t-168.5 35.5h-90q-102 0 -175 24.5t-112 67.5t-56 92t-17 107q0 42 4 62l180 32q-8 -46 -8 -71
q0 -67 41.5 -107.5t152.5 -40.5h113q164 0 269.5 -81t105.5 -230z" />
    <glyph glyph-name="bnII" unicode="&#x988;" horiz-adv-x="1370" 
d="M1196 -12h-174q-43 145 -43 350q0 242 61 395l-247 -229q-26 -174 -121.5 -278.5t-245.5 -104.5q-67 0 -125.5 20t-99.5 53.5t-69 70.5t-44 77l143 96q62 -149 197 -149q70 0 116.5 46t66.5 119t20 169q0 81 -17 142t-59.5 100.5t-108.5 39.5q-64 0 -101.5 -35.5
t-37.5 -91.5q0 -89 68 -125l-129 -94q-55 30 -88 90t-33 137q0 122 87 199.5t228 77.5q150 0 240.5 -88.5t112.5 -243.5l319 283l158 -76q-113 -232 -113 -592q0 -166 39 -358zM1411 1174h-1452v157h1069q6 38 6 66q0 84 -52.5 119.5t-168.5 35.5h-326q-103 0 -178 25
t-115.5 68t-59.5 93t-19 109q0 40 4 58l180 32q-6 -60 -6 -61q0 -71 44.5 -114.5t160.5 -43.5h346q164 0 269.5 -81t105.5 -230q0 -29 -7 -76h199v-157z" />
    <glyph glyph-name="bnU" unicode="&#x989;" horiz-adv-x="1402" 
d="M1257 1407q0 -35 -6 -76h174v-157h-718v-306q0 -98 84 -98q53 0 152.5 46.5t195.5 129.5q67 -42 117.5 -134.5t50.5 -203.5q0 -217 -149.5 -356t-397.5 -139q-124 0 -232 39.5t-188 109t-138.5 164t-90 206t-35.5 232.5l180 41q4 -149 45 -268t109.5 -195t158 -116.5
t193.5 -40.5q163 0 261.5 88t98.5 227q0 77 -28 119q-67 -57 -153 -90t-171 -33q-119 0 -185.5 73t-66.5 191v314h-543v157h1092q6 38 6 66q0 84 -52.5 119.5t-168.5 35.5h-410q-103 0 -178 25t-115.5 68t-59.5 93t-19 109q0 40 4 58l180 32q-6 -60 -6 -61
q0 -71 44.5 -114.5t162.5 -43.5h430q164 0 268 -80.5t104 -230.5z" />
    <glyph glyph-name="bnUU" unicode="&#x98a;" horiz-adv-x="1433" 
d="M1296 1407q0 -35 -6 -76h185v-157h-721v-293q0 -101 92 -101q114 0 323 174q73 -54 121.5 -148.5t48.5 -211.5q0 -210 -142.5 -346.5t-385.5 -136.5q-141 0 -262 40t-205.5 105t-148 150.5t-97.5 175t-45 180.5l125 37q7 -74 28 -146t60.5 -147.5t108.5 -140t160 -103.5
l8 10q-140 78 -220 254.5t-71 388.5l135 33q-14 -196 31.5 -347.5t147 -238t247.5 -86.5q163 0 254.5 90t91.5 226q0 86 -29 139q-155 -121 -307 -121q-124 0 -192 72t-68 190v302h-604v157h1145q8 33 8 66q0 84 -52.5 119.5t-168.5 35.5h-422q-103 0 -178 25t-116 68
t-60 93t-19 109q0 22 4 58l181 32q0 -5 -3.5 -27t-3.5 -34q0 -158 207 -158h443q163 0 267.5 -81t104.5 -230z" />
    <glyph glyph-name="bnvR" unicode="&#x98b;" horiz-adv-x="1566" 
d="M297 535l434 -275h8q-14 198 -14 369v155q-121 -33 -240 -104.5t-188 -144.5zM1401 365l-168 -84l-326 213v-340l90 -56l-127 -127l-759 478v169q118 120 292 217.5t340 135.5v8q-26 22 -92 76t-94 78q-105 -193 -311 -193q-126 0 -200.5 71.5t-74.5 176.5q0 82 33 143
h180q-37 -68 -37 -123q0 -50 31.5 -80t83.5 -30q73 0 132 52.5t106 190.5h65q118 -94 172 -141q-14 72 -14 252v84h184v-838l322 -213l6 2q-18 97 -18 316v733h184v-205h207v-157h-207v-809z" />
    <glyph glyph-name="bnvL" unicode="&#x98c;" horiz-adv-x="1282" 
d="M1184 553q0 -172 -82.5 -299t-221 -192.5t-317.5 -71.5l-92 127q164 154 164 375q0 97 -46 152.5t-134 55.5q-76 0 -122 -40t-46 -113q0 -68 43.5 -105t113.5 -45l-47 -153q-128 14 -209.5 91.5t-81.5 211.5q0 155 96.5 237t243.5 82q161 0 259 -104.5t98 -267.5
q0 -176 -88 -320q138 35 211 134t73 247q0 86 -24.5 154.5t-66 114t-95.5 82.5t-113.5 66l-119 58t-113.5 64t-95.5 78t-66 107t-24.5 144q0 46 8 78l184 31q-10 -40 -10 -72q0 -62 24.5 -111t66.5 -82.5t96 -63t114 -59t119.5 -62t113.5 -79.5t96 -106.5t66.5 -147
t24.5 -196.5z" />
    <glyph glyph-name="bnE" unicode="&#x98f;" horiz-adv-x="1474" 
d="M1282 0h-172q-10 75 -77 114.5t-218 39.5q-31 0 -126 -2t-128 -2q-217 0 -338 97.5t-121 262.5q0 133 74 229l178 -73q-61 -64 -61 -158q0 -87 73.5 -140t235.5 -53q40 0 121 3.5t113 3.5q103 0 165.5 -16t104.5 -52h8q-14 110 -14 430v420q0 78 -78 78q-76 0 -159 -56.5
t-137 -138t-54 -151.5q0 -111 108 -111q70 0 121 45l68 -141q-75 -66 -201 -66q-132 0 -206.5 74t-74.5 197q0 66 28.5 139t80 140t118 121t150.5 86t168 32q125 0 187.5 -62.5t62.5 -177.5v-1112z" />
    <glyph glyph-name="bnAI" unicode="&#x990;" horiz-adv-x="1609" 
d="M1634 1219q0 -137 -96.5 -240t-255.5 -121v-858h-172q-10 75 -77 114.5t-218 39.5q-31 0 -126 -2t-128 -2q-217 0 -338 97.5t-121 262.5q0 133 74 229l178 -73q-61 -64 -61 -158q0 -87 73.5 -140t235.5 -53q40 0 121 3.5t113 3.5q103 0 165.5 -16t104.5 -52h8
q-14 110 -14 430v420q0 78 -78 78q-76 0 -159 -56.5t-137 -138t-54 -151.5q0 -111 108 -111q70 0 121 45l68 -141q-75 -66 -201 -66q-132 0 -206.5 74t-74.5 197q0 66 28.5 139t80 140t118 121t150.5 86t168 32q125 0 187.5 -62.5t62.5 -177.5v-88q71 15 118.5 66t47.5 131
q0 90 -66 148t-184 95l-410 125q-158 50 -250 143t-92 226q0 110 70 184l172 -65q-49 -52 -49 -123q0 -74 60.5 -125t199.5 -96l328 -103q207 -65 307 -165.5t100 -245.5z" />
    <glyph glyph-name="bnO" unicode="&#x993;" horiz-adv-x="1251" 
d="M1038 1016q0 -160 -114 -268q217 -131 217 -351q0 -160 -109 -269.5t-299 -109.5q-90 0 -173 31t-150 86.5t-125 126.5t-103 156t-78.5 169.5t-56.5 172.5l172 69q40 -176 113.5 -317.5t179 -228t221.5 -86.5q105 0 162 58t57 148q0 82 -50.5 144t-127.5 100
q-72 -32 -147 -49l-92 156q155 31 237 97.5t82 166.5q0 75 -50.5 119.5t-129.5 44.5q-124 0 -232 -119l-127 127q146 160 357 160q154 0 260 -91.5t106 -242.5z" />
    <glyph glyph-name="bnAU" unicode="&#x994;" horiz-adv-x="1509" 
d="M1448 1161q0 -99 -38 -178t-102.5 -127.5t-144.5 -74t-168 -25.5q-19 0 -59 4l-12 -12q217 -131 217 -351q0 -160 -109 -269.5t-299 -109.5q-90 0 -173 31t-150 86.5t-125 126.5t-103 156t-78.5 169.5t-56.5 172.5l172 69q40 -176 113.5 -317.5t179 -228t221.5 -86.5
q105 0 162 58t57 148q0 82 -50.5 144t-127.5 100q-72 -32 -147 -49l-92 156q155 31 237 97.5t82 166.5q0 75 -50.5 119.5t-129.5 44.5q-124 0 -232 -119l-127 127q146 160 357 160q154 0 260 -91.5t106 -242.5q0 -59 -16 -115q108 19 171.5 87t63.5 177q0 70 -37.5 129
t-97 102.5t-132 84.5t-144.5 85t-131.5 94t-97 121.5t-37.5 157.5q0 92 57 170l178 -67q-43 -52 -43 -113q0 -56 37.5 -105.5t97 -89t131.5 -79.5t144 -87t131.5 -101.5t97 -133t37.5 -172.5z" />
    <glyph glyph-name="bnKA" unicode="&#x995;" horiz-adv-x="1443" 
d="M971 90l-142 -110l-735 567v166q290 237 600 280v181h-735v157h1526v-157h-606v-168q111 -4 202.5 -40t149 -93.5t88.5 -129t31 -149.5q0 -117 -59.5 -211t-157.5 -145l-123 135q68 28 113.5 89.5t45.5 137.5q0 100 -76.5 165.5t-213.5 68.5v-674zM279 625l421 -336h9
q-15 199 -15 395v137q-216 -39 -415 -196z" />
    <glyph glyph-name="bnKHA" unicode="&#x996;" horiz-adv-x="1388" 
d="M1292 109l-123 -138l-1077 516v172q277 18 412 105t135 221q0 76 -51 127q-45 -100 -124.5 -156.5t-182.5 -56.5q-126 0 -206.5 73.5t-80.5 184.5q0 105 49 174h186q-49 -82 -49 -162q0 -48 29.5 -77t85.5 -29q71 0 126 62.5t107 205.5h82q92 -66 147.5 -155.5
t55.5 -194.5q0 -167 -109 -276t-313 -152v-8l623 -305l8 2q-14 218 -14 454v840h188v-205h234v-157h-234v-1018z" />
    <glyph glyph-name="bnGA" unicode="&#x997;" horiz-adv-x="1327" 
d="M1135 0h-191v754q0 172 -105 286.5t-278 114.5q-106 0 -186 -50t-123 -118q70 31 166 31q123 0 210 -77t87 -212q0 -128 -89 -247.5t-239 -207.5l-143 140q132 71 205 153.5t73 169.5q0 67 -44.5 104.5t-115.5 37.5q-103 0 -194 -43l-125 133q51 153 190.5 257.5
t315.5 104.5q85 0 159.5 -21t125.5 -55.5t83.5 -66t55.5 -64.5h8q-13 38 -25 127.5t-12 192.5v92h191v-205h233v-157h-233v-1174z" />
    <glyph glyph-name="bnGHA" unicode="&#x998;" horiz-adv-x="1292" 
d="M1196 109l-115 -138l-956 449v160l106 65q34 20 66.5 37t52 25t35.5 14.5t18 7.5v10q-137 15 -212.5 83.5t-75.5 178.5q0 101 59 173h-215v157h1374v-157h-233v-1020zM922 236l8 2q-21 166 -21 372v564h-522q-82 -66 -82 -164q0 -73 53.5 -117.5t143.5 -44.5q93 0 192 61
l78 -149l-428 -252z" />
    <glyph glyph-name="bnNGA" unicode="&#x999;" horiz-adv-x="1429" 
d="M809 944q77 0 116.5 35.5t39.5 99.5q0 50 -36 84.5t-98 34.5q-63 0 -96 -39.5t-33 -114.5v-83q56 -17 107 -17zM1341 477q0 -129 -65.5 -237.5t-194 -176t-295.5 -67.5q-124 0 -234.5 38.5t-194 107t-145 160t-94.5 200t-36 223.5l176 37q4 -145 49.5 -260t120 -186.5
t166.5 -108.5t194 -37q166 0 267.5 88.5t101.5 210.5q0 74 -27 113q-90 -60 -170 -90.5t-169 -30.5q-127 0 -198 74t-71 196v152q-162 101 -256 291h-307v157h430q45 -156 143 -262q5 129 84 204t211 75t221 -79.5t89 -195.5q0 -129 -90.5 -201.5t-235.5 -72.5
q-51 0 -109 10v-74q0 -104 97 -104q137 0 379 180q69 -47 116 -134.5t47 -199.5z" />
    <glyph glyph-name="bnCA" unicode="&#x99a;" horiz-adv-x="1085" 
d="M989 512q0 -93 -40.5 -186.5t-107.5 -166.5t-162 -119t-196 -46q-141 0 -218 74t-77 202v904h-229v157h1167v-157h-764v-41q0 -80 48 -132t149 -90l139 -51q146 -54 218.5 -135t72.5 -213zM373 272q0 -51 29 -79.5t87 -28.5q49 0 104.5 29.5t102 76.5t77 112.5
t30.5 131.5q0 63 -37 106.5t-129 75.5l-109 39q-104 39 -157 101h-9q11 -77 11 -308v-256z" />
    <glyph glyph-name="bnCHA" unicode="&#x99b;" horiz-adv-x="1234" 
d="M326 748q0 -84 88 -84q70 0 115.5 48.5t45.5 112.5q0 36 -28.5 60.5t-66 34.5t-83.5 28t-71 39v-239zM745 821q0 -126 -94.5 -219.5t-238.5 -93.5q-125 0 -195 63.5t-70 169.5v433h-188v157h1317v-157h-961q13 -31 55.5 -53t115.5 -46t112 -43q61 17 127 17
q164 0 274.5 -102.5t110.5 -268.5q0 -186 -131.5 -296t-390.5 -128v-8q86 -22 272 -117l293 -147l-117 -138q-340 180 -487.5 252t-223.5 96.5t-173 34.5v158h256q258 0 387 78t129 217q0 90 -50.5 142t-136.5 61q8 -24 8 -62z" />
    <glyph glyph-name="bnJA" unicode="&#x99c;" horiz-adv-x="1687" 
d="M1481 -12h-187v323q0 130 32 242.5t65 163.5q-183 10 -308.5 111.5t-158.5 234.5q-236 -154 -236 -270q0 -76 105 -82l237 -13q49 -44 79 -109.5t30 -135.5q0 -72 -28 -138t-80 -118.5t-133.5 -83.5t-180.5 -31q-180 0 -328 102t-233 269.5t-99 367.5l176 58
q8 -170 69.5 -310.5t169.5 -224.5t241 -84q112 0 172.5 54t60.5 132q0 57 -28 97l-179 8q-118 8 -184 63t-66 156q0 112 87 214.5t227 189.5h-844v157h1770v-157h-664q12 -56 37.5 -104t70.5 -93t120.5 -71.5t172.5 -26.5h50l75 -138q-110 -201 -110 -442v-311z" />
    <glyph glyph-name="bnJHA" unicode="&#x99d;" horiz-adv-x="1605" 
d="M1004 98l-127 -127l-785 508v164q105 109 276.5 219t360.5 160v152h-770v157h956v-626l318 -218h8q-16 151 -16 387v662h188v-205h234v-157h-234v-809l-172 -84l-326 217v-342zM283 565l456 -301h9q-19 153 -19 385v189q-125 -40 -250 -119.5t-196 -153.5z" />
    <glyph glyph-name="bnNYA" unicode="&#x99e;" horiz-adv-x="1986" 
d="M1288 0h-182q0 125 -98 184.5t-332 65.5q-306 10 -454 116.5t-148 288.5q0 115 61 219l180 -57q-49 -79 -49 -168q0 -52 21 -91t69 -70t131 -48.5t201 -21.5q106 -3 183.5 -14.5t126 -33t71.5 -37t53 -42.5h8q-30 150 -30 405v342q0 65 -28.5 97t-90.5 32
q-118 0 -216.5 -95t-98.5 -202q0 -55 29 -84.5t85 -29.5q39 0 71.5 14t49.5 31l68 -142q-36 -30 -92 -46.5t-115 -16.5q-134 0 -209.5 72.5t-75.5 193.5q0 85 41 171t109.5 154t166.5 111t203 43q101 0 161 -43t81 -110q15 25 39.5 50.5t62 51.5t90 42t111.5 16
q136 0 218.5 -75t82.5 -194q0 -81 -43 -140t-114 -81v-8q80 -22 131 -80.5t51 -148.5q0 -120 -82.5 -200.5t-224.5 -80.5q-87 0 -170.5 42.5t-116.5 90.5q14 -63 14 -252v-221zM1280 850q0 -157 70.5 -252.5t189.5 -95.5q66 0 103.5 36.5t37.5 92.5q0 66 -45.5 101.5
t-128.5 35.5h-47v158h43q73 0 114.5 39t41.5 104q0 54 -36 85.5t-103 31.5q-43 0 -84.5 -20.5t-77 -59.5t-57 -105.5t-21.5 -150.5z" />
    <glyph glyph-name="bnTTA" unicode="&#x99f;" horiz-adv-x="1126" 
d="M977 1407q0 -35 -6 -76h196v-157h-794v-758q0 -65 35 -103.5t104 -38.5q124 0 218.5 98.5t94.5 227.5q0 74 -32.5 118t-96.5 44q-69 0 -112 -57l-92 147q33 37 89 61.5t121 24.5q135 0 222.5 -91t87.5 -245q0 -123 -64 -238t-183.5 -190.5t-264.5 -75.5t-228.5 84.5
t-83.5 218.5v773h-227v157h823q9 37 9 66q0 83 -53.5 119t-168.5 36h-196q-103 0 -178 25t-116 68t-60 93t-19 109q0 22 4 58l180 32q-6 -60 -6 -61q0 -158 207 -158h215q164 0 269.5 -81t105.5 -230z" />
    <glyph glyph-name="bnTTHA" unicode="&#x9a0;" horiz-adv-x="1144" 
d="M1049 483q0 -124 -54.5 -225.5t-161.5 -163t-247 -61.5q-143 0 -260.5 70.5t-183 186.5t-68.5 251q193 51 287 150.5t94 269.5v155l-49 58h-447v157h336q-111 131 -111 281q0 148 100 237t259 82l37 -170q-95 10 -151 -33.5t-56 -125.5q0 -117 125 -271h688v-157h-565
q62 -66 92.5 -99t81 -89.5t75.5 -89t60 -80.5t52 -83.5t35 -79t25 -85t7 -85.5zM291 442q3 -34 24 -74t56.5 -77.5t93.5 -62.5t125 -25q123 0 197.5 80t74.5 198q0 62 -16.5 118t-59.5 118.5t-68 93.5t-91 104q-9 10 -13 15q2 -80 -13 -149t-43 -118t-60.5 -87t-72.5 -64.5
t-70.5 -42t-63.5 -27.5z" />
    <glyph glyph-name="bnDDA" unicode="&#x9a1;" horiz-adv-x="1402" 
d="M1444 1174h-737v-306q0 -98 84 -98q53 0 152.5 46.5t195.5 129.5q67 -42 117.5 -134.5t50.5 -203.5q0 -217 -149.5 -356t-397.5 -139q-124 0 -232 39.5t-188 109t-138.5 164t-90 206t-35.5 232.5l180 41q4 -149 45 -268t109.5 -195t158 -116.5t193.5 -40.5
q163 0 261.5 88t98.5 227q0 77 -28 119q-67 -57 -153 -90t-171 -33q-119 0 -185.5 73t-66.5 191v314h-559v157h1485v-157z" />
    <glyph glyph-name="bnDDHA" unicode="&#x9a2;" horiz-adv-x="1132" 
d="M1020 596q0 -128 -63 -243t-180.5 -189t-260.5 -74q-155 0 -241.5 84t-86.5 219v781h-229v157h1212v-157h-798v-766q0 -64 36 -103t107 -39q126 0 223 99t97 231q0 75 -35 120.5t-103 45.5q-67 0 -112 -39l-74 154q81 61 193 61q141 0 228 -93.5t87 -248.5z" />
    <glyph glyph-name="bnNNA" unicode="&#x9a3;" horiz-adv-x="1280" 
d="M1087 0h-192v643q0 109 -20.5 200t-62 163.5t-111.5 113.5t-162 41q-125 0 -195 -70.5t-70 -183.5q0 -103 62 -161t162 -58q90 0 155 51l62 -164q-83 -61 -221 -61q-186 0 -297 111.5t-111 281.5q0 187 117 305.5t323 118.5q76 0 142 -19.5t113.5 -52t79.5 -67t54 -72.5
l11 4q-27 82 -27 316v96h188v-205h234v-157h-234v-1174z" />
    <glyph glyph-name="bnTA" unicode="&#x9a4;" horiz-adv-x="1417" 
d="M1319 616q0 -227 -141 -370.5t-365 -143.5q-122 0 -226.5 42.5t-183 116.5t-142 181t-106 229.5t-71.5 268.5l174 76q28 -159 73 -287.5t111 -234t160 -164t209 -58.5q147 0 234.5 100.5t87.5 248.5q0 118 -47.5 188t-137.5 70q-63 0 -102 -37.5t-39 -100.5
q0 -45 22.5 -82t63.5 -57l-123 -110q-69 34 -110.5 104t-41.5 158q0 130 87.5 213.5t232.5 83.5q179 0 280 -123.5t101 -311.5zM1458 1174h-1499v157h1499v-157z" />
    <glyph glyph-name="bnTHA" unicode="&#x9a5;" horiz-adv-x="1406" 
d="M1309 111l-121 -140l-1065 486v190q120 5 215 26.5t156 53.5t101 75t56.5 87.5t16.5 93.5q0 81 -52 132.5t-139 51.5q-75 0 -122.5 -42t-47.5 -111q0 -76 64 -137l-154 -82q-100 79 -100 221t99.5 232.5t256.5 90.5q158 0 268.5 -95t110.5 -259q0 -161 -113.5 -284.5
t-339.5 -165.5v-9l631 -295h8q-14 189 -14 400v905h190v-205h234v-157h-234v-1020z" />
    <glyph glyph-name="bnDA" unicode="&#x9a6;" horiz-adv-x="1142" 
d="M938 0h-193v389q0 213 62 393q-117 -76 -234.5 -196t-210.5 -254l-186 76v766h-217v157h1225v-157h-817v-558q81 103 221 216.5t264 162.5l162 -90q-76 -218 -76 -518v-387z" />
    <glyph glyph-name="bnDHA" unicode="&#x9a7;" horiz-adv-x="1251" 
d="M1151 111l-113 -138l-905 449v166l115 67q39 23 82.5 44t67.5 31l24 9v11q-130 6 -219.5 81t-89.5 205q0 135 90 219t241 84q130 0 230 -53l-58 -147q-71 35 -155 35q-75 0 -118.5 -38t-43.5 -106q0 -77 59 -118.5t168 -41.5q135 0 346 131v330h420v-157h-233v-1016z
M883 242h8q-19 211 -19 409v160l-528 -297z" />
    <glyph glyph-name="bnNA" unicode="&#x9a8;" horiz-adv-x="1316" 
d="M1124 0h-190v35q0 94 -20.5 194t-61.5 192.5t-96 165.5t-130.5 117t-158.5 44q-92 0 -141.5 -44.5t-49.5 -121.5q0 -79 64 -136l-168 -73q-86 80 -86 211q0 156 100 248t269 92q170 0 293.5 -92.5t197.5 -235.5h8q-20 117 -20 373v205h-975v157h1399v-157h-234v-1174z
" />
    <glyph glyph-name="bnPA" unicode="&#x9aa;" horiz-adv-x="1366" 
d="M276 1051q237 -38 326 -303l320 210q-51 105 -139 163.5t-208 58.5q-101 0 -177 -39.5t-122 -89.5zM1174 0h-189v655q0 75 -12 140l-623 -412l-92 139l203 133q-16 48 -35.5 86t-49.5 76t-75 62.5t-102 31.5q-26 6 -58 9l-100 139q35 54 83.5 102.5t113.5 91t150 68
t177 25.5q88 0 165 -22.5t131 -60.5t91 -77t62 -82h6q-17 50 -27 151.5t-10 206.5v74h191v-205h233v-157h-233v-1174z" />
    <glyph glyph-name="bnPHA" unicode="&#x9ab;" horiz-adv-x="1572" 
d="M1049 94l-125 -125l-805 494v174l282 217l-266 268v52h-176v157h1655v-157h-1280v-9l250 -250v-135l-287 -221l489 -305h9q-21 233 -21 401v334q127 60 270 60q120 0 216 -44t154.5 -133t58.5 -208q0 -72 -21.5 -133.5t-59 -105t-78.5 -73.5t-89 -51l-107 148
q76 25 125 81t49 134q0 105 -65 159t-164 54q-38 0 -100 -15v-715z" />
    <glyph glyph-name="bnBA" unicode="&#x9ac;" horiz-adv-x="1136" 
d="M1032 98l-127 -127l-811 512v164q97 99 288.5 219.5t373.5 175.5v132h-797v157h1219v-157h-234v-1020zM285 567l481 -305h8q-18 169 -18 385v211q-120 -44 -262 -133.5t-209 -157.5z" />
    <glyph glyph-name="bnBHA" unicode="&#x9ad;" horiz-adv-x="1517" 
d="M1423 575q0 -104 -37 -193.5t-105.5 -156.5t-174.5 -105t-236 -38q-139 0 -258.5 47.5t-204.5 124.5t-153.5 186.5t-111.5 222t-74 242.5l168 80q24 -113 57.5 -210.5t88 -194.5t121.5 -165t162 -110.5t207 -42.5q171 0 269 90.5t98 229.5q0 112 -57 200h-8
q-104 -243 -320 -243q-131 0 -209 76t-78 190q0 86 43 151l181 -28q-39 -45 -39 -115q0 -51 28 -79.5t84 -28.5q68 0 125 65t115 219h145q69 -62 121.5 -174.5t52.5 -239.5zM1559 1174h-1600v157h1600v-157z" />
    <glyph glyph-name="bnMA" unicode="&#x9ae;" horiz-adv-x="1220" 
d="M1262 1174h-234v-1174h-178q-27 157 -130.5 299t-244.5 199q-27 -79 -77 -117.5t-105 -38.5q-63 0 -103 37t-40 100q0 70 46.5 123t125.5 72v4q0 154 -79.5 285t-170.5 180v31h-113v157h1303v-157zM852 383l6 4q-14 238 -14 373v414h-531v-9q28 -28 57 -70t60.5 -104.5
t51.5 -146t20 -170.5v-10q110 -30 202 -108.5t148 -172.5z" />
    <glyph glyph-name="bnYA" unicode="&#x9af;" horiz-adv-x="1171" 
d="M811 250q-18 202 -18 403v521h-459v-9l250 -250v-135l-287 -221l506 -309h8zM1065 94l-125 -125l-821 494v174l282 217l-266 268v52h-176v157h1253v-157h-233v-1027z" />
    <glyph glyph-name="bnRA" unicode="&#x9b0;" horiz-adv-x="1136" 
d="M422 -37q0 -54 -34 -88.5t-85 -34.5q-53 0 -87 34.5t-34 88.5q0 55 34 89t87 34q52 0 85.5 -34t33.5 -89zM1032 98l-127 -127l-811 512v164q97 99 288.5 219.5t373.5 175.5v132h-797v157h1219v-157h-234v-1020zM285 567l481 -305h8q-18 169 -18 385v211
q-120 -44 -262 -133.5t-209 -157.5z" />
    <glyph glyph-name="bnLA" unicode="&#x9b2;" horiz-adv-x="1538" 
d="M1346 0h-189v707q-13 41 -60 74.5t-110 33.5q-74 0 -121 -50.5t-47 -139.5v-76h-180v74q0 93 -45.5 139.5t-120.5 46.5q-73 0 -125.5 -55t-52.5 -152q0 -118 71 -185t179 -67q63 0 121 25l24 -168q-70 -25 -151 -25q-195 0 -314 115t-119 303q0 173 104 277t249 104
q112 0 182 -52.5t88 -115.5h8q13 68 75 121t153 53q67 0 113.5 -25.5t70.5 -52.5h8v265h-1198v157h1620v-157h-233v-1174z" />
    <glyph glyph-name="bnSHA" unicode="&#x9b6;" horiz-adv-x="1439" 
d="M1247 0h-188v891q0 131 -71.5 201.5t-184.5 70.5q-94 0 -162 -62.5t-68 -172.5q0 -101 67.5 -160t168.5 -59q43 0 74 10v-170q-48 -8 -80 -8q-102 0 -188 40.5t-138 114.5q-49 -76 -131.5 -117.5t-185.5 -41.5q-61 0 -117 16v170q36 -16 111 -16q108 0 170.5 60.5
t62.5 162.5q0 118 -66 181t-178 63h-184v157h188q107 0 194 -40t140 -111q56 71 139.5 111t180.5 40q111 0 180.5 -38.5t97.5 -80.5h8q-8 26 -16 98.5t-8 151.5v74h184v-205h234v-157h-234v-1174z" />
    <glyph glyph-name="bnSSA" unicode="&#x9b7;" horiz-adv-x="1191" 
d="M573 932l-2 -58l230 -282v57v525h-496v-9zM1073 94l-127 -125l-833 496v168l284 244l-291 245v52h-147v157h1274v-157h-246v-1029zM811 246h8q-15 162 -18 327l-144 148l-86 108l-2 -34l-276 -238z" />
    <glyph glyph-name="bnSA" unicode="&#x9b8;" horiz-adv-x="1372" 
d="M1180 0h-191v549q0 51 -26.5 79.5t-75.5 28.5q-20 0 -41 -8.5t-37 -19.5t-39 -34t-36.5 -38t-40.5 -47t-40 -47q-164 -189 -317 -189q-124 0 -207 63t-117 150l142 97q13 -29 26 -49.5t34.5 -43.5t52 -35t69.5 -12q78 0 120 54.5t42 134.5q0 101 -43 177t-144 187
l-114 125v52h-238v157h1454v-157h-233v-1174zM647 756q4 -40 4 -64q115 148 230 148q63 0 114 -35q-6 98 -6 235v134h-590v-9l90 -104q75 -89 114 -157t44 -148z" />
    <glyph glyph-name="bnHA" unicode="&#x9b9;" horiz-adv-x="1019" 
d="M971 27l-131 -129q-365 222 -441 262q-116 61 -212 77q-22 4 -50 7v157h135q215 0 320.5 78.5t105.5 210.5q0 91 -55.5 147t-148.5 56q-74 0 -122 -42t-48 -110q0 -40 22 -75t64 -56l-134 -98q-67 34 -104 99.5t-37 142.5q0 133 99.5 222t259.5 89q173 0 281 -105.5
t108 -273.5q0 -170 -106.5 -272.5t-287.5 -124.5v-8q108 -29 287 -136zM1061 1174h-1102v157h1102v-157z" />
    <glyph glyph-name="bnNukta" unicode="&#x9bc;" 
d="M-813 -190q0 -55 -34 -89t-87 -34t-87 34t-34 89t34 88.5t87 33.5t87 -33.5t34 -88.5z" />
    <glyph glyph-name="bnAvagraha" unicode="&#x9bd;" horiz-adv-x="966" 
d="M862 -2q-399 219 -515.5 274t-227.5 68v158h127q212 0 306.5 60t94.5 181q0 86 -50.5 139.5t-135.5 53.5q-73 0 -117.5 -41t-44.5 -107q0 -84 78 -125l-121 -88q-65 33 -100 93.5t-35 132.5q0 88 47.5 157.5t132.5 104.5q-64 115 -231 115h-62v157h51q317 0 416 -244
q158 -6 255 -103.5t97 -248.5q0 -304 -376 -352v-8q43 -8 102.5 -35t171.5 -86l246 -129z" />
    <glyph glyph-name="bnmAA" unicode="&#x9be;" horiz-adv-x="575" 
d="M383 0h-190v983q0 104 -42.5 147.5t-130.5 43.5h-61v157h100q111 0 162 -71h10q-32 93 -32 229v47h184v-205h233v-157h-233v-1174z" />
    <glyph glyph-name="bnmI" unicode="&#x9bf;" horiz-adv-x="575" 
d="M383 0h-190v1174h-234v157h234v160q0 91 33.5 172.5t96 143.5t159 98.5t214.5 36.5q211 0 398 -78.5t313 -186.5l-109 -135q-120 101 -277.5 164t-322.5 63q-150 0 -232.5 -83t-82.5 -211v-144h233v-157h-233v-1174z" />
    <glyph glyph-name="bnmII" unicode="&#x9c0;" horiz-adv-x="575" 
d="M383 0h-190v1174h-234v157h231q-20 258 -219.5 396.5t-505.5 138.5q-154 0 -228.5 -39.5t-74.5 -106.5q0 -24 11 -44.5t37 -39t76 -29t120 -10.5q176 0 379 74l25 -14v-326h-175v152q-119 -39 -258 -39q-189 0 -298 75.5t-109 202.5q0 138 128 222t353 84
q262 0 468.5 -86t327 -244.5t134.5 -366.5h233v-157h-231v-1174z" />
    <glyph glyph-name="bnmU" unicode="&#x9c1;" 
d="M-569 -530q91 0 140.5 70t49.5 181v25q-96 49 -190 49q-86 0 -133.5 -46.5t-47.5 -121.5q0 -70 50.5 -113.5t130.5 -43.5zM51 -643q-135 165 -254 268q-24 -143 -116.5 -226t-253.5 -83t-258 89t-97 224q0 143 95.5 230.5t242.5 87.5q105 0 211 -39v174h186v-270
q167 -113 373 -353z" />
    <glyph glyph-name="bnmUU" unicode="&#x9c2;" 
d="M188 -629l-125 -104q-61 75 -186 180q-59 -59 -136 -94t-194 -35q-161 0 -257.5 89t-96.5 224q0 133 92 222.5t232 97.5q32 2 104 -4v135h186v-309q-96 34 -217 34q-103 0 -160 -49t-57 -127q0 -71 48.5 -116t129.5 -45q101 0 174 51.5t132 146.5q75 -51 166 -133
t165 -164z" />
    <glyph glyph-name="bnmvR" unicode="&#x9c3;" 
d="M84 -483l-113 -127l-669 334l350 358l155 -82l-223 -233z" />
    <glyph glyph-name="bnmvRR" unicode="&#x9c4;" 
d="M-184 -627l-127 -112l-504 333l319 320l140 -94l-197 -199zM217 -436l-108 -96l-347 227l258 266l130 -76l-164 -170z" />
    <glyph glyph-name="bnmE" unicode="&#x9c7;" horiz-adv-x="577" 
d="M565 115l-92 -152q-174 65 -271.5 232t-97.5 403q0 154 41.5 306t108.5 270h-295v157h659v-157h-157q-76 -109 -122 -263.5t-46 -314.5q0 -360 272 -481z" />
    <glyph glyph-name="bnmAI" unicode="&#x9c8;" horiz-adv-x="577" 
d="M524 1399q0 -33 -6 -68h100v-157h-157q-76 -109 -122 -263.5t-46 -314.5q0 -360 272 -481l-92 -152q-174 65 -271.5 232t-97.5 403q0 154 41.5 306t108.5 270h-295v157h375q6 30 6 58q0 73 -52.5 108t-168.5 49q-220 25 -313 103t-93 198q0 22 4 58l185 32q-6 -60 -6 -61
q0 -43 19 -73.5t75.5 -55t154.5 -35.5q379 -46 379 -313z" />
    <glyph glyph-name="bnmO" unicode="&#x9cb;" horiz-adv-x="2504" 
d="M565 115l-92 -152q-174 65 -271.5 232t-97.5 403q0 154 41.5 306t108.5 270h-295v157h659v-157h-157q-76 -109 -122 -263.5t-46 -314.5q0 -360 272 -481zM1163 184q0 -40 -26 -67t-64 -27q-40 0 -66 27t-26 67q0 37 26.5 63.5t65.5 26.5q38 0 64 -26.5t26 -63.5zM954 338
q0 -39 -25.5 -64.5t-64.5 -25.5q-40 0 -65 25t-25 65q0 39 25.5 64.5t64.5 25.5q38 0 64 -26t26 -64zM848 575q0 -38 -25 -63t-65 -25q-38 0 -64 25t-26 63q0 40 26 66.5t64 26.5q39 0 64.5 -26.5t25.5 -66.5zM1423 152q0 -40 -26 -65.5t-66 -25.5t-65 25.5t-25 65.5t25 65
t65 25t66 -25t26 -65zM879 834q0 -38 -27 -64.5t-64 -26.5q-40 0 -67 26.5t-27 64.5t27 64t67 26q37 0 64 -26t27 -64zM1671 260q0 -39 -26.5 -64.5t-65.5 -25.5t-64.5 25.5t-25.5 64.5q0 38 26 64t64 26t65 -26t27 -64zM1042 1059q0 -40 -25 -66t-65 -26t-65 26t-25 66
q0 39 25.5 64.5t64.5 25.5t64.5 -25.5t25.5 -64.5zM1819 461q0 -38 -25.5 -64t-62.5 -26q-40 0 -66.5 26t-26.5 64q0 40 26.5 66t66.5 26q37 0 62.5 -26.5t25.5 -65.5zM1284 1147q0 -40 -25 -65t-65 -25t-65 25t-25 65t25 65t65 25t65 -25t25 -65zM1839 735
q0 -39 -25.5 -64.5t-64.5 -25.5q-40 0 -65 25t-25 65t25 65t65 25q39 0 64.5 -25.5t25.5 -64.5zM1542 1116q0 -37 -25 -63.5t-63 -26.5q-39 0 -65.5 26.5t-26.5 63.5q0 40 26 66t66 26q38 0 63 -26t25 -66zM1737 977q0 -39 -25.5 -64.5t-64.5 -25.5q-38 0 -64.5 26t-26.5 64
q0 39 26 65.5t65 26.5q40 0 65 -26t25 -66zM2312 0h-190v983q0 104 -42 147.5t-130 43.5h-62v157h101q110 0 161 -71h11q-33 96 -33 229v47h184v-205h234v-157h-234v-1174z" />
    <glyph glyph-name="bnmAU" unicode="&#x9cc;" horiz-adv-x="2504" 
d="M565 115l-92 -152q-174 65 -271.5 232t-97.5 403q0 154 41.5 306t108.5 270h-295v157h659v-157h-157q-76 -109 -122 -263.5t-46 -314.5q0 -360 272 -481zM1163 184q0 -40 -26 -67t-64 -27q-40 0 -66 27t-26 67q0 37 26.5 63.5t65.5 26.5q38 0 64 -26.5t26 -63.5zM954 338
q0 -39 -25.5 -64.5t-64.5 -25.5q-40 0 -65 25t-25 65q0 39 25.5 64.5t64.5 25.5q38 0 64 -26t26 -64zM848 575q0 -38 -25 -63t-65 -25q-38 0 -64 25t-26 63q0 40 26 66.5t64 26.5q39 0 64.5 -26.5t25.5 -66.5zM1423 152q0 -40 -26 -65.5t-66 -25.5t-65 25.5t-25 65.5t25 65
t65 25t66 -25t26 -65zM879 834q0 -38 -27 -64.5t-64 -26.5q-40 0 -67 26.5t-27 64.5t27 64t67 26q37 0 64 -26t27 -64zM1671 260q0 -39 -26.5 -64.5t-65.5 -25.5t-64.5 25.5t-25.5 64.5q0 38 26 64t64 26t65 -26t27 -64zM1042 1059q0 -40 -25 -66t-65 -26t-65 26t-25 66
q0 39 25.5 64.5t64.5 25.5t64.5 -25.5t25.5 -64.5zM1819 461q0 -38 -25.5 -64t-62.5 -26q-40 0 -66.5 26t-26.5 64q0 40 26.5 66t66.5 26q37 0 62.5 -26.5t25.5 -65.5zM1284 1147q0 -40 -25 -65t-65 -25t-65 25t-25 65t25 65t65 25t65 -25t25 -65zM1839 735
q0 -39 -25.5 -64.5t-64.5 -25.5q-40 0 -65 25t-25 65t25 65t65 25q39 0 64.5 -25.5t25.5 -64.5zM1542 1116q0 -37 -25 -63.5t-63 -26.5q-39 0 -65.5 26.5t-26.5 63.5q0 40 26 66t66 26q38 0 63 -26t25 -66zM1737 977q0 -39 -25.5 -64.5t-64.5 -25.5q-38 0 -64.5 26t-26.5 64
q0 39 26 65.5t65 26.5q40 0 65 -26t25 -66zM2312 0h-190v1174h-234v157h234v58q0 89 -50 131.5t-167 42.5h-99q-103 0 -178 25t-115.5 68t-59.5 93t-19 109q0 37 4 55l180 35q-6 -60 -6 -64q0 -158 207 -158h110q166 0 274.5 -87t108.5 -240v-68h234v-157h-234v-1174z" />
    <glyph glyph-name="bnVirama" unicode="&#x9cd;" 
d="M164 -455l-101 -139l-460 322l100 143z" />
    <glyph glyph-name="bnTAkhanda" unicode="&#x9ce;" horiz-adv-x="1089" 
d="M535 864q85 0 133.5 41t48.5 109t-51.5 110.5t-139.5 42.5q-83 0 -143.5 -44.5t-91.5 -125.5q34 -63 98 -98t146 -35zM1020 -10l-184 -31q4 32 4 80q0 42 -12 73t-34 53.5t-57 41.5t-76.5 35.5t-97.5 36.5q-23 8 -35 12q-100 36 -177.5 82t-141 111t-97.5 154t-34 198
q0 222 119.5 357.5t324.5 135.5q161 0 266 -85.5t105 -229.5q0 -145 -93.5 -226t-248.5 -81q-176 0 -289 110q2 -51 15.5 -94.5t33 -77t51.5 -63.5t63.5 -51t77.5 -42.5t83.5 -36t91.5 -32.5q64 -23 109.5 -43t93.5 -51t77 -65.5t47.5 -83.5t18.5 -109q0 -24 -4 -78z" />
    <glyph glyph-name="bnAUlengthmark" unicode="&#x9d7;" horiz-adv-x="575" 
d="M383 0h-190v1174h-234v157h234v58q0 89 -50.5 131.5t-167.5 42.5h-98q-103 0 -178 25t-116 68t-60 93t-19 109q0 37 4 55l181 35q-6 -60 -6 -64q0 -158 206 -158h111q166 0 274.5 -87t108.5 -240v-68h233v-157h-233v-1174z" />
    <glyph glyph-name="bnDDxA" unicode="&#x9dc;" horiz-adv-x="1402" 
d="M874 -180q0 -54 -33.5 -88.5t-86.5 -34.5q-52 0 -86.5 34.5t-34.5 88.5q0 55 34.5 89t86.5 34q53 0 86.5 -34t33.5 -89zM1444 1174h-737v-306q0 -98 84 -98q53 0 152.5 46.5t195.5 129.5q67 -42 117.5 -134.5t50.5 -203.5q0 -217 -149.5 -356t-397.5 -139
q-124 0 -232 39.5t-188 109t-138.5 164t-90 206t-35.5 232.5l180 41q4 -149 45 -268t109.5 -195t158 -116.5t193.5 -40.5q163 0 261.5 88t98.5 227q0 77 -28 119q-67 -57 -153 -90t-171 -33q-119 0 -185.5 73t-66.5 191v314h-559v157h1485v-157z" />
    <glyph glyph-name="bnDDHxA" unicode="&#x9dd;" horiz-adv-x="1132" 
d="M631 -180q0 -54 -34 -88.5t-85 -34.5q-53 0 -87 34.5t-34 88.5q0 55 34 89t87 34q52 0 85.5 -34t33.5 -89zM1020 596q0 -128 -63 -243t-180.5 -189t-260.5 -74q-155 0 -241.5 84t-86.5 219v781h-229v157h1212v-157h-798v-766q0 -64 36 -103t107 -39q126 0 223 99t97 231
q0 75 -35 120.5t-103 45.5q-67 0 -112 -39l-74 154q81 61 193 61q141 0 228 -93.5t87 -248.5z" />
    <glyph glyph-name="bnYxA" unicode="&#x9df;" horiz-adv-x="1171" 
d="M418 -31q0 -52 -32.5 -84t-82.5 -32q-51 0 -84 32t-33 84q0 53 32.5 85t84.5 32q50 0 82.5 -32t32.5 -85zM811 250q-18 202 -18 403v521h-459v-9l250 -250v-135l-287 -221l506 -309h8zM1065 94l-125 -125l-821 494v174l282 217l-266 268v52h-176v157h1253v-157h-233
v-1027z" />
    <glyph glyph-name="bnvRR" unicode="&#x9e0;" horiz-adv-x="1566" 
d="M297 535l434 -275h8q-14 198 -14 369v155q-121 -33 -240 -104.5t-188 -144.5zM1401 365l-168 -84l-326 213v-340l90 -56l-127 -127l-231 146l-131 -129l414 -262l-121 -125l-559 348l258 256l-389 244v169q118 120 292 217.5t340 135.5v8q-26 22 -92 76t-94 78
q-105 -193 -311 -193q-126 0 -200.5 71.5t-74.5 176.5q0 82 33 143h180q-37 -68 -37 -123q0 -50 31.5 -80t83.5 -30q73 0 132 52.5t106 190.5h65q118 -94 172 -141q-14 72 -14 252v84h184v-838l322 -213l6 2q-18 97 -18 316v733h184v-205h207v-157h-207v-809z" />
    <glyph glyph-name="bnvLL" unicode="&#x9e1;" horiz-adv-x="1282" 
d="M1184 553q0 -172 -82.5 -299t-221 -192.5t-317.5 -71.5l-92 127q164 154 164 375q0 97 -46 152.5t-134 55.5q-76 0 -122 -40t-46 -113q0 -68 43.5 -105t113.5 -45l-47 -153q-128 14 -209.5 91.5t-81.5 211.5q0 155 96.5 237t243.5 82q161 0 259 -104.5t98 -267.5
q0 -176 -88 -320q138 35 211 134t73 247q0 86 -24.5 154.5t-66 114t-95.5 82.5t-113.5 66l-119 58t-113.5 64t-95.5 78t-66 107t-24.5 144q0 46 8 78l184 31q-10 -40 -10 -72q0 -62 24.5 -111t66.5 -82.5t96 -63t114 -59t119.5 -62t113.5 -79.5t96 -106.5t66.5 -147
t24.5 -196.5zM1325 -334q0 -315 -426 -315q-65 0 -139 12l-23 129q105 13 162 56t57 128q0 40 -20.5 65.5t-63.5 25.5q-36 0 -56.5 -20.5t-20.5 -53.5q0 -44 30 -74l-100 -59q-63 66 -63 143q0 91 57 145t143 54q105 0 163 -65t58 -159q0 -121 -82 -194q183 27 183 186
q0 44 -16 89.5t-35.5 77.5t-35.5 75t-16 84q0 82 64 149l119 -65q-33 -36 -33 -88q0 -36 14.5 -76t32.5 -71t32.5 -79.5t14.5 -99.5z" />
    <glyph glyph-name="bnmvL" unicode="&#x9e2;" 
d="M135 -494q0 -315 -426 -315q-67 0 -137 12l-25 129q107 13 164.5 56.5t57.5 128.5q0 40 -21 65t-65 25q-35 0 -55.5 -21t-20.5 -55q0 -41 31 -72l-101 -59q-63 60 -63 143q0 90 57 144.5t143 54.5q104 0 163 -65t59 -158q0 -122 -82 -195q88 13 135 56t47 128
q0 56 -25.5 112t-51 110.5t-25.5 105.5q0 82 61 150l119 -66q-33 -39 -33 -88q0 -36 14.5 -76t32.5 -71.5t32.5 -80t14.5 -98.5z" />
    <glyph glyph-name="bnmvLL" unicode="&#x9e3;" 
d="M135 -494q0 -315 -426 -315q-67 0 -137 12l-25 129q107 13 164.5 56.5t57.5 128.5q0 40 -21 65t-65 25q-35 0 -55.5 -21t-20.5 -55q0 -41 31 -72l-101 -59q-63 60 -63 143q0 90 57 144.5t143 54.5q104 0 163 -65t59 -158q0 -122 -82 -195q88 13 135 56t47 128
q0 56 -25.5 112t-51 110.5t-25.5 105.5q0 82 61 150l119 -66q-33 -39 -33 -88q0 -11 1 -22t4.5 -23t5.5 -20t8 -21.5t8.5 -19t10 -21t9.5 -20.5q59 51 125 51q79 0 124.5 -51.5t45.5 -122.5t-39 -113q117 26 117 131q0 51 -39 125t-39 119q0 63 47 113l90 -50
q-24 -27 -24 -65q0 -37 35.5 -110.5t35.5 -135.5q0 -111 -77.5 -170t-233.5 -59q-35 0 -53 2l-4 18h-2l-11 76q43 12 72 42t29 79q0 32 -19 50.5t-53 18.5q-53 0 -90 -43q10 -45 10 -84z" />
    <glyph glyph-name="bnZero" unicode="&#x9e6;" horiz-adv-x="1249" 
d="M1098 676q0 -239 -121.5 -382.5t-355.5 -143.5q-119 0 -209.5 39t-146 109t-83.5 162.5t-28 205.5q0 237 122 380.5t355 143.5q120 0 211 -38.5t146 -108.5t82.5 -162t27.5 -205zM344 678q0 -174 74.5 -267.5t212.5 -93.5t207 89.5t69 257.5q0 176 -73.5 266t-215.5 90
q-133 0 -203.5 -88t-70.5 -254z" />
    <glyph glyph-name="bnOne" unicode="&#x9e7;" horiz-adv-x="1085" 
d="M963 442q0 -71 -16.5 -135t-52.5 -120.5t-89 -97.5t-129.5 -65t-169.5 -24q-196 0 -311 95.5t-115 242.5q0 179 158 244l104 -127q-33 -14 -52.5 -45t-19.5 -72q0 -69 61.5 -115.5t172.5 -46.5q131 0 201.5 74t70.5 194q0 76 -32 139.5t-83 109t-112.5 88t-123.5 86.5
t-113 93.5t-83 121t-32 157.5q0 43 10 78l186 33q-10 -50 -10 -80q0 -70 32 -129t83 -102.5t113 -85.5t124 -90t113 -103.5t83 -137t32 -180.5z" />
    <glyph glyph-name="bnTwo" unicode="&#x9e8;" horiz-adv-x="987" 
d="M938 84l-127 -131l-766 465l111 145l45 -24q103 -54 217 -54q111 0 181.5 49.5t70.5 143.5q0 54 -27 99t-70.5 77.5t-95.5 63t-105 62t-96.5 66.5t-71 84.5t-28.5 108.5q0 22 8 78l185 33q-11 -55 -11 -80q0 -40 27.5 -74.5t71.5 -62.5t97 -57.5t106 -66t97 -80.5
t71.5 -108.5t27.5 -142.5q0 -143 -99 -234t-282 -94v-8q141 -58 281 -145z" />
    <glyph glyph-name="bnThree" unicode="&#x9e9;" horiz-adv-x="1507" 
d="M1331 670q0 -121 -35.5 -225.5t-102.5 -184t-171.5 -125t-235.5 -45.5q-135 0 -244 49t-185 136t-127.5 210.5t-75 269.5t-23.5 316l174 53q0 -149 14.5 -273.5t49.5 -236t89 -188.5t137.5 -121.5t190.5 -44.5q172 0 265.5 114.5t93.5 299.5q0 67 -10 123.5t-31.5 105.5
t-62 77t-95.5 28q-65 0 -105 -44t-40 -116q0 -109 96 -168l-137 -102q-67 40 -106.5 111t-39.5 165q0 136 85.5 232t238.5 96q83 0 150.5 -28.5t112 -76.5t74.5 -114.5t43 -139t13 -153.5z" />
    <glyph glyph-name="bnFour" unicode="&#x9ea;" horiz-adv-x="1040" 
d="M293 995q0 -87 61 -147.5t152 -89.5q59 25 97 45.5t76.5 49.5t57.5 65.5t19 80.5q0 78 -65.5 128.5t-166.5 50.5q-100 0 -165.5 -49t-65.5 -134zM965 338q0 -171 -124.5 -266t-310.5 -95q-128 0 -229.5 42t-162 125.5t-60.5 195.5q0 120 67 199t185 139q-95 47 -157 130
t-62 191q0 159 116 251.5t293 92.5q181 0 299.5 -96t118.5 -246q0 -119 -59.5 -196t-167.5 -135q115 -46 184.5 -129.5t69.5 -202.5zM528 145q109 0 179.5 53t70.5 144q0 80 -67 144.5t-179 99.5q-129 -56 -174 -88q-90 -64 -90 -160q0 -90 73 -141.5t187 -51.5z" />
    <glyph glyph-name="bnFive" unicode="&#x9eb;" horiz-adv-x="1271" 
d="M1110 135l-33 -135q-481 1 -731 168.5t-250 470.5q0 270 189 456.5t501 243.5l68 -122q-8 -50 -8 -66q0 -116 71.5 -169.5t208.5 -68.5l48 -165q-130 -44 -195.5 -119.5t-65.5 -175.5q0 -188 197 -318zM283 637q0 -105 44 -189t124.5 -139.5t184.5 -89.5t232 -47
q-65 60 -101 142t-36 163q0 203 199 342q-126 31 -187 112t-63 197q-195 -66 -296 -194.5t-101 -296.5z" />
    <glyph glyph-name="bnSix" unicode="&#x9ec;" horiz-adv-x="1339" 
d="M1272 543q0 -223 -146.5 -360.5t-396.5 -137.5q-149 0 -278.5 60t-218.5 161.5t-142 235.5t-57 282l184 41q3 -148 48 -266.5t118 -190.5t162 -109.5t186 -37.5q163 0 258.5 87t95.5 229q0 85 -28 131q-67 -63 -132.5 -94t-146.5 -31q-120 0 -188 73t-68 191v199
q0 77 -18 113t-70 36q-68 0 -112 -51l-95 145q32 34 89 58t120 24q130 0 204.5 -78t74.5 -231v-207q0 -98 82 -98q104 0 305 178q67 -43 118.5 -139t51.5 -213z" />
    <glyph glyph-name="bnSeven" unicode="&#x9ed;" horiz-adv-x="1177" 
d="M487 649q124 0 238 74v278q0 75 -41.5 114.5t-118.5 39.5q-121 0 -211 -93.5t-90 -223.5q0 -93 59 -141t164 -48zM1212 82q-32 -34 -89 -58t-122 -24q-130 0 -203 78.5t-73 232.5v230q-118 -66 -258 -66q-172 0 -281.5 92t-109.5 264q0 134 61 247.5t176 183t260 69.5
q164 0 251 -86.5t87 -234.5v-684q0 -76 20.5 -113t74.5 -37q32 0 62 15t48 38z" />
    <glyph glyph-name="bnEight" unicode="&#x9ee;" horiz-adv-x="1464" 
d="M555 178q117 0 193.5 101.5t76.5 240.5q0 88 -53 136.5t-162 48.5q-111 0 -211 -66v-307q0 -76 41 -115t115 -39zM1014 512q0 -98 -32 -189.5t-89.5 -163.5t-147.5 -115.5t-198 -43.5q-158 0 -247 87.5t-89 234.5v684q0 76 -19.5 112.5t-72.5 36.5q-69 0 -113 -51
l-94 145q32 34 89 58t120 24q131 0 204.5 -77t73.5 -232v-203q114 64 238 64q171 0 274 -95q47 66 158 66h33q72 0 101.5 26.5t29.5 96.5q0 37 -8 61l176 -34q8 -36 8 -86q0 -113 -62.5 -176.5t-193.5 -63.5h-35q-86 0 -114 -62q10 -55 10 -104z" />
    <glyph glyph-name="bnNine" unicode="&#x9ef;" horiz-adv-x="1302" 
d="M1210 481q0 -218 -137 -347.5t-356 -141.5l-105 108q58 93 58 219q0 118 -61.5 180t-162.5 62q-97 0 -153.5 -60.5t-56.5 -158.5q0 -87 41 -135.5t118 -54.5l-61 -162q-126 14 -201.5 107t-75.5 241q0 178 103.5 283.5t281.5 105.5q177 0 286.5 -104.5t109.5 -282.5
q0 -83 -25 -168q99 41 155 120t56 189q0 68 -30 125t-81 97.5t-117 75t-139 64t-145.5 58.5t-138.5 62.5t-117 72.5t-81 93.5t-30 119.5q0 45 9 76l186 33q-8 -32 -8 -74q0 -46 30 -85t81 -68t116.5 -56.5t138.5 -56t146 -61.5t138.5 -77.5t116.5 -98.5t81 -131t30 -169z
" />
    <glyph glyph-name="asRA" unicode="&#x9f0;" horiz-adv-x="1153" 
d="M1047 100l-132 -135l-821 518v162q99 101 296 225.5t388 180.5v123h-819v157h1235v-157h-233v-1022zM285 571l508 -321h8q-12 87 -15 196l-364 234q-70 -46 -137 -109zM539 754l241 -154q0 186 4 274q-125 -45 -245 -120z" />
    <glyph glyph-name="asWA" unicode="&#x9f1;" horiz-adv-x="1136" 
d="M1032 98l-127 -127l-811 512v164q97 99 288.5 219.5t373.5 175.5v132h-797v157h1219v-157h-234v-1020zM528 31l-118 -129l-287 178l117 131zM285 567l481 -305h8q-18 169 -18 385v211q-120 -44 -262 -133.5t-209 -157.5z" />
    <glyph glyph-name="bnTaka" unicode="&#x9f2;" horiz-adv-x="858" 
d="M813 160l-172 -41q-23 178 -68.5 313t-118.5 235.5t-178.5 157t-244.5 68.5l35 174q173 -13 307.5 -84t224 -192t142.5 -278t73 -353z" />
    <glyph glyph-name="bnBangladeshitaka" unicode="&#x9f3;" horiz-adv-x="1282" 
d="M1157 602q0 -119 -33.5 -225.5t-96.5 -191.5t-165 -135t-229 -50q-164 0 -261.5 84.5t-97.5 239.5v411h-180v158h180v117q0 83 -30 118t-107 35h-41v168q46 4 70 4q151 0 224 -84t73 -235v-123h117v-158h-117v-411q0 -77 46 -115.5t124 -38.5q157 0 249.5 123t92.5 309
q0 71 -34 111.5t-99 40.5q-57 0 -94 -37l-93 145q33 30 84.5 49t108.5 19q136 0 222.5 -87.5t86.5 -240.5z" />
    <glyph glyph-name="bnNumeratorone" unicode="&#x9f4;" horiz-adv-x="829" 
d="M795 1135q-93 -326 -248 -610.5t-369 -467.5l-117 129q205 194 337 433.5t239 572.5z" />
    <glyph glyph-name="bnNumeratortwo" unicode="&#x9f5;" horiz-adv-x="1398" 
d="M1319 1133q-92 -320 -250.5 -608.5t-366.5 -467.5l-137 113q53 85 53 219q0 118 -53.5 181t-150.5 63q-74 0 -116 -41.5t-42 -112.5q0 -87 86 -129l-133 -100q-66 36 -102.5 101t-36.5 143q0 136 89.5 223.5t248.5 87.5q172 0 270 -105.5t98 -279.5v-19
q124 162 213.5 351.5t169.5 439.5z" />
    <glyph glyph-name="bnNumeratorthree" unicode="&#x9f6;" horiz-adv-x="1310" 
d="M1200 1233q0 -115 -8 -224t-30 -232.5t-56.5 -229t-92 -204t-131.5 -168t-180 -111t-233 -41.5q-165 0 -272 72.5t-107 211.5q0 111 70.5 179.5t216.5 80.5q107 10 150.5 57t43.5 134q0 60 -31.5 97.5t-95.5 37.5q-57 0 -86.5 -31.5t-29.5 -87.5q0 -51 37 -100l-146 -70
q-65 68 -65 176q0 120 77 195.5t211 75.5q98 0 165.5 -41.5t97.5 -107t30 -148.5q0 -147 -74.5 -235t-230.5 -97q-84 -3 -124 -30t-40 -83q0 -62 56.5 -93.5t142.5 -31.5q106 0 193 43.5t148 121.5t106 178.5t70.5 223t37.5 246t12 256.5z" />
    <glyph glyph-name="bnNumeratorfour" unicode="&#x9f7;" horiz-adv-x="575" 
d="M383 0h-190v1331h190v-1331z" />
    <glyph glyph-name="bnNumeratoroneless" unicode="&#x9f8;" horiz-adv-x="1187" 
d="M1012 115h-197v602l-457 -385l-182 78v772h191v-596l485 409l160 -90v-790z" />
    <glyph glyph-name="bnDenominatorsixteen" unicode="&#x9f9;" horiz-adv-x="1130" 
d="M958 674q0 -176 -108 -282.5t-281 -106.5q-172 0 -279.5 106.5t-107.5 282.5q0 175 107.5 281t279.5 106q173 0 281 -105.5t108 -281.5zM369 672q0 -98 54 -155.5t146 -57.5q95 0 149 58t54 157q0 97 -54 154t-149 57q-92 0 -146 -58t-54 -155z" />
    <glyph glyph-name="bnIsshar" unicode="&#x9fa;" horiz-adv-x="1318" 
d="M1264 997q-27 -78 -51 -137.5t-61 -133t-75 -127t-92.5 -107.5t-115.5 -88t-141 -55t-171 -21q-183 0 -316 93t-196 236l152 88q20 -44 48 -82.5t71 -77.5t105.5 -62t135.5 -23q85 0 158.5 31t128.5 81.5t104.5 127.5t84.5 154.5t71 176.5zM676 860q0 -50 -34.5 -83.5
t-86.5 -33.5q-51 0 -85 33.5t-34 83.5q0 54 34 88.5t85 34.5q53 0 87 -34.5t34 -88.5z" />
    <glyph glyph-name="bnGanda" unicode="&#x9fb;" horiz-adv-x="573" 
d="M795 -203l-109 -141l-434 315q-219 154 -219 365q0 100 39.5 179.5t130.5 135t227 68.5l47 -170q-128 -15 -193 -70t-65 -145q0 -71 37 -121t109 -102z" />
    <glyph glyph-name="uni200C" unicode="&#x200c;" 
d="M49 -471h-96v2132h96v-2132z" />
    <glyph glyph-name="uni200D" unicode="&#x200d;" 
d="M262 1214l-67 -67l-148 153v-1771h-96v1771l-141 -149l-68 68l190 190l-194 195l67 67l195 -194l197 194l65 -65l-196 -197z" />
    <glyph glyph-name="endash" unicode="&#x2013;" horiz-adv-x="886" 
d="M885 537h-881v174h881v-174z" />
    <glyph glyph-name="emdash" unicode="&#x2014;" horiz-adv-x="1435" 
d="M1432 537h-1428v174h1428v-174z" />
    <glyph glyph-name="quoteleft" unicode="&#x2018;" horiz-adv-x="505" 
d="M399 1059q0 -58 -40.5 -98.5t-102.5 -40.5q-75 0 -121.5 54t-46.5 146q0 135 89 242.5t202 146.5l65 -98q-170 -75 -170 -186q0 -51 31 -85.5t94 -62.5v-18z" />
    <glyph glyph-name="quoteright" unicode="&#x2019;" horiz-adv-x="505" 
d="M420 1313q0 -137 -88 -244.5t-203 -146.5l-66 100q170 75 170 184q0 52 -30 86t-92 62v18q0 59 39.5 99t101.5 40q75 0 121.5 -53.5t46.5 -144.5z" />
    <glyph glyph-name="quotesinglbase" unicode="&#x201a;" horiz-adv-x="526" 
d="M430 78q0 -136 -88.5 -243t-202.5 -146l-65 100q79 33 124.5 81t45.5 103q0 52 -30.5 85.5t-92.5 62.5v18q0 59 39.5 99.5t101.5 40.5q75 0 121.5 -54.5t46.5 -146.5z" />
    <glyph glyph-name="quotedblleft" unicode="&#x201c;" horiz-adv-x="954" 
d="M848 1059q0 -58 -40.5 -98.5t-102.5 -40.5q-75 0 -121.5 54t-46.5 146q0 136 88.5 243t201.5 146l66 -98q-170 -75 -170 -186q0 -51 31 -85.5t94 -62.5v-18zM399 1059q0 -58 -40.5 -98.5t-102.5 -40.5q-75 0 -121.5 54t-46.5 146q0 135 89 242.5t202 146.5l65 -98
q-170 -75 -170 -186q0 -51 31 -85.5t94 -62.5v-18z" />
    <glyph glyph-name="quotedblright" unicode="&#x201d;" horiz-adv-x="954" 
d="M868 1311q0 -136 -88.5 -243t-201.5 -146l-66 98q170 75 170 186q0 52 -31 86t-94 62v18q0 58 40.5 98.5t102.5 40.5q75 0 121.5 -54t46.5 -146zM420 1311q0 -136 -88.5 -243t-202.5 -146l-66 98q170 75 170 186q0 52 -30 86t-92 62v18q0 58 39.5 98.5t101.5 40.5
q75 0 121.5 -54t46.5 -146z" />
    <glyph glyph-name="quotedblbase" unicode="&#x201e;" horiz-adv-x="972" 
d="M877 78q0 -92 -45 -175t-110 -136t-138 -78l-64 100q79 33 124.5 81t45.5 103q0 52 -31 86t-94 62v18q0 59 40.5 99.5t103.5 40.5q75 0 121.5 -54.5t46.5 -146.5zM428 78q0 -135 -89 -242.5t-202 -146.5l-65 100q79 33 124.5 81t45.5 103q0 52 -31 86t-94 62v18
q0 59 40.5 99.5t102.5 40.5q75 0 121.5 -54.5t46.5 -146.5z" />
    <glyph glyph-name="dagger" unicode="&#x2020;" horiz-adv-x="1091" 
d="M655 -303h-217l23 1257l-369 -24v205l369 -25l-29 438h225l-28 -438l370 25v-205l-368 24z" />
    <glyph glyph-name="daggerdbl" unicode="&#x2021;" horiz-adv-x="1093" 
d="M659 -303h-225l29 436l-371 -22v204l365 -24l-6 332l6 327l-365 -20v205l369 -25l-27 438h223l-28 -438l372 25v-205l-366 22l8 -329l-6 -330l362 22v-204l-368 22z" />
    <glyph glyph-name="bullet" unicode="&#x2022;" horiz-adv-x="937" 
d="M741 723q0 -115 -77.5 -192.5t-194.5 -77.5q-121 0 -196.5 77t-75.5 193q0 115 77 192.5t193 77.5q120 0 197 -77.5t77 -192.5z" />
    <glyph glyph-name="ellipsis" unicode="&#x2026;" horiz-adv-x="1669" 
d="M1569 139q0 -60 -44 -102.5t-108 -42.5q-60 0 -102.5 42.5t-42.5 102.5q0 64 42.5 108t102.5 44q65 0 108.5 -43.5t43.5 -108.5zM397 139q0 -61 -42.5 -103t-106.5 -42q-61 0 -103.5 42.5t-42.5 102.5q0 64 42 108t104 44q64 0 106.5 -43.5t42.5 -108.5zM983 139
q0 -60 -44 -102.5t-108 -42.5q-60 0 -102.5 42.5t-42.5 102.5q0 64 42.5 108t102.5 44q65 0 108.5 -43.5t43.5 -108.5z" />
    <glyph glyph-name="perthousand" unicode="&#x2030;" horiz-adv-x="2506" 
d="M1466 1294l-1067 -1247l-106 94l1065 1248zM737 1057q0 -195 -88.5 -296.5t-236.5 -101.5q-151 0 -234.5 97t-83.5 293q0 190 88.5 290.5t239.5 100.5q147 0 231 -96.5t84 -286.5zM258 1051q0 -131 42.5 -194.5t117.5 -63.5q80 0 117.5 61t37.5 195q0 258 -163 258
q-152 0 -152 -256zM1632 377q0 -195 -87.5 -296t-235.5 -101q-151 0 -234.5 97t-83.5 294q0 189 88.5 289t237.5 100t232 -95.5t83 -287.5zM1155 373q0 -260 160 -260q79 0 117 61.5t38 194.5q0 260 -163 260q-152 0 -152 -256zM2413 377q0 -195 -89 -296t-237 -101
q-151 0 -234.5 97t-83.5 294q0 189 89 289t239 100q147 0 231.5 -96t84.5 -287zM1933 373q0 -132 42.5 -196t117.5 -64q80 0 118 61t38 195q0 260 -164 260q-152 0 -152 -256z" />
    <glyph glyph-name="guilsinglleft" unicode="&#x2039;" horiz-adv-x="643" 
d="M563 203l-131 -101l-342 459l342 461l131 -102l-256 -359z" />
    <glyph glyph-name="guilsinglright" unicode="&#x203a;" horiz-adv-x="643" 
d="M563 561l-342 -459l-131 101l256 358l-256 359l131 102z" />
    <glyph glyph-name="fraction" unicode="&#x2044;" horiz-adv-x="366" 
d="M711 1360l-942 -1356l-111 68l942 1360z" />
    <glyph glyph-name="Euro" unicode="&#x20ac;" horiz-adv-x="1234" 
d="M1167 117q-129 -135 -393 -135q-453 0 -526 499h-170v154h155v145h-155v154h174q45 241 183.5 372.5t365.5 131.5q252 0 383 -131l-133 -160q-51 51 -111.5 80.5t-157.5 29.5q-132 0 -219 -81t-117 -242h476l-43 -154h-447v-67q0 -55 2 -78h410l-37 -154h-354
q58 -319 344 -319q65 0 119.5 18.5t80 37t58.5 48.5z" />
    <glyph glyph-name="indianrupee" unicode="&#x20b9;" horiz-adv-x="1024" 
d="M778 0h-237l-348 428l-123 127l43 156q74 -21 146.5 -18t131.5 22.5t100.5 68t53.5 119.5h-461v154h448q-52 137 -233 137h-215v154h936l-72 -154h-317v-8q68 -41 98 -129h291l-72 -154h-203q-9 -87 -53 -156.5t-107 -109.5t-133.5 -59.5t-138.5 -16.5l-2 -6
q59 -57 162 -176l305 -361v-18z" />
    <glyph glyph-name="trademark" unicode="&#x2122;" horiz-adv-x="1263" 
d="M664 868h-113v568h174l135 -394l129 394h174v-568h-112v262q0 46 2 110t2 75h-8l-140 -397h-100l-139 401h-9q0 -10 2.5 -70t2.5 -110v-271zM301 870h-121v469h-166v97h447v-97h-160v-469z" />
    <glyph glyph-name="minus" unicode="&#x2212;" horiz-adv-x="1099" 
d="M1034 616h-971v170h971v-170z" />
    <glyph glyph-name="uni25CC" unicode="&#x25cc;" horiz-adv-x="1351" 
d="M586 184q0 -40 -26 -67t-64 -27q-40 0 -66.5 27t-26.5 67q0 37 27 63.5t66 26.5q38 0 64 -26.5t26 -63.5zM377 338q0 -39 -25.5 -64.5t-64.5 -25.5q-40 0 -65 25t-25 65q0 39 25.5 64.5t64.5 25.5q38 0 64 -26t26 -64zM270 575q0 -38 -25 -63t-65 -25q-38 0 -64 25
t-26 63q0 40 26 66.5t64 26.5q39 0 64.5 -26.5t25.5 -66.5zM846 152q0 -40 -26 -65.5t-66 -25.5t-65 25.5t-25 65.5t25 65t65 25t66 -25t26 -65zM301 834q0 -38 -26.5 -64.5t-63.5 -26.5q-40 0 -67 26.5t-27 64.5t27 64t67 26q37 0 63.5 -26t26.5 -64zM1094 260
q0 -39 -27 -64.5t-66 -25.5t-64.5 25.5t-25.5 64.5q0 38 26 64t64 26q39 0 66 -26t27 -64zM465 1059q0 -40 -25 -66t-65 -26t-65 26t-25 66q0 39 25.5 64.5t64.5 25.5t64.5 -25.5t25.5 -64.5zM1241 461q0 -38 -25.5 -64t-62.5 -26q-40 0 -66 26t-26 64q0 40 26 66t66 26
q37 0 62.5 -26.5t25.5 -65.5zM707 1147q0 -40 -25.5 -65t-65.5 -25t-65 25t-25 65t25 65t65 25t65.5 -25t25.5 -65zM1262 735q0 -39 -26 -64.5t-65 -25.5q-40 0 -65 25t-25 65t25 65t65 25q39 0 65 -25.5t26 -64.5zM965 1116q0 -37 -25 -63.5t-63 -26.5q-39 0 -66 26.5
t-27 63.5q0 40 26.5 66t66.5 26q38 0 63 -26t25 -66zM1159 977q0 -39 -25.5 -64.5t-64.5 -25.5q-38 0 -64 26t-26 64q0 40 26 66t64 26q40 0 65 -26t25 -66z" />
    <glyph glyph-name="bnK_SSA" horiz-adv-x="1841" 
d="M1882 1174h-561v-304h65q181 0 282 -88.5t101 -236.5q0 -123 -60.5 -206t-154.5 -126l-106 139q61 22 102 72.5t41 122.5q0 153 -196 153h-74v-714h-174q-33 134 -158.5 237t-290.5 121q-26 -84 -75.5 -124t-104.5 -40q-59 0 -96 34.5t-37 94.5q0 59 44.5 109.5
t119.5 73.5q0 101 -50 171.5t-132 102.5q-24 -78 -74 -117t-103 -39q-60 0 -97.5 34.5t-37.5 96.5q0 61 43.5 110t118.5 69q-11 153 -119 254h-139v157h1923v-157zM1151 276q-18 218 -18 406v18h-121q-158 0 -248 89t-90 255v130h-373q75 -108 84 -250q139 -30 236.5 -143
t97.5 -275v-4q145 -14 266.5 -84.5t165.5 -141.5zM1004 870h129v304h-279v-134q0 -170 150 -170z" />
    <glyph glyph-name="bnJ_NYA" horiz-adv-x="1742" 
d="M752 723l254 -21v3q-92 68 -142.5 191.5t-58.5 277.5h-6q-66 -71 -119 -177.5t-53 -181.5q0 -81 125 -92zM1374 125q-179 0 -276 131q-48 -90 -143 -143.5t-228 -53.5q-136 0 -254.5 60t-202.5 161.5t-136 236.5t-62 284l172 53q8 -169 69 -309t169 -223.5t241 -83.5
q114 0 178 54.5t64 137.5q0 44 -25 113l-225 16q-128 9 -199.5 69.5t-71.5 172.5q0 90 40.5 190t97.5 183h-623v157h1825v-157h-805q8 -169 86 -285q97 168 293 168q123 0 196.5 -71t73.5 -179q0 -74 -37.5 -127t-99.5 -76v-8q68 -21 114 -75t46 -136q0 -109 -75 -184.5
t-202 -75.5zM1133 598q0 -143 59.5 -230t165.5 -87q57 0 91 32.5t34 83.5q0 59 -41.5 92t-114.5 33h-43v144h39q65 0 101 35.5t36 97.5q0 47 -31.5 75.5t-89.5 28.5q-83 0 -144.5 -78t-61.5 -227z" />
    <glyph glyph-name="bnNull" 
 />
    <glyph glyph-name="bnReph" 
d="M309 1866l-600 -428l-90 141l598 420z" />
    <glyph glyph-name="bnRAc2" 
d="M-193 -403h-174q-13 96 -60.5 150t-145.5 54q-39 0 -108.5 -5t-115.5 -5q-80 0 -143.5 21t-104.5 56.5t-68.5 86t-39.5 106t-14 119.5l184 37q-1 -71 15.5 -126t63 -93.5t118.5 -38.5q38 0 104 4t100 4q150 0 224 -104h8q-25 94 -25 235v127h182v-628z" />
    <glyph glyph-name="bnYAc2" horiz-adv-x="534" 
d="M424 336q0 -125 -56 -231.5t-157 -176.5l-139 113q89 68 127.5 142t38.5 163q0 68 -18.5 143.5t-40 133t-40 136.5t-18.5 152q0 162 106 254v9h-268v157h616v-157h-32q-95 0 -162.5 -67.5t-67.5 -199.5q0 -67 17.5 -142.5t38 -133.5t38 -138.5t17.5 -156.5z" />
    <glyph glyph-name="bnBAc2" 
d="M-76 -481l-123 -127l-743 370v181q279 209 569 295v36h180v-698zM-369 -338h11q-15 197 -15 383v14q-198 -76 -387 -198z" />
    <glyph glyph-name="bnK" horiz-adv-x="1390" 
d="M1430 1174h-596v-72q220 -9 339 -109.5t119 -240.5q0 -122 -61 -204t-158 -124l-102 137q64 23 105.5 70.5t41.5 120.5q0 87 -74 135.5t-210 54.5v-584l-129 2l-607 271v174q103 102 246 180.5t309 104.5v84h-694v157h1471v-157zM659 561h11q-17 212 -17 365
q-206 -48 -377 -197z" />
    <glyph glyph-name="bnKH" horiz-adv-x="1247" 
d="M1073 297h-158l-864 305v166q545 3 545 262q0 67 -45 109q-41 -97 -116 -149t-173 -52q-121 0 -191.5 69.5t-70.5 180.5q0 62 31 143h170q-35 -59 -35 -135q0 -51 28 -80t85 -29q65 0 116 59t99 185h96q75 -53 121.5 -133.5t46.5 -169.5q0 -153 -96 -242t-297 -120v-11
l528 -188l8 2q-14 210 -14 438v629h186v-205h215v-157h-215v-877z" />
    <glyph glyph-name="bnG" horiz-adv-x="1247" 
d="M1055 403h-172v402q0 161 -100.5 270t-262.5 109q-101 0 -177 -48t-118 -114q77 31 160 31q115 0 194.5 -68.5t79.5 -189.5q0 -110 -77.5 -206.5t-204.5 -168.5l-121 131q227 118 227 252q0 56 -38 87.5t-105 31.5q-115 0 -207 -50l-119 119q47 144 184.5 248t311.5 104
q65 0 124.5 -14t101 -35t77.5 -49t56.5 -51t37.5 -47h8q-11 34 -21.5 118t-10.5 181v90h172v-205h243v-157h-243v-771z" />
    <glyph glyph-name="bnGH" horiz-adv-x="1193" 
d="M1001 254h-178l-714 233v160l94 58q41 25 78 43t58 26.5t23 9.5v9q-123 11 -192.5 73.5t-69.5 165.5q0 83 43 142h-184v157h1276v-157h-234v-920zM840 416l6 2q-17 185 -17 358v398h-493q-64 -55 -64 -136q0 -69 46.5 -106t125.5 -37q54 0 97 13.5t96 45.5l70 -141
l-394 -231z" />
    <glyph glyph-name="bnNG" horiz-adv-x="1372" 
d="M770 985q72 0 112 35t40 92q0 48 -35 79.5t-92 31.5q-127 0 -127 -148v-76q43 -14 102 -14zM1268 584q0 -183 -137 -298.5t-375 -115.5q-149 0 -274.5 54t-209.5 145.5t-133 212t-55 254.5l164 36q7 -135 51 -241t114 -171t157 -98.5t186 -33.5q160 0 250 71.5t90 178.5
q0 66 -27 106q-162 -119 -317 -119q-117 0 -181.5 67.5t-64.5 180.5v111q-153 87 -238 250h-309v157h410l4 2q46 -151 141 -243q1 126 74 197t198 71q127 0 208 -68t81 -180q0 -124 -84.5 -190t-222.5 -66q-45 0 -100 10v-47q0 -52 22 -76t74 -24q132 0 354 176
q64 -46 107 -126t43 -183z" />
    <glyph glyph-name="bnC" horiz-adv-x="974" 
d="M319 565q0 -49 27.5 -77.5t83.5 -28.5q100 0 186 70.5t86 175.5q0 59 -31.5 93.5t-119.5 67.5l-88 31q-96 34 -146 88h-8q0 -8 2 -37t3.5 -56t3 -79.5t1.5 -112.5v-135zM1016 1174h-690q32 -66 166 -117l114 -43q137 -49 201.5 -118t64.5 -191q0 -76 -34 -149.5
t-92.5 -129.5t-143 -90.5t-178.5 -34.5q-130 0 -202 68.5t-72 187.5v617h-191v157h1057v-157z" />
    <glyph glyph-name="bnCH" horiz-adv-x="1136" 
d="M293 774q0 -37 22 -59.5t66 -22.5q72 0 118 47.5t46 106.5q0 34 -29 57.5t-67 34t-84.5 27t-71.5 36.5v-227zM696 844q0 -118 -89.5 -205.5t-225.5 -87.5q-114 0 -181 58.5t-67 152.5v412h-174v157h1219v-157h-893q12 -28 52.5 -48.5t110.5 -43.5t107 -40q58 15 115 15
q154 0 257 -95.5t103 -252.5q0 -176 -124 -278.5t-371 -119.5v-6q83 -23 258 -110l284 -146l-114 -121q-316 168 -456 236.5t-210.5 91.5t-161.5 33v143h238q246 0 367.5 73t121.5 206q0 84 -47.5 133.5t-126.5 58.5q8 -24 8 -59z" />
    <glyph glyph-name="bnJ" horiz-adv-x="1525" 
d="M1350 162h-162v209q0 123 24.5 224t49.5 150q-171 9 -295.5 106.5t-155.5 221.5q-48 -32 -71 -49t-60 -48t-53.5 -59.5t-16.5 -56.5q0 -39 27.5 -57t87.5 -23l207 -18q44 -41 71 -102t27 -125q0 -141 -104 -239.5t-285 -98.5q-167 0 -304 94t-215.5 249.5t-90.5 342.5
l159 49q7 -159 64 -289.5t158 -208.5t227 -78q105 0 162 49.5t57 122.5q0 57 -29 90l-165 17q-232 23 -232 203q0 53 24 103.5t68 93.5t85 74t96 65h-746v157h1608v-157h-629q11 -51 37.5 -98t71.5 -89.5t118 -68t164 -25.5h45l70 -123q-94 -167 -94 -410v-198z" />
    <glyph glyph-name="bnJH" horiz-adv-x="1361" 
d="M262 752l377 -203h8q-16 174 -16 346v63q-186 -76 -369 -206zM1206 502l-127 -35l-288 162v-264h-136l-555 301v161q265 202 531 299v48h-672v157h832v-528l256 -141v874h159v-205h197v-157h-197v-672z" />
    <glyph glyph-name="bnNY" horiz-adv-x="1603" 
d="M1071 248h-162q0 101 -75.5 147.5t-262.5 53.5q-249 9 -370 96t-121 237q0 95 51 185l162 -49q-41 -61 -41 -140q0 -83 75 -127.5t255 -50.5q141 -5 214.5 -28t123.5 -60h8q-23 112 -23 303v275q0 49 -21 72.5t-69 23.5q-91 0 -166.5 -73t-75.5 -159q0 -39 21.5 -61.5
t60.5 -22.5q31 0 59 12.5t42 28.5l63 -129q-74 -55 -178 -55q-112 0 -173.5 60.5t-61.5 160.5q0 69 33 139.5t88.5 126.5t135.5 91.5t166 35.5q151 0 197 -108q33 44 95.5 77t146.5 33q116 0 183 -60.5t67 -160.5q0 -61 -31 -108t-90 -70v-6q67 -21 104 -68t37 -116
q0 -100 -68 -167t-186 -67q-62 0 -128 29t-101 67q16 -58 16 -186v-182zM1065 938q0 -121 55 -196.5t148 -75.5q48 0 76 27.5t28 68.5q0 50 -34.5 76t-98.5 26h-45v144h41q56 0 86.5 29t30.5 77q0 38 -26.5 63t-74.5 25q-72 0 -129 -69t-57 -195z" />
    <glyph glyph-name="bnTT" horiz-adv-x="1036" 
d="M911 1405q0 -33 -6 -74h172v-157h-741v-558q0 -67 37.5 -101t107.5 -34q119 0 198 74t79 182q0 146 -123 146q-67 0 -109 -56l-86 146q32 35 85 58.5t114 23.5q129 0 211 -85.5t82 -230.5q0 -177 -130.5 -303.5t-328.5 -126.5q-140 0 -223.5 77.5t-83.5 207.5v580h-207
v157h774q8 31 8 64q0 80 -51 114.5t-162 34.5h-178q-96 0 -166 23.5t-108.5 64t-56 87.5t-17.5 102q0 37 4 53l166 33q-6 -60 -6 -62q0 -66 41.5 -107.5t152.5 -41.5h199q155 0 253.5 -75t98.5 -216z" />
    <glyph glyph-name="bnTTH" horiz-adv-x="1134" 
d="M1026 561q0 -179 -117.5 -300.5t-314.5 -121.5q-101 0 -190 38.5t-151 103.5t-99 151t-39 180q180 47 268 141.5t88 256.5v147l-18 19h-494v155h391q-110 131 -110 266q0 138 96.5 222.5t245.5 76.5l34 -155q-90 9 -144 -34t-54 -120q0 -113 121 -256h632v-155h-522
q76 -79 115 -121t91 -102t76.5 -100t50 -91t35 -99t9.5 -102zM313 522q3 -33 23 -70.5t53.5 -73.5t89 -59.5t119.5 -23.5q117 0 187.5 76.5t70.5 187.5q0 49 -15 99t-32.5 85t-57.5 86t-62 75.5t-73 80.5q3 -90 -18.5 -166t-53.5 -123.5t-78 -85.5t-80.5 -56t-72.5 -32z" />
    <glyph glyph-name="bnDD" horiz-adv-x="1280" 
d="M1319 1176h-684v-218q0 -94 80 -94q51 0 137 44t176 120q63 -39 110.5 -121.5t47.5 -189.5q0 -196 -138 -320.5t-366 -124.5q-143 0 -261.5 57t-196 154t-122 222t-49.5 266l166 37q4 -136 40.5 -246.5t99 -183t145.5 -111.5t180 -39q149 0 242.5 82.5t93.5 202.5
q0 63 -31 114q-151 -116 -291 -116q-108 0 -169.5 66t-61.5 173v226h-508v155h1360v-155z" />
    <glyph glyph-name="bnDDH" horiz-adv-x="1036" 
d="M932 739q0 -177 -130.5 -303.5t-328.5 -126.5q-140 0 -223.5 77.5t-83.5 207.5v580h-207v157h1118v-157h-741v-558q0 -67 37.5 -101t107.5 -34q119 0 198 74t79 182q0 146 -123 146q-67 0 -109 -56l-86 146q32 35 85 58.5t114 23.5q129 0 211 -85.5t82 -230.5z" />
    <glyph glyph-name="bnNN" horiz-adv-x="1167" 
d="M975 524h-172v187q0 103 -17.5 187.5t-54.5 151.5t-100 104.5t-148 37.5q-118 0 -182.5 -68t-64.5 -178q0 -94 53.5 -147.5t142.5 -53.5q94 0 170 80l62 -143q-96 -92 -234 -92q-162 0 -262 101t-100 255q0 173 107.5 284t295.5 111q234 0 350 -194l8 2q-22 76 -22 291
v96h168v-205h233v-157h-233v-650z" />
    <glyph glyph-name="bnT" horiz-adv-x="1417" 
d="M1292 -408l-100 -139l-461 322l100 143zM1319 616q0 -227 -141 -370.5t-365 -143.5q-122 0 -226.5 42.5t-183 116.5t-142 181t-106 229.5t-71.5 268.5l174 76q28 -159 73 -287.5t111 -234t160 -164t209 -58.5q147 0 234.5 100.5t87.5 248.5q0 118 -47.5 188t-137.5 70
q-63 0 -102 -37.5t-39 -100.5q0 -45 22.5 -82t63.5 -57l-123 -110q-69 34 -110.5 104t-41.5 158q0 130 87.5 213.5t232.5 83.5q179 0 280 -123.5t101 -311.5zM1458 1174h-1499v157h1499v-157z" />
    <glyph glyph-name="bnTH" horiz-adv-x="1241" 
d="M1055 268h-166l-772 318v172q493 8 493 268q0 76 -47 121t-129 45q-71 0 -116.5 -40t-45.5 -105q0 -74 62 -129l-137 -74q-48 36 -71.5 91t-23.5 114q0 131 92.5 214t235.5 83q94 0 171.5 -34.5t127 -108.5t49.5 -175q0 -316 -413 -375v-6l526 -217h8q-12 152 -12 373
v733h168v-205h219v-157h-219v-906z" />
    <glyph glyph-name="bnD" horiz-adv-x="1036" 
d="M1075 1176h-745v-410q81 88 206 180t240 139l152 -81q-68 -195 -68 -445v-147h-168v147q0 200 45 340q-233 -156 -409 -381l-172 80v578h-197v155h1116v-155z" />
    <glyph glyph-name="bnDH" horiz-adv-x="1118" 
d="M936 289h-164l-655 262v145l104 62q36 22 75.5 41.5t61.5 28.5l21 8v8q-121 8 -197 70t-76 173q0 115 78.5 188t208.5 73q58 0 113 -17t90 -47l-51 -125q-61 43 -139 43q-60 0 -97 -32.5t-37 -88.5q0 -65 56 -97t141 -32q124 0 307 115v266h379v-157h-219v-887zM784 440
h9q-17 209 -17 371v90l-481 -268z" />
    <glyph glyph-name="bnN" horiz-adv-x="1126" 
d="M1167 1174h-217v-697l-180 2q-54 185 -145 289t-209 104q-75 0 -114.5 -35t-39.5 -94q0 -86 90 -139l-137 -82q-58 34 -93.5 93t-35.5 135q0 129 84.5 209.5t230.5 80.5q125 0 227.5 -74.5t151.5 -189.5l8 2q-22 106 -22 344v52h-807v157h1208v-157z" />
    <glyph glyph-name="bnP" horiz-adv-x="1366" 
d="M289 1051q97 -13 179 -70t124 -158l299 207q-114 150 -303 150q-103 0 -179.5 -40t-119.5 -89zM1184 436h-187v219q0 131 -32 226l-603 -422l-94 141l183 125q-62 151 -224 178q-42 15 -80 17l-98 139q75 117 212.5 202t316.5 85q71 0 135 -15.5t111 -39.5t87.5 -57
t66.5 -64.5t46 -65.5h8q-17 50 -28 152.5t-11 205.5v74h191v-205h223v-157h-223v-738z" />
    <glyph glyph-name="bnPH" horiz-adv-x="1617" 
d="M1038 244h-155l-688 266v172l286 197l-270 243v52h-252v157h1700v-157h-1247v-9l247 -221v-139l-278 -193l481 -184h8q-18 203 -18 403v177q121 57 272 57q118 0 212.5 -39.5t153 -123.5t58.5 -200q0 -58 -15 -108.5t-38.5 -87.5t-57 -67.5t-66.5 -50.5t-71 -36l-106 146
q174 61 174 207q0 88 -62.5 138t-156.5 50q-65 0 -111 -14v-635z" />
    <glyph glyph-name="bnB" horiz-adv-x="1056" 
d="M1098 1174h-221v-830h-166l-582 283v184q271 177 569 305v58h-739v157h1139v-157zM707 532h10q-19 207 -19 386v12q-183 -85 -385 -207z" />
    <glyph glyph-name="bnBH" horiz-adv-x="1396" 
d="M1303 670q0 -193 -129.5 -311.5t-362.5 -118.5q-122 0 -229.5 41t-186.5 109.5t-143.5 163t-106 195.5t-69.5 214l151 69q21 -99 56 -190.5t88 -173t117 -141.5t147.5 -95t175.5 -35q157 0 243.5 78.5t86.5 198.5q0 89 -56 178h-8q-97 -227 -297 -227q-117 0 -187.5 69
t-70.5 172q0 76 39 140l162 -27q-37 -40 -37 -105q0 -48 25.5 -76t76.5 -28q65 0 119 60.5t109 205.5h127q66 -62 113 -156.5t47 -209.5zM1438 1174h-1479v157h1479v-157z" />
    <glyph glyph-name="bnM" horiz-adv-x="1277" 
d="M850 874q72 0 105.5 42.5t33.5 109.5q0 63 -36.5 105.5t-110.5 42.5h-406q21 -45 31 -113q52 -15 107.5 -48t93 -62.5t87 -53t95.5 -23.5zM1321 1174h-205q58 -70 58 -179q0 -55 -16 -105t-50 -94t-95.5 -70t-142.5 -26q-69 0 -129.5 21.5t-104 52t-83 60.5t-83 51.5
t-87.5 21.5q-50 0 -81.5 -28.5t-31.5 -77.5q0 -60 54 -107l-142 -78q-90 75 -90 193q0 94 47.5 161.5t136.5 90.5q-19 68 -53 113h-264v157h1362v-157z" />
    <glyph glyph-name="bnY" horiz-adv-x="1001" 
d="M844 299h-154l-610 272v154l262 180l-246 223v46h-137v157h1079v-157h-194v-875zM236 659l450 -196l8 2q-16 200 -16 366v343h-404v-9l224 -204v-121z" />
    <glyph glyph-name="bnR" horiz-adv-x="1056" 
d="M412 262q0 -48 -33.5 -81.5t-83.5 -33.5q-49 0 -82 33.5t-33 81.5q0 52 32.5 85.5t82.5 33.5q51 0 84 -33.5t33 -85.5zM1098 1174h-221v-830h-166l-582 283v184q271 177 569 305v58h-739v157h1139v-157zM707 532h10q-19 207 -19 386v12q-183 -85 -385 -207z" />
    <glyph glyph-name="bnL" horiz-adv-x="1406" 
d="M1448 1174h-217v-869l-176 -2v498q-14 41 -56.5 73.5t-103.5 32.5q-71 0 -114.5 -49.5t-43.5 -136.5v-74h-170v72q0 90 -44 136t-115 46t-119.5 -49.5t-48.5 -142.5q0 -104 60.5 -158.5t156.5 -54.5q33 0 49 4l14 -162q-50 -8 -78 -8q-160 0 -270.5 101.5t-110.5 275.5
q0 167 97 263.5t237 96.5q57 0 104 -16t77 -42t48.5 -52t26.5 -52h8q15 67 71.5 117.5t143.5 50.5q64 0 107 -25t63 -53h11v179h-1096v157h1489v-157z" />
    <glyph glyph-name="bnSH" horiz-adv-x="1355" 
d="M1174 440h-189v451q0 135 -59.5 203.5t-169.5 68.5q-93 0 -152 -55.5t-59 -161.5q0 -103 59 -159t158 -56q61 0 102 17v-168q-45 -17 -108 -17q-204 0 -307 150q-98 -154 -299 -154q-53 0 -117 16v173q43 -19 110 -19q107 0 161 57t54 160q0 110 -58 169t-167 59h-174
v157h178q219 0 316 -147q101 147 301 147q173 0 252 -117h8q-8 29 -16.5 100.5t-8.5 149.5v72h185v-205h223v-157h-223v-734z" />
    <glyph glyph-name="bnSS" horiz-adv-x="1071" 
d="M969 930q0 -195 -122 -304.5t-312 -109.5q-188 0 -309.5 111t-121.5 303q0 145 76 244h-221v157h1153v-157h-221q78 -97 78 -244zM535 1178q-77 0 -138 -39l363 -324q24 53 24 117q0 105 -68.5 175.5t-180.5 70.5zM535 680q82 0 143 39l-365 321q-22 -52 -22 -108
q0 -111 68 -181.5t176 -70.5z" />
    <glyph glyph-name="bnS" horiz-adv-x="1343" 
d="M1247 1057q0 -137 -83 -222t-230 -85q-114 0 -199 63.5t-131 173.5q-72 -237 -289 -237q-81 0 -154.5 40t-125.5 105l108 121q85 -115 172 -115q141 0 174 273h-530v157h1425v-157h-153q16 -53 16 -117zM713 1174q22 -117 73.5 -194t137.5 -77q40 0 68.5 16t42.5 42.5
t20 52t6 51.5q0 71 -19 109h-329z" />
    <glyph glyph-name="bnH" horiz-adv-x="966" 
d="M971 125l-109 -127q-399 219 -515.5 274t-227.5 68v158h127q212 0 306.5 60t94.5 181q0 86 -50.5 139.5t-137.5 53.5q-72 0 -118 -41t-46 -107q0 -84 78 -125l-121 -88q-66 33 -100.5 93t-34.5 133q0 125 94 207.5t246 82.5q165 0 267.5 -98t102.5 -254q0 -304 -376 -352
v-8q43 -8 102.5 -35t171.5 -86zM1008 1174h-1049v157h1049v-157z" />
    <glyph glyph-name="bnK_SS" horiz-adv-x="1851" 
d="M1634 -469l-100 -139l-461 321l101 144zM1882 1174h-561v-304h65q181 0 282 -88.5t101 -236.5q0 -123 -60.5 -206t-154.5 -126l-106 139q61 22 102 72.5t41 122.5q0 153 -196 153h-74v-714h-174q-33 134 -158.5 237t-290.5 121q-26 -84 -75.5 -124t-104.5 -40
q-59 0 -96 34.5t-37 94.5q0 59 44.5 109.5t119.5 73.5q0 101 -50 171.5t-132 102.5q-24 -78 -74 -117t-103 -39q-60 0 -97.5 34.5t-37.5 96.5q0 61 43.5 110t118.5 69q-11 153 -119 254h-139v157h1923v-157zM1151 276q-18 218 -18 406v18h-121q-158 0 -248 89t-90 255v130
h-373q75 -108 84 -250q139 -30 236.5 -143t97.5 -275v-4q145 -14 266.5 -84.5t165.5 -141.5zM1004 870h129v304h-279v-134q0 -170 150 -170z" />
    <glyph glyph-name="bnJ_NY" horiz-adv-x="1742" 
d="M752 723l254 -21v3q-92 68 -142.5 191.5t-58.5 277.5h-6q-66 -71 -119 -177.5t-53 -181.5q0 -81 125 -92zM1374 125q-179 0 -276 131q-48 -90 -143 -143.5t-228 -53.5q-136 0 -254.5 60t-202.5 161.5t-136 236.5t-62 284l172 53q8 -169 69 -309t169 -223.5t241 -83.5
q114 0 178 54.5t64 137.5q0 44 -25 113l-225 16q-128 9 -199.5 69.5t-71.5 172.5q0 90 40.5 190t97.5 183h-623v157h1825v-157h-805q8 -169 86 -285q97 168 293 168q123 0 196.5 -71t73.5 -179q0 -74 -37.5 -127t-99.5 -76v-8q68 -21 114 -75t46 -136q0 -109 -75 -184.5
t-202 -75.5zM1133 598q0 -143 59.5 -230t165.5 -87q57 0 91 32.5t34 83.5q0 59 -41.5 92t-114.5 33h-43v144h39q65 0 101 35.5t36 97.5q0 47 -31.5 75.5t-89.5 28.5q-83 0 -144.5 -78t-61.5 -227zM1350 -455l-101 -139l-461 322l101 143z" />
    <glyph glyph-name="asR" horiz-adv-x="1005" 
d="M819 240h-160l-577 370v148q81 84 247 189t330 153v74h-700v157h1081v-157h-221v-934zM242 690l428 -268h6q-2 14 -12 166l-304 196q-72 -52 -118 -94zM461 846l198 -127q0 132 5 227q-113 -44 -203 -100z" />
    <glyph glyph-name="asW" horiz-adv-x="1069" 
d="M518 291l-100 -137l-303 153l100 137zM1110 1174h-233v-830h-166l-582 283v184q271 177 569 305v58h-739v157h1151v-157zM707 532h10q-19 207 -19 386v12q-183 -85 -385 -207z" />
    <glyph glyph-name="bnDDx" horiz-adv-x="1277" 
d="M772 35q0 -50 -33 -82.5t-84 -32.5q-49 0 -81.5 32.5t-32.5 82.5q0 51 32 84t82 33q51 0 84 -33t33 -84zM1319 1176h-684v-195q0 -94 80 -94q51 0 136.5 44.5t176.5 119.5q62 -39 110 -121.5t48 -188.5q0 -197 -138 -321.5t-366 -124.5q-115 0 -214.5 37t-173 102
t-127 153t-82 191t-32.5 215l166 37q7 -271 136.5 -425t328.5 -154q149 0 242.5 82t93.5 202q0 64 -31 115q-152 -117 -291 -117q-108 0 -169.5 67t-61.5 173v203h-508v155h1360v-155z" />
    <glyph glyph-name="bnDDHx" horiz-adv-x="1036" 
d="M932 739q0 -177 -130.5 -303.5t-328.5 -126.5q-140 0 -223.5 77.5t-83.5 207.5v580h-207v157h1118v-157h-741v-558q0 -67 37.5 -101t107.5 -34q119 0 198 74t79 182q0 146 -123 146q-67 0 -109 -56l-86 146q32 35 85 58.5t114 23.5q129 0 211 -85.5t82 -230.5zM590 55
q0 -50 -33.5 -82t-85.5 -32q-48 0 -80.5 32.5t-32.5 81.5q0 52 32.5 85.5t80.5 33.5q53 0 86 -33t33 -86z" />
    <glyph glyph-name="bnYx" horiz-adv-x="1003" 
d="M844 299h-154l-610 272v154l262 180l-246 223v46h-137v157h1079v-157h-194v-875zM403 193q0 -48 -33 -80.5t-83 -32.5q-49 0 -82 32.5t-33 80.5q0 52 32.5 85t82.5 33q51 0 83.5 -33t32.5 -85zM236 659l450 -196h6q-14 178 -14 368v343h-408v-7l228 -206v-121z" />
    <glyph glyph-name="bnK_KA" horiz-adv-x="1413" 
d="M1454 1174h-606v-60q114 -4 203 -36.5t141.5 -84.5t79 -113t26.5 -126q0 -153 -92 -242l-149 92q67 60 67 150q0 87 -71 138.5t-205 55.5v-403q114 -4 203 -37t141.5 -85t79 -113t26.5 -126q0 -111 -57 -192.5t-151 -126.5l-103 137q137 67 137 182q0 89 -71 140t-205 55
v-500l96 -45l-127 -131l-702 348v185q140 140 334 225l-334 157v185q100 100 246 183.5t309 113.5v74h-711v157h1495v-157zM676 -37h8q-14 178 -14 375v20h-2q-196 -49 -379 -198zM676 543h8q-14 181 -14 375v10q-192 -47 -381 -201z" />
    <glyph glyph-name="bnNG_KA" horiz-adv-x="1452" 
d="M909 -55l-123 -129l-700 346v182q101 99 247 182t308 113v61q0 120 -52 186t-145 66q-67 0 -107 -39.5t-40 -107.5q0 -37 20 -73t58 -60l-129 -94q-129 86 -129 237q0 129 86 213t235 84q173 0 275 -117t102 -297v-45q116 -3 206.5 -35.5t143.5 -85.5t80 -115t27 -130
q0 -106 -58 -187.5t-153 -126.5l-103 138q138 67 138 182q0 89 -73 140t-208 54v-495zM1493 1174h-127q16 -47 16 -111q0 -122 -72 -198.5t-204 -76.5q-140 0 -234 100t-94 286h-819v157h1534v-157zM952 1174q0 -109 39 -171.5t113 -62.5q115 0 115 143q0 52 -13 91h-254z
M647 72h8q-14 178 -14 374v21q-195 -48 -381 -199z" />
    <glyph glyph-name="bnL_KA" horiz-adv-x="1804" 
d="M1118 70h8q-14 181 -14 374v23q-196 -51 -381 -201zM1845 1174h-553v-521q92 -3 168.5 -25.5t128 -57.5t87 -81t51.5 -95t16 -101q0 -112 -57.5 -194.5t-153.5 -127.5l-102 138q137 67 137 184q0 88 -71 139t-204 55v-499l94 -47l-124 -131l-705 350v182
q102 100 248 183.5t307 113.5v123q-14 42 -57 75t-105 33q-73 0 -117.5 -51t-44.5 -139v-74h-176v74q0 89 -46 135.5t-120 46.5q-71 0 -119 -56.5t-48 -152.5q0 -103 50.5 -160.5t135.5 -76.5l-64 -160q-143 31 -227 137t-84 260q0 171 101.5 275t244.5 104q110 0 174 -44.5
t88 -108.5h9q19 68 76 113.5t145 45.5q111 0 176 -65h8v201h-1153v157h1886v-157z" />
    <glyph glyph-name="bnSS_KA" horiz-adv-x="1333" 
d="M913 -18l-125 -132l-704 349v184q111 111 266 192q-89 52 -138.5 143.5t-49.5 213.5q0 146 74 242h-277v157h1415v-157h-432q76 -99 76 -242q0 -146 -78 -254q84 -17 148.5 -53.5t103.5 -84t58.5 -100.5t19.5 -108q0 -111 -57.5 -193t-153.5 -127l-101 138
q136 68 136 182q0 88 -71 139t-204 55v-499zM588 1178q-78 0 -139 -39l364 -326q27 59 27 119q0 104 -70.5 175t-181.5 71zM645 111h10q-16 203 -16 374v21q-190 -47 -381 -199zM588 678q84 0 143 41l-366 321q-23 -54 -23 -108q0 -111 69 -182.5t177 -71.5z" />
    <glyph glyph-name="bnS_KA" horiz-adv-x="1417" 
d="M1245 1057q0 -121 -57 -206t-164 -112q159 -35 241.5 -132.5t82.5 -213.5q0 -112 -57.5 -194t-153.5 -127l-103 137q137 67 137 184q0 88 -70.5 139.5t-203.5 55.5v-500l94 -47l-125 -129l-704 348v184q115 112 281.5 200.5t347.5 105.5q-130 49 -187 188
q-35 -98 -104 -153.5t-170 -55.5q-83 0 -157.5 42.5t-125.5 113.5l107 116q44 -53 84 -81.5t92 -28.5q43 0 76.5 25t53.5 69t31 89.5t17 99.5h-549v157h1499v-157h-225q12 -58 12 -117zM702 1174q5 -122 61 -203.5t155 -81.5q75 0 111 49.5t36 128.5q0 63 -12 107h-351z
M723 170h8q-14 181 -14 375v22q-198 -52 -381 -200z" />
    <glyph glyph-name="bnNG_KHA" horiz-adv-x="1550" 
d="M1452 -485l-113 -133l-958 286v164q510 16 510 264q0 75 -39 117q-75 -250 -301 -250q-128 0 -198 70.5t-70 183.5q0 24 8 78h174q-12 -46 -12 -72q0 -46 26.5 -75t77.5 -29q71 0 115 59.5t76 173.5q-75 -14 -140 -14q-161 0 -285 71.5t-194 191t-86 271.5l152 50
q21 -206 131.5 -317t283.5 -111q128 0 201.5 58t73.5 142q0 31 -15 66q-124 -90 -266 -90q-114 0 -181 61.5t-67 165.5v78q-141 71 -221 199h-176v157h274q43 -111 132 -190q5 99 66 165t185 66q119 0 191 -67t72 -166q0 -96 -74 -160t-197 -64q-37 0 -84 7v-27
q0 -76 88 -76q116 0 310 129q54 -37 88 -105t34 -151q0 -81 -38 -153t-109 -121q72 -58 116 -143.5t44 -180.5q0 -138 -86.5 -226.5t-247.5 -121.5v-8l461 -141l6 2q-12 206 -12 413v1524h180v-205h235v-157h-235v-1629zM610 1049q61 0 89 27t28 71q0 38 -26 66t-76 28
t-75.5 -31.5t-25.5 -85.5v-65q45 -10 86 -10z" />
    <glyph glyph-name="bnS_KHA" horiz-adv-x="1726" 
d="M1626 -164l-119 -145l-1001 323v162q260 5 399 74t139 203q0 64 -40 110q-38 -103 -120.5 -163t-187.5 -60q-128 0 -203 70t-75 194q0 46 10 98h184q-12 -38 -12 -90q0 -45 25.5 -74.5t79.5 -29.5q127 0 196 229h-4q-118 0 -200 61t-124 165q-80 -224 -282 -224
q-80 0 -153.5 40.5t-127.5 105.5l111 119q83 -113 170 -113q139 0 174 283h-506v157h1202q64 -137 64 -264q0 -106 -43 -183t-123 -114q70 -60 117 -142.5t47 -176.5q0 -147 -89.5 -237.5t-256.5 -123.5v-8l475 -162l10 2q-16 191 -16 436v1178h188v-205h233v-157h-233
v-1309zM676 1174q6 -126 62 -204.5t151 -78.5q72 0 109.5 49t37.5 125q0 58 -14 109h-346z" />
    <glyph glyph-name="bnG_GA" horiz-adv-x="1374" 
d="M764 737q0 -30 -6 -57q146 -38 235 -145v225q0 175 -103.5 288t-277.5 113q-103 0 -185 -49t-124 -119q70 31 158 31q127 0 215 -76t88 -211zM1182 -324h-189v445q0 176 -102 288.5t-275 112.5q-106 0 -187 -47.5t-126 -120.5q65 29 162 29q124 0 209.5 -74.5
t85.5 -208.5q0 -118 -71.5 -225t-194.5 -188l-144 129q219 140 219 290q0 67 -43 101.5t-116 34.5q-119 0 -215 -52l-132 132q47 147 185 254t313 120q8 19 8 45q0 67 -43 102.5t-116 35.5q-119 0 -215 -52l-132 136q57 157 204.5 265.5t334.5 108.5q277 0 420 -200h8
q-14 38 -26.5 126.5t-12.5 192.5v80h191v-205h235v-157h-235v-1498z" />
    <glyph glyph-name="bnNG_GA" horiz-adv-x="1460" 
d="M801 588v-31q69 29 163.5 67t159.5 64.5t97 42.5l125 -117q-93 -197 -93 -417v-306h-178v293q0 184 62 330l-371 -162q-45 -129 -133 -201.5t-207 -72.5q-127 0 -215.5 67t-122.5 154l143 96q64 -149 197 -149q98 0 150.5 94t52.5 246q0 63 -10.5 117t-32 98.5t-59 70
t-87.5 25.5q-64 0 -101.5 -37t-37.5 -102q0 -76 68 -121l-129 -94q-57 35 -89 94t-32 127q0 130 84 211.5t229 81.5q118 0 202.5 -64t124.5 -168t40 -237zM1501 1174h-170q15 -46 15 -111q0 -124 -73.5 -197t-201.5 -73q-142 0 -235 98t-93 283h-784v157h1542v-157z
M918 1174q0 -109 39.5 -171.5t113.5 -62.5q115 0 115 143q0 53 -15 91h-253z" />
    <glyph glyph-name="bnDD_GA" horiz-adv-x="2396" 
d="M2204 0h-191v754q0 172 -105 286.5t-278 114.5q-106 0 -186 -50t-123 -118q70 31 166 31q123 0 210 -77t87 -212q0 -122 -79.5 -235.5t-213.5 -200.5l-143 137q114 69 178.5 146.5t64.5 158.5q0 67 -44.5 104.5t-116.5 37.5q-94 0 -191 -41q43 -84 43 -187
q0 -222 -148 -359.5t-397 -137.5q-124 0 -231.5 39.5t-186.5 109.5t-137 165t-88.5 206t-34.5 233l181 41q4 -149 43.5 -267.5t107 -195t156 -117t192.5 -40.5q163 0 261 88t98 227q0 77 -29 121q-149 -125 -315 -125q-119 0 -185.5 73.5t-66.5 192.5v271h-543v157h1659
q85 0 159.5 -21t125.5 -55.5t83.5 -66t55.5 -64.5h8q-13 38 -25 127.5t-12 192.5v92h191v-205h231v-157h-231v-1174zM936 1174h-244v-263q0 -98 82 -98q52 0 146.5 44t183.5 122q52 124 145 207l-2 4q-131 -16 -311 -16z" />
    <glyph glyph-name="bnD_GA" horiz-adv-x="2142" 
d="M1950 0h-189v754q0 171 -106 286t-279 115q-105 0 -184.5 -49.5t-124.5 -118.5q70 31 166 31q123 0 210 -77t87 -212q0 -129 -89 -249.5t-239 -207.5l-143 140q131 71 204.5 154t73.5 169q0 67 -44.5 104.5t-116.5 37.5q-100 0 -187 -41q-55 -193 -55 -449v-387h-193v389
q0 213 62 393q-117 -76 -234.5 -196t-210.5 -254l-186 76v766h-213v157h1405q86 0 161 -21t126 -55.5t83 -66t54 -64.5h8q-13 38 -25 127.5t-12 192.5v92h191v-205h233v-157h-233v-1174zM362 616q80 102 220.5 216t263.5 163q48 105 141 189l-4 6q-131 -16 -299 -16h-322
v-558z" />
    <glyph glyph-name="bnDDx_GA" horiz-adv-x="2404" 
d="M2212 0h-189v754q0 171 -106 286t-277 115q-107 0 -186.5 -49.5t-124.5 -118.5q73 31 166 31q124 0 210.5 -77t86.5 -212q0 -122 -79 -236t-214 -200l-143 137q243 143 243 305q0 67 -44 104.5t-115 37.5q-98 0 -191 -41q43 -84 43 -187q0 -222 -147.5 -359.5
t-396.5 -137.5q-124 0 -231.5 39.5t-186.5 109.5t-137 165t-88.5 206t-34.5 233l180 41q4 -149 43.5 -267.5t106.5 -195t156 -117t192 -40.5q164 0 262 87.5t98 227.5q0 70 -29 121q-152 -125 -315 -125q-119 0 -186.5 74t-67.5 192v271h-551v157h1669q85 0 159.5 -21
t125.5 -55.5t83.5 -66t55.5 -64.5h8q-14 36 -26.5 126t-12.5 194v92h191v-205h233v-157h-233v-1174zM854 -162q0 -51 -34.5 -85t-88.5 -34q-52 0 -86.5 34t-34.5 85q0 55 34 90t87 35q54 0 88.5 -35t34.5 -90zM944 1174h-244v-263q0 -98 84 -98q51 0 145 44t185 122
q51 122 146 207l-5 4q-131 -16 -311 -16z" />
    <glyph glyph-name="bnL_GA" horiz-adv-x="1517" 
d="M1559 1174h-234v-1594h-190v344q0 173 -88 280t-254 107q-96 0 -171 -49t-112 -115q77 41 184 37q111 -6 181.5 -73t70.5 -183q1 -110 -76 -211t-194 -168l-129 138q107 57 158 115.5t51 123.5q-3 125 -154 129q-100 0 -203 -61l-120 125q24 70 70.5 134t110 114.5
t146.5 80.5t172 31q130 0 219 -45t138 -110v446q-16 43 -59.5 76t-106.5 33q-71 0 -116.5 -52t-45.5 -139v-45h-178v41q0 85 -46 135.5t-122 50.5t-124 -44.5t-48 -123.5q0 -137 143 -194l-98 -141q-100 31 -169 124t-69 216q0 148 102 244t251 96q111 0 176.5 -47
t91.5 -113h8q15 67 73 115.5t150 48.5q63 0 110 -22t66 -46h11v191h-1176v157h1600v-157z" />
    <glyph glyph-name="bnNG_GHA" horiz-adv-x="2420" 
d="M762 958q73 0 112 35.5t39 96.5q0 51 -33.5 86.5t-99.5 35.5q-60 0 -92.5 -40t-32.5 -115v-82q56 -17 107 -17zM2210 -29l-953 453q-36 -154 -170 -243t-342 -89q-123 0 -231.5 37.5t-188.5 103.5t-139 154.5t-90.5 191t-36.5 212.5l166 34q7 -137 52 -245.5t116.5 -177
t161.5 -104.5t190 -36q163 0 255 71.5t92 180.5q0 68 -27 109q-85 -58 -159.5 -86.5t-157.5 -28.5q-127 0 -197 68.5t-70 183.5v145q-154 94 -250 269h-272v157h385q46 -152 148 -254q3 125 79.5 199t206.5 74q59 0 111 -19h1573v-157h-234v-1020l96 -45zM1114 842
q128 -90 150 -256l100 61q43 26 83 45.5t62.5 28.5t24.5 10v8q-135 14 -213 83.5t-78 178.5q0 101 62 173h-246q16 -46 16 -93q0 -122 -86.5 -190t-226.5 -68q-43 0 -107 11v-62q0 -51 23 -75.5t74 -24.5q133 0 362 170zM2050 236l8 2q-20 185 -20 372v564h-522
q-84 -65 -84 -164q0 -73 53 -117.5t147 -44.5q91 0 193 61l76 -149l-426 -252z" />
    <glyph glyph-name="bnD_GHA" horiz-adv-x="2142" 
d="M2183 1174h-233v-1020l96 -45l-115 -138l-940 441v176l92 57q34 20 66.5 37t52 25t35.5 14.5t18 7.5v10q-100 10 -168.5 51t-97.5 107q-69 -217 -69 -465v-266h-187v264q0 103 17 211t49 182q-200 -140 -434 -424l-187 105v670h-219v157h2224v-157zM369 670
q94 105 227 211t248 155l125 -69q-2 10 -2 34q0 101 59 173h-657v-504zM1774 236l6 2q-19 176 -19 372v564h-522q-82 -66 -82 -164q0 -73 53 -117.5t144 -44.5q90 0 192 61l78 -149l-428 -252z" />
    <glyph glyph-name="bnL_GHA" horiz-adv-x="2160" 
d="M2064 76l-114 -137l-955 446v160l109 67q34 21 66.5 38t51.5 25.5t35.5 15t18.5 7.5v9q-130 12 -205 75h-2q-47 47 -123 47q-74 0 -116 -51t-42 -141v-74h-180v74q0 89 -44.5 136.5t-121.5 47.5q-75 0 -122.5 -59t-47.5 -156q0 -119 63.5 -180t170.5 -61q74 0 125 22
l24 -170q-67 -24 -151 -24q-193 0 -307.5 115t-114.5 300q0 175 99 281t249 106q58 0 106 -16t79 -42.5t50 -53.5t29 -56h8q15 70 71.5 122t146.5 52q27 0 67 -8q8 101 78 181h-1106v157h2243v-157h-234v-1053zM1792 201l6 2q-18 169 -18 375v596h-500q-46 -36 -75 -88.5
t-29 -110.5q0 -73 52 -116.5t144 -43.5q89 0 193 62l77 -152l-428 -250z" />
    <glyph glyph-name="bnC_CA" horiz-adv-x="1796" 
d="M1700 512q0 -93 -40.5 -186.5t-107.5 -166.5t-162 -119t-196 -46q-141 0 -218 74t-77 202v275q-41 -142 -161.5 -237t-272.5 -95q-144 0 -223.5 74.5t-79.5 201.5v685h-203v157h1878v-157h-762v-41q0 -80 47 -132t148 -90l141 -51q145 -54 217 -135t72 -213zM1083 272
q0 -51 29.5 -79.5t87.5 -28.5q49 0 104 29.5t101.5 76.5t77 112.5t30.5 131.5q0 63 -36.5 106.5t-128.5 75.5l-109 39q-106 40 -158 101h-8q10 -70 10 -308v-256zM346 496q0 -113 119 -113q101 0 184.5 83.5t83.5 197.5q0 59 -36.5 100t-125.5 72l-73 26q-102 36 -158 96h-8
q14 -49 14 -307v-155zM635 997q215 -76 264 -225v402h-561q17 -46 62.5 -78t131.5 -62z" />
    <glyph glyph-name="bnNY_CA" horiz-adv-x="1615" 
d="M1042 53l-122 -127l-758 350v205q284 194 536 320q-110 264 -292 264q-73 0 -112.5 -37t-39.5 -96q0 -63 47 -117l-151 -61q-72 79 -72 188q0 127 84 208t229 81q125 0 222.5 -67t152.5 -177l8 2q-16 116 -16 307v35h184v-18q0 -107 -14 -195l6 -2q92 119 266 119
q138 0 220.5 -80.5t82.5 -204.5q0 -84 -41 -145t-112 -88v-8q78 -25 128 -87.5t50 -156.5q0 -125 -81.5 -213t-221.5 -88q-184 0 -283 123v-187zM942 711q0 -168 69 -273.5t189 -105.5q70 0 109 40.5t39 102.5q0 70 -47 110t-134 40h-49v161h45q76 0 117 42t41 114
q0 58 -37.5 93.5t-105.5 35.5q-98 0 -167 -93.5t-69 -266.5zM770 180h10q-16 210 -16 385v80q-225 -124 -434 -258z" />
    <glyph glyph-name="bnSH_CA" horiz-adv-x="1949" 
d="M1237 272q0 -51 29.5 -79.5t87.5 -28.5q49 0 104 29.5t101.5 76.5t77 112.5t30.5 131.5q0 63 -37 106.5t-129 75.5l-108 39q-106 40 -158 101h-8q10 -70 10 -308v-256zM1853 512q0 -125 -67 -244t-185 -196.5t-253 -77.5q-141 0 -218 74t-77 202v904h-238
q-98 0 -163.5 -69t-65.5 -183q0 -101 67.5 -162.5t167.5 -61.5q52 0 103 21v-174q-60 -15 -109 -15q-100 0 -185.5 42.5t-140.5 117.5q-52 -76 -134 -119t-183 -43q-73 0 -117 19v170q43 -19 111 -19q104 0 168.5 64t64.5 162q0 120 -66.5 185t-176.5 65h-197v157h201
q106 0 193.5 -41t140.5 -114q55 72 137 113.5t178 41.5h1182v-157h-764v-41q0 -80 47.5 -132t148.5 -90l140 -51q146 -54 218 -135t72 -213z" />
    <glyph glyph-name="bnC_CHA" horiz-adv-x="1970" 
d="M1491 821q0 -126 -95 -219.5t-239 -93.5q-95 0 -159 38t-89 105q-11 -170 -138 -292.5t-306 -122.5q-144 0 -223.5 74.5t-79.5 201.5v662h-203v157h2052v-157h-950q13 -31 55.5 -53t115 -46t111.5 -43q61 17 127 17q164 0 274.5 -102.5t110.5 -268.5q0 -185 -133 -296
t-389 -130v-8q96 -24 273 -115l295 -147l-121 -138q-463 243 -594.5 301.5t-257.5 75.5v164h225q258 0 387 78t129 217q0 87 -51 141t-135 62q8 -24 8 -62zM346 516q0 -113 121 -113q99 0 177.5 80.5t78.5 192.5q0 60 -34 99.5t-122 70.5l-65 22q-113 40 -160 101h-8
q12 -84 12 -307v-146zM1071 748q0 -84 86 -84q69 0 116.5 49t47.5 112q0 36 -29 60.5t-66 35t-83.5 28t-71.5 38.5v-239zM629 1008q215 -76 264 -222v388h-549q18 -42 63 -73t125 -59z" />
    <glyph glyph-name="bnNY_CHA" horiz-adv-x="1462" 
d="M1300 -414l-96 -143q-442 169 -641 231.5t-342 65.5v166h264q83 0 149.5 9t120.5 28.5t83.5 54t29.5 82.5q0 65 -47 115q-127 -123 -321 -123q-170 0 -282 87t-112 244q0 82 31.5 148t82.5 109t112 78.5t122 65t112 58.5t82.5 68.5t31.5 87.5q0 72 -54 117t-143 45
q-83 0 -132.5 -42t-49.5 -114q0 -77 61 -123l-133 -94q-52 38 -79 96.5t-27 122.5q0 142 100 229.5t258 87.5q101 0 179.5 -37t125.5 -102q97 135 271 135q128 0 207 -70t79 -190q0 -65 -32 -117.5t-92 -78.5v-9q68 -23 106.5 -78t38.5 -128q0 -114 -75.5 -189.5
t-209.5 -75.5q-153 0 -248 94t-124 253q-26 -20 -115 -70q26 -66 65.5 -122.5t81 -95t86.5 -74t84.5 -67.5t71 -67t50 -81t18.5 -101q0 -121 -91.5 -193.5t-250.5 -91.5v-8q13 -1 38 -4t111.5 -26t183.5 -60zM496 242q108 0 188 59q-74 60 -131.5 130t-99.5 179
q-79 -42 -121.5 -90t-42.5 -117q0 -76 55.5 -118.5t151.5 -42.5zM838 874q0 -146 62 -228.5t165 -82.5q58 0 91.5 31t33.5 84q0 119 -162 119h-41v151h41q72 0 106.5 33t34.5 90q0 52 -32.5 80.5t-89.5 28.5q-88 0 -148.5 -81t-60.5 -225z" />
    <glyph glyph-name="bnSH_CHA" horiz-adv-x="2086" 
d="M1188 748q0 -84 88 -84q70 0 116 48.5t46 112.5q0 36 -29 60.5t-66 35t-83.5 28t-71.5 38.5v-239zM1608 821q0 -126 -95 -219.5t-239 -93.5q-125 0 -194.5 63.5t-69.5 169.5v433h-211q-98 0 -164 -69t-66 -183q0 -101 68 -162.5t168 -61.5q51 0 102 21v-174
q-60 -15 -108 -15q-100 0 -185.5 42.5t-140.5 117.5q-52 -76 -134 -119t-183 -43q-66 0 -117 19v170q43 -19 111 -19q104 0 168.5 64t64.5 162q0 120 -67 185t-177 65h-178v157h182q107 0 194 -41t140 -114q55 72 137.5 113.5t178.5 41.5h1335v-157h-950q13 -31 55.5 -53
t115 -46t111.5 -43q61 17 127 17q164 0 274.5 -102.5t110.5 -268.5q0 -186 -131.5 -296t-390.5 -128v-8q86 -22 272 -117l301 -152l-127 -135q-339 180 -486 251.5t-222 96t-174 35.5v160h256q258 0 387 78t129 217q0 90 -50.5 142t-136.5 61q9 -27 9 -62z" />
    <glyph glyph-name="bnNY_JA" horiz-adv-x="1613" 
d="M1085 117q0 -153 -96.5 -246.5t-286.5 -93.5q-136 0 -253 59t-199 159.5t-132.5 234t-60.5 282.5l176 57q8 -171 66.5 -310.5t163.5 -223.5t237 -84q99 0 152 46.5t53 121.5q0 50 -22 86l-158 22q-124 17 -193 83.5t-69 168.5q0 59 23 114.5t57.5 96.5t75 84.5t75 79
t57.5 78.5t23 84q0 75 -53 120.5t-143 45.5q-80 0 -129.5 -44t-49.5 -118q0 -81 64 -133l-135 -96q-51 40 -80 100t-29 127q0 153 101 239t258 86q208 0 303 -141q99 139 284 139q128 0 204.5 -73t76.5 -181q0 -76 -37 -130t-100 -76v-9q69 -24 114 -78.5t45 -136.5
q0 -67 -28 -125l67 -55q-88 -174 -88 -401v-332h-178v342q0 177 51 320q-56 -17 -108 -17q-158 0 -252 91.5t-125 246.5q-12 -14 -44 -48.5t-45.5 -51t-33 -43.5t-27.5 -50t-8 -47q0 -88 135 -106l201 -27q100 -90 100 -237zM934 874q0 -149 60.5 -236t168.5 -87q63 0 97 32
t34 89q0 61 -41.5 92t-117.5 31h-45v147h40q68 0 105 32.5t37 94.5q0 52 -34 82.5t-93 30.5q-90 0 -150.5 -78.5t-60.5 -229.5z" />
    <glyph glyph-name="bnJ_JA" horiz-adv-x="2451" 
d="M1145 451q0 -76 -31 -146q64 -123 163.5 -194.5t221.5 -71.5q112 0 173 55t61 133q0 62 -31 101l-180 16q-118 9 -183 66.5t-65 156.5q0 127 127 254q-170 5 -296.5 66.5t-178.5 169.5q-93 -56 -160.5 -126t-67.5 -128q0 -73 103 -82l239 -23q47 -44 76 -110.5t29 -136.5
zM2261 -195h-178v324q0 129 29 235t61 168q-189 11 -317.5 71.5t-208.5 201.5q-172 -133 -172 -219q0 -71 104 -80l238 -21q47 -43 75.5 -112.5t28.5 -141.5q0 -153 -111.5 -259.5t-306.5 -106.5q-160 0 -293 78t-223 215q-112 -74 -262 -74q-180 0 -327.5 101.5
t-232.5 268.5t-99 367l178 58q7 -170 68 -310.5t169 -224.5t242 -84q112 0 171.5 54t59.5 132q0 62 -28 97l-178 14q-117 11 -181.5 70t-64.5 159q0 107 86 209.5t215 178.5h-844v157h2533v-157h-1429q41 -111 150.5 -156t304.5 -45h241q24 -51 44.5 -85.5t57 -74
t80.5 -62.5t112.5 -39t154.5 -16h88l76 -137q-111 -203 -111 -442v-312z" />
    <glyph glyph-name="bnN_JA" horiz-adv-x="1841" 
d="M1888 1174h-991v-138q113 -97 307 -156t404 -59h86l78 -137q-107 -197 -107 -479v-389h-180v399q0 148 28 267.5t58 179.5q-180 0 -361.5 45t-312.5 131v-240q0 -52 28.5 -74.5t80.5 -27.5l208 -21q47 -47 77 -114t30 -136q0 -166 -112.5 -271.5t-325.5 -105.5
q-117 0 -224.5 41.5t-191 114t-145.5 165.5t-99 200l154 98q61 -198 193 -320t311 -122q126 0 187.5 54.5t61.5 141.5q0 61 -28 96l-148 15q-192 19 -235 157q-27 63 -49 108.5t-54 96.5t-64 82.5t-73.5 52.5t-87.5 21q-69 0 -107 -37t-38 -96q0 -62 51 -129l-143 -70
q-84 84 -84 209q0 127 84.5 208t228.5 81q217 0 340 -215l8 2q-20 97 -20 317v54h-752v157h1929v-157z" />
    <glyph glyph-name="bnB_JA" horiz-adv-x="1759" 
d="M633 592v352q-86 -35 -183.5 -92t-162.5 -107zM1800 1174h-985v-136q113 -99 306 -158t405 -59h86l78 -137q-107 -203 -107 -479v-389h-178v399q0 148 27.5 268t56.5 179q-180 0 -361.5 45t-312.5 131v-240q0 -52 28.5 -74.5t80.5 -27.5l211 -21q46 -46 75 -113t29 -137
q0 -166 -112.5 -271.5t-325.5 -105.5q-114 0 -218.5 39t-186.5 106.5t-144.5 157t-99.5 193.5l151 98q61 -188 191 -302.5t305 -114.5q126 0 189 54.5t63 141.5q0 57 -31 96l-143 15q-66 6 -113 26l-666 285v166q81 75 226.5 165.5t308.5 145.5v54h-674v157h1841v-157z" />
    <glyph glyph-name="bnNY_JHA" horiz-adv-x="1761" 
d="M1356 -14h8q-12 140 -12 374v5q-82 0 -160.5 41t-110.5 86q13 -63 13 -224v-147zM1192 -352l-121 -127l-711 348v190q74 60 200.5 131t254.5 123q-81 33 -262 52q-252 29 -371 120t-119 250q0 121 70 223l162 -61q-51 -66 -51 -158q0 -89 77 -135.5t240 -64.5
q168 -19 244.5 -48t126.5 -79h10q-31 163 -31 383v258q0 63 -26 94t-86 31q-111 0 -183.5 -77.5t-72.5 -180.5q0 -53 28 -82t80 -29q64 0 117 41l59 -131q-75 -62 -188 -62q-123 0 -196.5 72t-73.5 189q0 109 54 205.5t157 157t231 60.5q97 0 156.5 -43t83.5 -112
q33 57 106.5 106t177.5 49q125 0 204 -72.5t79 -185.5q0 -76 -37 -132.5t-102 -84.5v-8q70 -20 115.5 -77t45.5 -144q0 -73 -31 -132.5t-89 -94.5v-543l-158 -66l-268 133v-239zM1087 860q0 -151 65 -240.5t179 -89.5q65 0 101 35.5t36 89.5q0 60 -42 94.5t-117 34.5h-52
v146h41q69 0 108.5 36.5t39.5 98.5q0 51 -34.5 82t-98.5 31q-41 0 -79.5 -18.5t-72 -55.5t-54 -100t-20.5 -144zM924 -223h8q-14 181 -14 352v45q-182 -75 -379 -203z" />
    <glyph glyph-name="bnJ_JHA" horiz-adv-x="2117" 
d="M1765 -117q-14 164 -14 385v906h-721q12 -55 40 -104t76 -93.5t125.5 -71t174.5 -26.5h49l76 -138q-101 -184 -101 -442v-268l287 -148h8zM1569 -455l-123 -127l-709 351v190q96 76 255 160.5t298 126.5v65q0 130 26 239.5t54 166.5q-184 10 -315 112t-166 234
q-50 -32 -76 -50t-64 -49.5t-55.5 -61t-17.5 -60.5q0 -71 121 -80l219 -21q49 -44 78.5 -109.5t29.5 -135.5q0 -152 -108.5 -253.5t-304.5 -101.5q-136 0 -255 58.5t-203.5 158.5t-137.5 233t-64 281l178 58q7 -170 68.5 -309.5t169.5 -222.5t242 -83q113 0 169 47.5
t56 124.5q0 61 -29 97l-178 18q-248 23 -248 215q0 59 24.5 112.5t69.5 98.5t90 78t103 68h-807v157h2200v-157h-234v-1414l-164 -65l-291 147v-250zM1296 -324h9q-15 194 -15 353v43q-198 -82 -375 -203z" />
    <glyph glyph-name="bnC_NYA" horiz-adv-x="2109" 
d="M1292 70h8q-28 142 -28 376v259q0 62 -26.5 92t-86.5 30q-113 0 -195.5 -76.5t-82.5 -177.5q0 -51 28.5 -79.5t81.5 -28.5q69 0 115 41l61 -131q-67 -58 -192 -58q-131 0 -203 78q-54 -63 -125 -104q59 -90 281 -113q170 -17 246 -40.5t118 -67.5zM332 508
q0 -105 110 -105q63 0 126 36.5t106 105t43 147.5q0 60 -34.5 99.5t-121.5 70.5l-86 29q-97 37 -147 94h-9q13 -78 13 -289v-188zM1440 506q0 -151 64.5 -241.5t178.5 -90.5q65 0 101.5 36.5t36.5 90.5q0 61 -42.5 95t-117.5 34h-51v145h41q68 0 107.5 37t39.5 99
q0 51 -34.5 82.5t-98.5 31.5q-41 0 -79.5 -19t-71.5 -55.5t-53.5 -100t-20.5 -144.5zM2150 1174h-1818q38 -72 172 -121l112 -41q168 -60 228 -156q132 129 327 129q184 0 236 -147q32 55 105.5 102t175.5 47q125 0 203.5 -72.5t78.5 -185.5q0 -76 -39 -133t-104 -84v-8
q71 -21 118.5 -77.5t47.5 -143.5q0 -117 -78.5 -195t-210.5 -78q-82 0 -159 41.5t-111 87.5q12 -53 12 -211v-121h-168q0 110 -83 153t-290 63q-192 19 -295 72t-149 138h-25q-129 0 -201.5 73.5t-72.5 193.5v674h-203v157h2191v-157z" />
    <glyph glyph-name="bnK_TTA" horiz-adv-x="1382" 
d="M657 559h11q-17 219 -17 375v2q-106 -22 -203 -72t-169 -114zM1204 1407q0 -35 -6 -76h225v-157h-592v-64q221 -9 340 -106t119 -236q0 -123 -60.5 -204.5t-158.5 -125.5l-102 140q64 23 104.5 70t40.5 120q0 169 -283 182v-530q-60 -13 -112 -31t-104 -47.5t-88.5 -66
t-59.5 -88t-23 -111.5q0 -106 80 -167t211 -61q123 0 190.5 48t67.5 120q0 50 -32 80.5t-82 30.5q-63 0 -109 -39l-86 148q78 67 199 67q123 0 208 -78.5t85 -212.5q0 -155 -123 -247.5t-318 -92.5q-218 0 -347.5 113t-129.5 289q0 253 229 387l-391 196v174
q100 97 243.5 170.5t311.5 98.5v74h-692v157h1055q6 38 6 66q0 84 -52.5 119.5t-168.5 35.5h-299q-103 0 -178 25t-116 68t-60 93t-19 109q0 22 4 58l180 32q-6 -60 -6 -61q0 -158 207 -158h319q163 0 268 -81t105 -230z" />
    <glyph glyph-name="bnTT_TTA" horiz-adv-x="1320" 
d="M1116 1407q0 -35 -6 -76h252v-157h-862v-646q0 -69 40.5 -106t114.5 -37q123 0 210 86.5t87 210.5q0 66 -32.5 104.5t-96.5 38.5q-34 0 -63.5 -15.5t-46.5 -41.5l-95 150q36 36 91 59.5t120 23.5q135 0 222.5 -86t87.5 -231q0 -110 -45 -205q104 -110 104 -278
q0 -204 -134.5 -325.5t-358.5 -121.5q-227 0 -406 138t-270 370l143 115q75 -206 212 -327.5t321 -121.5q141 0 223 75t82 200q0 72 -29 125q-133 -117 -324 -117q-160 0 -251 82.5t-91 220.5v660h-356v157h965q6 38 6 66q0 84 -52.5 119.5t-168.5 35.5h-293q-103 0 -178 25
t-116 68t-60 93t-19 109q0 40 4 58l180 32q-6 -60 -6 -61q0 -71 44.5 -114.5t160.5 -43.5h315q164 0 269.5 -81t105.5 -230z" />
    <glyph glyph-name="bnNN_TTA" horiz-adv-x="1794" 
d="M1647 1407q0 -29 -7 -76h195v-157h-793v-758q0 -64 35.5 -103t104.5 -39q125 0 220 98.5t95 227.5q0 73 -33.5 117.5t-97.5 44.5q-32 0 -63 -16t-48 -41l-94 147q35 37 90.5 61.5t120.5 24.5q136 0 222.5 -91t86.5 -245q0 -91 -38.5 -181.5t-104 -162t-162.5 -116
t-205 -44.5q-146 0 -229.5 84.5t-83.5 218.5v242q0 111 -16.5 200.5t-53.5 163t-103.5 114t-158.5 40.5q-126 0 -196 -70.5t-70 -183.5q0 -103 62 -161t161 -58q88 0 156 53l61 -166q-87 -61 -221 -61q-186 0 -296.5 112t-110.5 281q0 187 117 305.5t323 118.5
q117 0 203.5 -44.5t134.5 -115.5h8v160h598q6 38 6 66q0 84 -52.5 119.5t-168.5 35.5h-299q-103 0 -178 25t-116 68t-60 93t-19 109q0 22 4 58l181 32q-6 -60 -6 -61q0 -158 206 -158h320q163 0 268 -81t105 -230z" />
    <glyph glyph-name="bnN_TTA" horiz-adv-x="1693" 
d="M1544 1407q0 -35 -6 -76h197v-157h-795v-760q0 -65 35 -103.5t104 -38.5q125 0 220.5 98.5t95.5 227.5q0 73 -33 117.5t-96 44.5q-69 0 -113 -58l-94 148q35 37 91 61.5t120 24.5q136 0 222.5 -91t86.5 -245q0 -91 -38.5 -181.5t-104 -162t-162.5 -116t-205 -44.5
q-145 0 -229 83.5t-84 211.5q-15 79 -41.5 150t-66.5 135t-100 101.5t-132 37.5q-73 0 -112.5 -37t-39.5 -96q0 -63 47 -117l-151 -61q-72 79 -72 188q0 128 84.5 208.5t230.5 80.5q241 0 359 -215h8q-18 140 -18 356v52h-793v157h1395q6 38 6 66q0 84 -52.5 119.5
t-168.5 35.5h-299q-103 0 -178 25t-116 68t-60 93t-19 109q0 22 4 58l180 32q-6 -60 -6 -61q0 -158 207 -158h319q163 0 268 -81t105 -230z" />
    <glyph glyph-name="bnL_TTA" horiz-adv-x="2074" 
d="M1929 1407q0 -35 -6 -76h193v-157h-791v-758q0 -65 35 -103.5t104 -38.5q124 0 219 98.5t95 227.5q0 74 -32.5 118t-96.5 44q-33 0 -63.5 -16t-49.5 -41l-92 147q33 37 89.5 61.5t121.5 24.5q135 0 222 -91t87 -245q0 -123 -64 -238t-183.5 -190.5t-264.5 -75.5
t-228 84.5t-83 218.5v306q-16 43 -59.5 75.5t-106.5 32.5q-72 0 -117 -50.5t-45 -139.5v-76h-178v74q0 93 -45.5 139.5t-120.5 46.5q-72 0 -122 -55t-50 -152q0 -118 71 -185t179 -67q81 0 141 35l33 -168q-84 -35 -178 -35q-191 0 -314 118t-123 300q0 173 103 277t248 104
q110 0 176 -45.5t90 -108.5h8q19 68 76.5 114t146.5 46q63 0 110 -21.5t66 -45.5h11v254h-1182v157h1778q8 33 8 66q0 83 -53 119t-168 36h-299q-103 0 -178 25t-116 68t-60 93t-19 109q0 40 4 58l180 32q-6 -60 -6 -61q0 -71 44.5 -114.5t160.5 -43.5h319q164 0 269.5 -81
t105.5 -230z" />
    <glyph glyph-name="bnSS_TTA" horiz-adv-x="1153" 
d="M1016 1407q0 -35 -6 -76h184v-157h-264q76 -98 76 -242q0 -157 -87.5 -261t-232.5 -136q-159 -58 -219 -93q-146 -84 -155 -223q-1 -10 -1 -20q0 -111 80.5 -172.5t210.5 -61.5q121 0 188.5 49.5t67.5 122.5q0 50 -31.5 80.5t-81.5 30.5q-62 0 -108 -39l-86 147
q33 30 85 49t112 19q124 0 209 -78.5t85 -212.5q0 -155 -123 -249.5t-317 -94.5q-221 0 -349 112t-128 294q0 249 227 380q-95 48 -148.5 140t-53.5 217q0 144 73 242h-264v157h866q6 38 6 66q0 84 -52.5 119.5t-168.5 35.5h-227q-103 0 -178 25t-116 68t-60 93t-19 109
q0 40 4 58l181 32q-7 -35 -7 -61q0 -71 44.5 -114.5t160.5 -43.5h250q163 0 268 -81t105 -230zM575 688q84 0 142 37l-363 319q-24 -52 -24 -112q0 -108 68 -176t177 -68zM575 1180q-78 0 -139 -39l363 -326q26 51 26 117q0 105 -70 176.5t-180 71.5z" />
    <glyph glyph-name="bnP_TTA" horiz-adv-x="1921" 
d="M295 1044q115 -13 200.5 -82.5t118.5 -191.5l301 201q-100 205 -321 205q-102 0 -178.5 -41t-120.5 -91zM1772 1407q0 -29 -7 -76h197v-157h-795v-777q0 -64 35.5 -102.5t104.5 -38.5q124 0 218.5 98.5t94.5 227.5q0 74 -32.5 117.5t-96.5 43.5q-33 0 -63.5 -16
t-49.5 -41l-92 148q33 37 89.5 61.5t121.5 24.5q135 0 222 -91t87 -245q0 -123 -64 -238t-183.5 -190.5t-264.5 -75.5t-228 84.5t-83 218.5v266q0 87 -14 158l-598 -401l-92 141l192 129q-39 165 -186 211q-51 22 -119 24l-94 150q34 52 82.5 99t112.5 88.5t146.5 66
t170.5 24.5q292 0 426 -229l6 2q-9 21 -19 79t-10 116v24h594q6 38 6 66q0 84 -52.5 119.5t-168.5 35.5h-299q-103 0 -178 25t-116 68t-60 93t-19 109q0 40 4 58l181 32q0 -5 -3.5 -27t-3.5 -34q0 -71 44.5 -114.5t162.5 -43.5h318q164 0 269.5 -81t105.5 -230z" />
    <glyph glyph-name="bnPH_TTA" horiz-adv-x="1660" 
d="M1526 1407q0 -35 -6 -76h182v-157h-1380v-9l247 -221v-145l-270 -189l471 -235h8q-18 200 -18 401v232q121 57 280 57q87 0 161 -20.5t132 -61t91.5 -108t33.5 -154.5q0 -242 -256 -346l-98 149q174 61 174 193q0 82 -59 129t-150 47q-75 0 -121 -14v-961
q0 -75 39 -116.5t117 -41.5q120 0 208.5 71.5t88.5 182.5q0 62 -35 100t-94 38q-69 0 -113 -58l-92 148q33 36 89 61t120 25q135 0 223 -84t88 -230q0 -182 -137 -306t-348 -124q-160 0 -250 86t-90 236v284l-658 326v166l285 197l-268 243v52h-162v157h1376q6 38 6 66
q0 84 -52.5 119.5t-168.5 35.5h-297q-103 0 -178 25t-116.5 68t-60.5 93t-19 109q0 22 4 58l182 32q-6 -30 -6 -61q0 -71 44.5 -114.5t160.5 -43.5h319q164 0 268.5 -80.5t104.5 -230.5z" />
    <glyph glyph-name="bnS_TTA" horiz-adv-x="1384" 
d="M702 1174q3 -122 58.5 -203.5t154.5 -81.5q77 0 113.5 49t36.5 129q0 56 -14 107h-349zM1231 1407q0 -35 -6 -76h200v-157h-194q12 -58 12 -117q0 -116 -52 -199t-149 -115q-28 -10 -80.5 -28t-88 -30t-84.5 -32.5t-82.5 -39t-70 -47t-58 -59t-36 -71.5t-14.5 -88
q0 -108 81 -168.5t210 -60.5q121 0 188.5 48t67.5 122q0 49 -31.5 78.5t-82.5 29.5q-68 0 -107 -39l-88 148q78 67 199 67q125 0 211 -77t86 -211q0 -155 -125 -249.5t-318 -94.5q-220 0 -351.5 114.5t-131.5 290.5q0 73 22.5 138t58.5 112t86.5 86.5t100 65t105.5 45.5
q-68 54 -107 145q-83 -203 -274 -203q-83 0 -157.5 41.5t-125.5 112.5l107 117q43 -52 84 -80.5t92 -28.5q44 0 77.5 24.5t53.5 66.5t31 87.5t16 98.5h-547v157h1079q6 38 6 66q0 84 -52.5 119.5t-168.5 35.5h-297q-103 0 -178 25t-115.5 68t-59.5 93t-19 109q0 40 4 58
l180 32q-6 -30 -6 -61q0 -71 44.5 -114.5t160.5 -43.5h319q164 0 269.5 -81t105.5 -230z" />
    <glyph glyph-name="bnNN_TTHA" horiz-adv-x="1718" 
d="M1630 459q0 -192 -126 -322.5t-335 -130.5q-229 0 -366 150t-137 383q68 19 118 39q0 58 -1.5 104t-9 111t-19.5 114t-35.5 101.5t-55.5 87t-80.5 56.5t-109.5 22q-104 0 -162.5 -62t-58.5 -162q0 -87 54 -140.5t145 -53.5q84 0 137 35l45 -154q-78 -45 -193 -45
q-169 0 -268.5 99.5t-99.5 260.5q0 168 104 278.5t295 110.5q227 0 358.5 -168t131.5 -462v-17q75 87 75 240v178q-91 95 -150.5 176t-84 143t-32 100t-7.5 81q0 133 85 221t218 96h57l37 -168q-10 2 -31 2q-83 0 -130.5 -43.5t-47.5 -117.5q0 -119 127 -271h682v-157h-561
q110 -115 178.5 -196t132 -173.5t92.5 -176.5t29 -169zM872 440q4 -47 24 -92t55.5 -84.5t93.5 -63.5t129 -24q122 0 197 81t75 200q0 64 -20 126.5t-61.5 126t-77 108.5t-93.5 110q-4 -86 -14 -123q-32 -279 -308 -365z" />
    <glyph glyph-name="bnN_TTHA" horiz-adv-x="1515" 
d="M1425 459q0 -193 -125 -323t-335 -130q-148 0 -265.5 69t-182 190t-64.5 272q159 43 243 102q-131 223 -305 223q-72 0 -110.5 -35t-38.5 -94q0 -68 45 -119l-154 -59q-67 74 -67 186q0 128 82.5 208.5t226.5 80.5q129 0 239 -64.5t191 -189.5q26 65 26 158v178l-53 62
h-819v157h705q-60 85 -82.5 150.5t-22.5 130.5q0 149 99.5 236.5t259.5 82.5l36 -170q-91 5 -148.5 -36.5t-57.5 -122.5q0 -112 124 -271h684v-157h-555q91 -101 142 -161t113 -142t93.5 -142t53.5 -131t22 -139zM670 440q7 -100 87 -182t212 -82q123 0 197.5 81t74.5 200
q0 64 -20 126.5t-61 125t-77.5 108t-93.5 109.5q0 -74 -4 -99q-25 -295 -315 -387z" />
    <glyph glyph-name="bnSS_TTHA" horiz-adv-x="1417" 
d="M1323 483q0 -191 -125.5 -320.5t-335.5 -129.5q-214 0 -354.5 133.5t-159.5 365.5q-129 36 -204.5 139t-75.5 253q0 155 73 250h-182v157h610q-106 128 -106 281q0 147 98.5 236.5t257.5 82.5l37 -170q-95 10 -152 -33.5t-57 -125.5q0 -119 127 -271h684v-157h-563
q69 -73 106 -113t90.5 -100.5t81.5 -99.5t61.5 -91.5t49.5 -95t27.5 -92t11.5 -99.5zM250 934q0 -114 66.5 -186t172.5 -72q80 0 138 39l-359 313q-18 -44 -18 -94zM549 516q16 -139 98 -226t219 -87q123 0 198 80.5t75 197.5q0 41 -7.5 79.5t-26 77t-34.5 67.5t-48.5 69.5
t-51.5 62.5t-58 66l-24 27q0 -85 -24.5 -155.5t-60.5 -114t-84.5 -75.5t-89 -47t-81.5 -22zM340 1133l369 -324q26 60 26 125q0 106 -69.5 179t-176.5 73q-83 0 -149 -53z" />
    <glyph glyph-name="bnDD_DDA" horiz-adv-x="2371" 
d="M2413 1174h-748v-324q0 -50 20.5 -74t65.5 -24q51 0 150 47t194 131q67 -45 118.5 -137t51.5 -201q0 -220 -149.5 -360t-399.5 -140q-173 0 -309 74.5t-227 206.5q-70 -86 -182.5 -133t-256.5 -47q-155 0 -281.5 59.5t-209.5 162t-130 237t-52 288.5l180 39
q4 -148 43 -265t105.5 -192.5t154.5 -115t192 -39.5q163 0 261 85t98 224q0 73 -29 117q-144 -121 -315 -121q-119 0 -185.5 72.5t-66.5 193.5v236h-547v157h2454v-157zM1718 266q163 0 263 88.5t100 227.5q0 69 -29 120q-69 -57 -154 -90.5t-165 -33.5q-123 0 -190.5 72
t-67.5 192v332h-781v-228q0 -100 84 -100q53 0 148.5 44.5t191.5 127.5q70 -47 119 -136t49 -198q0 -51 -10 -109q62 -149 179 -229t263 -80z" />
    <glyph glyph-name="bnNN_DDA" horiz-adv-x="1605" 
d="M1425 938q0 -165 -102 -287q62 -50 99.5 -125.5t37.5 -167.5q0 -143 -76.5 -247t-200.5 -154.5t-278 -50.5q-279 0 -488.5 146.5t-342.5 406.5l153 104q242 -479 682 -479q166 0 263.5 78t97.5 198q0 109 -76 179q-65 -48 -168 -99l-113 148q165 73 248.5 155.5
t83.5 194.5q0 57 -31.5 108t-78.5 87q-74 -135 -150 -232h-137q-26 123 -97.5 194.5t-189.5 71.5q-112 0 -172.5 -57t-60.5 -160q0 -97 58 -152t155 -55q95 0 159 50l60 -160q-38 -29 -99.5 -46.5t-123.5 -17.5q-184 0 -291 110t-107 275q0 175 106.5 278t301.5 103
q260 0 373 -217q26 39 127 213h108q118 -68 194 -169t76 -224z" />
    <glyph glyph-name="bnN_DDA" horiz-adv-x="1601" 
d="M1642 1174h-724v-455q0 -98 83 -98q54 0 154 47t195 131q67 -44 117.5 -137t50.5 -203q0 -222 -149 -360t-398 -138q-120 0 -227.5 37.5t-190 104.5t-144 153t-100.5 188l150 115q73 -205 206.5 -314.5t307.5 -109.5q162 0 261 89t99 227q0 77 -28 120q-68 -57 -154 -91
t-170 -34q-76 0 -132.5 32t-86.5 89q0 2 -2 2v2q-166 314 -367 314q-73 0 -112 -36t-39 -93q0 -64 47 -121l-154 -62q-69 76 -69 189q0 129 84 209t229 80q227 0 364 -191l9 2q-17 115 -19 312h-774v157h1683v-157z" />
    <glyph glyph-name="bnB_DDA" horiz-adv-x="1492" 
d="M625 633v330q-181 -75 -346 -201l346 -135v6zM1534 1174h-727v-533q0 -98 84 -98q53 0 152.5 46.5t195.5 129.5q67 -42 117.5 -134.5t50.5 -203.5q0 -222 -149 -360t-398 -138q-219 0 -390.5 122.5t-254.5 316.5l141 124q71 -190 204.5 -289.5t301.5 -99.5
q163 0 263 88.5t100 227.5q0 68 -29 119q-66 -56 -151.5 -89.5t-163.5 -33.5q-66 0 -113 20v-2l-668 266v183q96 85 243 172.5t282 132.5v33h-664v157h1573v-157z" />
    <glyph glyph-name="bnL_DDA" horiz-adv-x="1951" 
d="M1993 1174h-721v-420q0 -99 84 -99q53 0 152.5 47t195.5 132q67 -44 117.5 -137t50.5 -203q0 -222 -149 -360t-398 -138q-201 0 -353 98t-237 266l146 127q64 -153 181.5 -235t264.5 -82q163 0 262 89t99 228q0 77 -29 119q-68 -57 -153 -91t-167 -34q-122 0 -189 72.5
t-67 191.5v5q-14 41 -56 73.5t-103 32.5q-70 0 -113 -50t-43 -136v-74h-170v72q0 90 -44.5 136t-117.5 46q-71 0 -118.5 -55t-47.5 -152q0 -116 63.5 -180t166.5 -64q57 0 118 25l25 -160q-67 -28 -145 -28q-182 0 -295 113t-113 292q0 171 98 273t238 102q192 0 254 -150h8
q19 66 74 111t141 45q62 0 106 -21t66 -47h8v220h-1124v157h2034v-157z" />
    <glyph glyph-name="bnNN_DDHA" horiz-adv-x="1794" 
d="M1681 602q0 -91 -38.5 -181.5t-104 -162t-162.5 -116t-205 -44.5q-146 0 -229.5 84.5t-83.5 218.5v242q0 111 -16.5 200.5t-53.5 163t-103 114t-157 40.5q-129 0 -198.5 -70.5t-69.5 -185.5q0 -102 62 -159.5t161 -57.5q91 0 156 51l61 -164q-83 -61 -221 -61
q-186 0 -296.5 111.5t-110.5 281.5q0 187 117 305.5t323 118.5q117 0 203.5 -44.5t134.5 -115.5h8v160h977v-157h-793v-758q0 -64 35.5 -103t104.5 -39q125 0 220 98.5t95 227.5q0 73 -33.5 117.5t-97.5 44.5q-32 0 -63 -16t-48 -41l-94 147q35 37 90.5 61.5t120.5 24.5
q136 0 222.5 -91t86.5 -245z" />
    <glyph glyph-name="bnN_DDHA" horiz-adv-x="1697" 
d="M1739 1174h-803v-768q0 -65 36 -104.5t107 -39.5q126 0 223 99t97 233q0 75 -32.5 120.5t-94.5 45.5q-70 0 -117 -62l-92 148q82 90 213 90q134 0 221.5 -94.5t87.5 -247.5q0 -127 -64 -243t-182 -189.5t-260 -73.5q-155 0 -241 83.5t-86 219.5v10q-14 64 -34.5 122.5
t-51.5 115t-68.5 97.5t-89 66t-109.5 25q-73 0 -112 -36t-39 -95q0 -61 47 -118l-152 -60q-71 78 -71 187q0 129 84.5 209.5t230.5 80.5q125 0 222 -62.5t153 -170.5h8q-18 131 -18 356v56h-793v157h1780v-157z" />
    <glyph glyph-name="bnB_DDHA" horiz-adv-x="1626" 
d="M688 465v467q-246 -104 -432 -246zM1667 1174h-799v-793q0 -65 39 -104t115 -39q125 0 217 98t92 233q0 74 -34.5 120t-102.5 46t-113 -39l-73 154q81 61 190 61q140 0 229 -94t89 -248q0 -95 -36.5 -186t-100 -162t-157.5 -114.5t-200 -43.5q-124 0 -204.5 52
t-112.5 143l-627 330v176q128 111 301 209t309 143v58h-729v157h1708v-157z" />
    <glyph glyph-name="bnNN_NNA" horiz-adv-x="1302" 
d="M934 504l10 2q-17 84 -26 260q-5 87 -26 159.5t-60.5 131.5t-104.5 92t-149 33q-128 0 -198.5 -71t-70.5 -185q0 -80 39.5 -138t108.5 -83q66 8 104 8q245 0 373 -209zM1110 -121h-190v146q0 110 -19 201t-58.5 164t-108.5 114t-161 41q-125 0 -194.5 -70.5t-69.5 -185.5
q0 -103 62 -161t161 -58q88 0 156 53l62 -164q-86 -63 -222 -63q-186 0 -296.5 112.5t-110.5 282.5q0 214 147 330q-147 105 -147 307q0 187 117 305.5t323 118.5q253 0 379 -211l8 4q-26 88 -26 315v76h188v-205h233v-157h-233v-1295z" />
    <glyph glyph-name="bnH_NNA" horiz-adv-x="1105" 
d="M1124 137l-102 -135q-20 9 -55.5 25t-44.5 20v-657h-179v78q0 79 -9.5 146.5t-31.5 128.5t-55.5 103.5t-85 67.5t-117.5 25q-91 0 -144.5 -52.5t-53.5 -142.5q0 -81 51.5 -125.5t132.5 -44.5q73 0 129 29l41 -156q-78 -35 -176 -35q-160 0 -257 91t-97 243q0 156 93 254
t259 98q125 0 211.5 -54.5t128.5 -129.5l8 2q-22 72 -25 211q-234 102 -336.5 133t-211.5 43v166h120q215 0 324 69.5t109 194.5q0 88 -57 140.5t-152 52.5q-80 0 -130.5 -42.5t-50.5 -111.5q0 -77 70 -119l-129 -96q-59 34 -91 93.5t-32 127.5q0 136 101.5 222.5
t261.5 86.5q171 0 278 -99.5t107 -258.5q0 -157 -96.5 -247t-254.5 -113v-9q142 -37 285 -102zM1147 1174h-1188v157h1188v-157z" />
    <glyph glyph-name="bnSS_NNA" horiz-adv-x="1662" 
d="M1067 94l-127 -125l-834 496v168l287 248l-293 241v52h-141v157h1022v-117q96 107 258 107q138 0 220.5 -80.5t82.5 -204.5q0 -86 -41 -146t-112 -87v-10q79 -23 129.5 -86t50.5 -156q0 -126 -83.5 -213.5t-228.5 -87.5q-175 0 -276 119v-224zM299 1174v-7l498 -399v406
h-498zM983 795q0 -169 68 -273t190 -104q68 0 106.5 40.5t38.5 102.5q0 69 -46.5 109.5t-131.5 40.5h-51v161h45q77 0 118.5 42t41.5 114q0 57 -37 93t-104 36q-98 0 -168 -94t-70 -268zM805 246h8q-13 183 -16 332l-252 202l-256 -223z" />
    <glyph glyph-name="bnK_SS_NNA" horiz-adv-x="1845" 
d="M1139 276q-19 192 -19 406v18h-123q-158 0 -248 89t-90 255v130h-372q77 -112 86 -250q138 -29 236 -143t98 -275v-4q145 -14 265.5 -84t166.5 -142zM991 870h129v304h-278v-134q0 -170 149 -170zM1886 1174h-579v-304h65q182 0 282.5 -88.5t100.5 -236.5
q0 -123 -59.5 -206.5t-153.5 -125.5l-108 139q61 22 102 72.5t41 122.5q0 153 -197 153h-73v-1312h-181v96q0 498 -307 498q-102 0 -160.5 -55.5t-58.5 -155.5q0 -86 53 -135.5t144 -49.5q88 0 164 72l51 -156q-96 -80 -221 -80q-167 0 -268 96.5t-101 254.5q0 164 98.5 266
t276.5 102q92 0 166.5 -31t115 -71t68.5 -90l8 2q-7 21 -14 61q-54 128 -178 221t-277 111q-27 -84 -77 -124t-103 -40q-60 0 -97.5 34.5t-37.5 94.5t44.5 110t121.5 73q0 102 -50 172t-135 100q-25 -76 -74.5 -115t-101.5 -39q-60 0 -96.5 34.5t-36.5 96.5q0 61 43 110
t117 69q-11 153 -119 254h-125v157h1927v-157z" />
    <glyph glyph-name="bnK_TA" horiz-adv-x="1916" 
d="M870 -164q-130 0 -243.5 50.5t-200 137t-158 210t-121.5 262.5t-86 301l168 73q86 -401 250.5 -628.5t392.5 -227.5q113 0 175.5 59t62.5 148q0 58 -33 108t-90 79q-64 -39 -137 -72l-123 131q156 64 235.5 138t79.5 169q0 61 -39 98t-110 37q-87 0 -149.5 -59
t-88.5 -135l-151 94q39 119 143.5 193.5t243.5 74.5q112 0 190 -47t115 -127q112 137 289 137q157 0 259.5 -95.5t102.5 -252.5q0 -161 -94 -254.5t-233 -93.5q-106 0 -179 37l39 156q59 -23 119 -23q74 0 120 47t46 129q0 83 -50 131.5t-136 48.5q-34 0 -63.5 -8.5
t-56.5 -29t-47.5 -39.5t-45.5 -56t-40 -61t-42 -70q-21 -46 -68 -96q82 -47 133 -121.5t51 -173.5q0 -168 -117 -273.5t-313 -105.5zM1958 1174h-1999v157h1999v-157z" />
    <glyph glyph-name="bnT_TA" horiz-adv-x="1413" 
d="M1219 770q0 -144 -103 -256q84 -45 137.5 -121t53.5 -178q0 -168 -116.5 -273.5t-309.5 -105.5q-131 0 -245.5 50.5t-201.5 137t-158.5 210.5t-121.5 262.5t-86 300.5l168 73q86 -401 250.5 -628.5t392.5 -227.5q112 0 174.5 59t62.5 148q0 60 -34.5 110.5t-94.5 78.5
q-57 -38 -141 -74l-123 131q156 64 235.5 138t79.5 169q0 60 -39.5 97.5t-109.5 37.5q-87 0 -149.5 -59t-88.5 -135l-151 94q37 119 142 193.5t243 74.5q156 0 245 -88t89 -219zM1454 1174h-1495v157h1495v-157z" />
    <glyph glyph-name="bnN_TA" horiz-adv-x="1304" 
d="M1346 1174h-240q51 -66 51 -177q0 -133 -84 -217q125 -110 125 -323q0 -220 -133 -354t-352 -134q-110 0 -207 37.5t-172.5 105t-133 150.5t-100.5 184l144 105q69 -187 189.5 -303.5t277.5 -116.5q146 0 229.5 92t83.5 238q0 104 -44.5 170.5t-133.5 66.5q-57 0 -94 -35
t-37 -98q0 -44 21.5 -79.5t62.5 -55.5l-119 -102q-64 33 -103.5 100t-39.5 150q0 124 81 202q-18 12 -54.5 38t-56 38.5t-51.5 24.5t-63 12q-52 0 -83 -30.5t-31 -80.5q0 -64 47 -118l-154 -62q-72 72 -72 189q0 121 73 196.5t206 75.5q64 0 119.5 -19t95.5 -46.5t76.5 -55
t79 -46.5t86.5 -19q72 0 106.5 43t34.5 104q0 65 -38.5 107.5t-113.5 42.5h-866v157h1387v-157z" />
    <glyph glyph-name="bnP_TA" horiz-adv-x="1454" 
d="M291 1051q104 -13 189 -75.5t124 -176.5l303 211q-53 80 -133.5 125t-183.5 45q-101 0 -177 -39.5t-122 -89.5zM889 -236q-111 0 -212.5 39t-182 109t-143.5 161t-107 201l153 105q80 -214 205 -330.5t287 -116.5q147 0 230 88.5t83 233.5q0 103 -46 169t-134 66
q-57 0 -94 -36t-37 -97q0 -43 22 -79t62 -58l-119 -104q-66 38 -104.5 104t-38.5 150q0 121 78.5 201.5t209.5 86.5q0 111 -24 199l-617 -428l-92 139l195 135q-53 173 -223 207q-33 9 -88 11l-99 139q34 54 83.5 102.5t114.5 91t150.5 68t178.5 25.5q71 0 135.5 -15.5
t112 -39.5t88 -57t66.5 -64.5t46 -65.5h6q-17 50 -27 151.5t-10 206.5v74h191v-205h272v-157h-272v-556q93 -49 142.5 -146t49.5 -222q0 -220 -135 -353t-356 -133z" />
    <glyph glyph-name="bnM_TA" horiz-adv-x="1296" 
d="M844 877q71 0 106 43t35 104q0 65 -38 107.5t-113 42.5h-424q20 -44 34 -115q51 -8 98 -30t82 -47t68.5 -49t72 -40t79.5 -16zM1335 1174h-221q51 -66 51 -177q0 -142 -90 -223q117 -111 117 -315q0 -220 -133.5 -355t-351.5 -135q-110 0 -207.5 38t-174 106t-135.5 155
t-102 193l145 104q71 -197 192 -314.5t280 -117.5q144 0 227.5 91.5t83.5 236.5q0 104 -43.5 170.5t-132.5 66.5q-58 0 -94.5 -35.5t-36.5 -99.5q0 -89 79 -135l-116 -102q-142 90 -142 252q0 126 86 206q-12 9 -50.5 37t-55.5 38.5t-48 22t-61 11.5q-53 0 -83.5 -30.5
t-30.5 -80.5q0 -64 47 -118l-154 -62q-71 71 -71 189q0 88 39 153.5t114 95.5q-20 84 -59 134h-244v157h1376v-157z" />
    <glyph glyph-name="bnL_TA" horiz-adv-x="1595" 
d="M1038 -213q-163 0 -299.5 84t-228.5 225l121 125q73 -126 177.5 -198t229.5 -72q146 0 229 91t83 237q0 104 -43.5 170.5t-132.5 66.5q-57 0 -94.5 -35t-37.5 -96q0 -92 82 -137l-116 -103q-66 34 -105 100.5t-39 149.5q0 102 57.5 176t157.5 99v108q-13 39 -54 73
t-101 34q-68 0 -109 -50t-41 -137v-65h-172v63q0 88 -45 135.5t-119 47.5q-71 0 -116.5 -55t-45.5 -148q0 -112 62 -172t156 -60q62 0 120 25l33 -168q-65 -29 -155 -29q-174 0 -286 112.5t-112 291.5q0 167 98 271t236 104q193 0 258 -146h8q23 67 74.5 109.5t134.5 42.5
q104 0 168 -74h8v191h-1120v157h1677v-157h-372v-504q126 -31 194 -138.5t68 -255.5q0 -220 -134 -354.5t-354 -134.5z" />
    <glyph glyph-name="bnSH_TA" horiz-adv-x="1554" 
d="M991 -297q-129 0 -242.5 50.5t-199 140t-149 201.5t-105.5 245l156 113q78 -274 215 -425t323 -151q150 0 235 88.5t85 235.5q0 105 -46.5 172t-134.5 67q-58 0 -95.5 -37t-37.5 -96q0 -93 84 -139l-123 -109q-66 34 -105.5 104t-39.5 156q0 103 56.5 178t156.5 101v291
q0 132 -66 201t-178 69q-91 0 -151 -57.5t-60 -159.5q0 -104 59 -160.5t158 -56.5q56 0 84 12v-170q-50 -12 -90 -12q-200 0 -307 152q-93 -154 -303 -154q-53 0 -117 16v172q41 -20 111 -20q104 0 161.5 59.5t57.5 159.5q0 113 -60 173.5t-169 60.5h-195v157h199
q221 0 317 -149q46 71 123.5 110t173.5 39q104 0 173.5 -38t96.5 -79h9q-23 111 -23 250v72h184v-205h383v-157h-383v-574q132 -30 205.5 -139t73.5 -262q0 -225 -137 -360.5t-363 -135.5z" />
    <glyph glyph-name="bnS_TA" horiz-adv-x="1392" 
d="M1251 1057q0 -177 -108 -262q114 -114 114 -316q0 -220 -133.5 -353.5t-353.5 -133.5q-115 0 -217.5 41.5t-180 115.5t-136 164t-99.5 197l146 106q69 -207 194 -334.5t293 -127.5q145 0 228 91.5t83 237.5q0 105 -44 171.5t-134 66.5q-57 0 -94 -35t-37 -98
q0 -44 21.5 -79.5t62.5 -55.5l-117 -103q-65 33 -104 99.5t-39 150.5q0 135 96 215q-52 49 -82 123q-79 -209 -276 -209q-81 0 -155.5 42.5t-127.5 113.5l109 116q44 -53 84 -81.5t90 -28.5q44 0 77.5 25t53.5 69t31.5 89.5t17.5 99.5h-555v157h1475v-157h-195
q12 -58 12 -117zM709 1174q5 -122 60 -203.5t153 -81.5q77 0 113 49t36 129q0 66 -14 107h-348z" />
    <glyph glyph-name="bnT_THA" horiz-adv-x="1677" 
d="M1583 -18l-123 -144l-1237 408v203q746 13 746 432q0 142 -78 227q-74 -149 -117 -223h-156q0 293 -180 293q-79 0 -122.5 -56t-43.5 -143q0 -89 46.5 -141t132.5 -52q55 0 100 23l37 -152q-62 -36 -162 -36q-151 0 -242.5 96t-91.5 264q0 164 89 267.5t249 103.5
q106 0 182.5 -60t108.5 -157q17 32 36 69.5t38 75.5t26 51h101q235 -170 235 -450q0 -466 -586 -557v-9l729 -239h9q-15 202 -15 399v1061h191v-205h233v-157h-233v-1158z" />
    <glyph glyph-name="bnN_THA" horiz-adv-x="1245" 
d="M1286 1174h-190q51 -71 51 -177q0 -70 -27.5 -133t-83.5 -104q97 -105 97 -260q0 -169 -102.5 -264.5t-280.5 -118.5v-8q81 -19 274 -134l158 -94l-129 -127q-333 206 -419 249q-106 54 -208 68q-17 3 -39 5v157h135q426 0 426 267q0 91 -56 146.5t-149 55.5
q-75 0 -122.5 -41t-47.5 -110q0 -85 86 -129l-131 -100q-69 36 -106 100.5t-37 142.5q0 83 41 151.5t115 108.5q-90 68 -158 68q-54 0 -85.5 -30.5t-31.5 -80.5q0 -64 47 -118l-153 -62q-72 76 -72 189q0 121 73 196.5t206 75.5q64 0 119.5 -19t95 -46.5t76 -55t79 -46.5
t86.5 -19q72 0 107 43t35 104q0 65 -37.5 107.5t-112.5 42.5h-856v157h1327v-157z" />
    <glyph glyph-name="bnM_THA" horiz-adv-x="1245" 
d="M821 877q72 0 107 43t35 104q0 65 -37.5 107.5t-112.5 42.5h-416q22 -49 35 -117q59 -10 115 -41t92 -61t84.5 -54t97.5 -24zM1286 1174h-194q51 -66 51 -177q0 -70 -27 -133.5t-82 -103.5q99 -104 99 -260q0 -169 -102.5 -264.5t-280.5 -118.5v-8q81 -19 274 -134
l158 -94l-129 -127q-333 206 -419 249q-106 54 -208 68q-17 3 -39 5v157h135q426 0 426 267q0 91 -56 146.5t-149 55.5q-75 0 -122.5 -41t-47.5 -110q0 -85 86 -129l-131 -100q-69 36 -106 100.5t-37 142.5q0 83 41 151t115 109q-46 34 -82.5 51t-79.5 17q-52 0 -83.5 -30.5
t-31.5 -80.5q0 -64 47 -118l-153 -62q-72 76 -72 189q0 91 42 157.5t120 95.5q-14 70 -58 130h-231v157h1327v-157z" />
    <glyph glyph-name="bnS_THA" horiz-adv-x="1382" 
d="M1225 1057q0 -167 -103 -256q138 -106 138 -291q0 -171 -106 -267.5t-286 -117.5v-8q98 -26 281 -135l145 -88l-131 -127q-154 95 -222 135.5t-142 82.5t-113 55.5t-78.5 23t-95.5 16.5v160h135q426 0 426 270q0 90 -56 144.5t-149 54.5q-75 0 -121.5 -41t-46.5 -111
q0 -81 84 -131l-133 -98q-68 34 -103.5 99t-35.5 144t37.5 146t105.5 108q-41 41 -71 113q-79 -209 -277 -209q-81 0 -155 42.5t-127 113.5l108 116q44 -53 84 -81.5t90 -28.5q44 0 77.5 25t53.5 69t31.5 89.5t17.5 99.5h-528v157h1464v-157h-211q13 -63 13 -117zM682 1174
q5 -122 60 -203.5t153 -81.5q77 0 113 49t36 129q0 66 -14 107h-348z" />
    <glyph glyph-name="bnG_DA" horiz-adv-x="1843" 
d="M696 768q0 -223 -245 -391l-136 127q197 127 197 270q0 62 -46 98.5t-122 36.5q-81 0 -170 -35l-131 136q56 140 185.5 233.5t301.5 93.5q230 0 373 -190h8q-24 64 -24 176v8h997v-157h-817v-558q78 102 219 215.5t266 163.5l160 -90q-74 -221 -74 -518v-387h-190v389
q0 216 57 393q-116 -75 -232 -194.5t-210 -255.5l-186 76v370q0 169 -90 279t-250 110q-97 0 -172.5 -43t-118.5 -106q70 26 151 26q126 0 212.5 -74t86.5 -202z" />
    <glyph glyph-name="bnD_DA" horiz-adv-x="1699" 
d="M1507 -186h-190v366q0 242 51 387q-118 -77 -235 -194.5t-209 -249.5l-189 90v193q0 262 56 421q-235 -153 -433 -442l-188 86v703h-211v157h1784v-157h-1383v-504q81 102 222 215t266 164l162 -93q-84 -249 -84 -491v-70q82 103 227 222t268 169l160 -92
q-74 -218 -74 -516v-364z" />
    <glyph glyph-name="bnN_DA" horiz-adv-x="1712" 
d="M1753 1174h-817v-558q81 103 221 216.5t264 162.5l162 -90q-76 -218 -76 -518v-387h-190v389q0 221 59 393q-117 -76 -233.5 -195.5t-210.5 -254.5l-187 76q-16 59 -35 111.5t-49 108.5t-65.5 95.5t-84.5 65.5t-105 26q-73 0 -112.5 -37t-39.5 -96q0 -63 47 -117
l-151 -61q-72 79 -72 188q0 127 84 208t229 81q126 0 220.5 -63t144.5 -166h8q-19 138 -19 356v66h-786v157h1794v-157z" />
    <glyph glyph-name="bnB_DA" horiz-adv-x="1632" 
d="M1417 0h-182v399q0 213 49 365q-111 -73 -227 -198.5t-215 -268.5l-729 338v166q81 75 229.5 166t312.5 145v62h-696v157h1714v-157h-827v-586q82 105 222.5 222.5t262.5 166.5l160 -90q-74 -221 -74 -492v-395zM655 567v371q-90 -36 -190.5 -94t-163.5 -109z" />
    <glyph glyph-name="bnM_DA" horiz-adv-x="1691" 
d="M799 877q71 0 106 43t35 104q0 65 -38.5 107.5t-113.5 42.5h-411q26 -60 37 -117q48 -9 93 -31t78.5 -46.5t66 -48t70 -39t77.5 -15.5zM1733 1174h-664q51 -66 51 -177q0 -104 -56 -185t-173 -103v-195q91 98 233 202.5t258 147.5l160 -90q-74 -221 -74 -491v-342h-184
v346q0 211 49 354q-116 -75 -218.5 -168t-227.5 -233l-187 75v404q-50 15 -100 46.5t-82.5 58.5t-76 48t-85.5 21q-53 0 -83.5 -30.5t-30.5 -80.5q0 -64 47 -118l-154 -62q-72 72 -72 189q0 93 42 159.5t124 93.5q-19 80 -59 130h-211v157h1774v-157z" />
    <glyph glyph-name="bnL_DA" horiz-adv-x="2115" 
d="M1896 0h-184v418q0 206 51 364q-116 -75 -232 -194.5t-210 -255.5l-186 76v319q-16 43 -58.5 76t-103.5 33q-71 0 -113.5 -51t-42.5 -140v-76h-180v74q0 93 -45 139.5t-121 46.5q-71 0 -119.5 -55.5t-48.5 -155.5q0 -116 65 -181.5t171 -65.5q81 0 141 35l33 -168
q-84 -35 -178 -35q-190 0 -306 117t-116 301q0 174 101 277t245 103q200 0 266 -151h8q21 69 75.5 113.5t143.5 44.5q109 0 172 -68h11v234h-1176v157h2198v-157h-832v-558q79 103 219.5 216.5t265.5 162.5l160 -90q-74 -221 -74 -491v-414z" />
    <glyph glyph-name="bnG_DHA" horiz-adv-x="1626" 
d="M877 -80h8q-15 194 -15 350v33q-211 -103 -366 -194zM692 760q0 -221 -229 -383l-146 119q86 58 138.5 122t52.5 146q0 62 -46.5 96.5t-123.5 34.5q-79 0 -168 -35l-131 150q56 140 185.5 233.5t301.5 93.5q230 0 373 -190h8q-13 36 -25 124.5t-12 188.5v76h179v-205h618
v-157h-618v-596q200 85 323 116l141 -127q-5 -12 -13.5 -39.5t-22 -147t-13.5 -280.5v-188h-180v190q0 261 43 392q-178 -68 -278 -111v-545l96 -47l-119 -125l-711 350v181q236 152 553 301v280q0 170 -88 279.5t-248 109.5q-97 0 -172 -42.5t-118 -106.5q70 26 151 26
q131 0 215 -76.5t84 -207.5z" />
    <glyph glyph-name="bnN_DHA" horiz-adv-x="1540" 
d="M784 123h9q-15 190 -15 348v35q-201 -98 -366 -195zM1581 1174h-625v-394q204 86 324 117l139 -125q-5 -12 -13.5 -39.5t-22 -147t-13.5 -280.5v-190h-178v190q0 255 41 389q-180 -66 -277 -108v-547l97 -45l-119 -125l-711 350v180q237 150 484 269q-122 190 -287 190
q-74 0 -113 -35.5t-39 -93.5q0 -64 47 -121l-151 -61q-72 79 -72 188q0 129 85 210t231 81q125 0 220 -58.5t154 -162.5h9q-19 147 -19 356v13h-813v157h1622v-157z" />
    <glyph glyph-name="bnD_DHA" horiz-adv-x="1499" 
d="M737 -29h8q-16 203 -16 348v35q-200 -97 -364 -194zM1540 1174h-1196v-441q102 93 237.5 186t254.5 142l149 -90q-48 -138 -65 -338q202 84 313 112l141 -124q-5 -12 -13.5 -39.5t-22 -147t-13.5 -280.5v-209h-180v209q0 260 43 391q-100 -35 -277 -109v-549l95 -45
l-119 -125l-711 351v180q252 163 557 305q13 184 49 295q-129 -82 -227 -161t-215 -200l-182 74v613h-199v157h1581v-157z" />
    <glyph glyph-name="bnB_DHA" horiz-adv-x="1480" 
d="M1522 1174h-619v-599q233 102 320 121l141 -127q-5 -12 -13.5 -39.5t-22 -147t-13.5 -280.5v-190h-178v190q0 255 32 390q-17 -7 -66 -26.5t-99.5 -40t-100.5 -42.5v-580l94 -43l-120 -127l-762 336v193q176 116 420 241l-420 185v184q126 100 290 189.5t318 146.5v66
h-764v157h1563v-157zM729 -125h8q-14 181 -14 375v49q-215 -102 -426 -225zM297 692l428 -196l12 6q-14 175 -14 366v58q-247 -108 -426 -234z" />
    <glyph glyph-name="bnL_DHA" horiz-adv-x="1875" 
d="M1124 59h9q-15 191 -15 349v47q-212 -103 -377 -201zM1917 1174h-621v-445q226 96 322 117l141 -125q-5 -12 -13.5 -39.5t-22 -147t-13.5 -280.5v-191h-178v191q0 255 33 389q-155 -57 -269 -106v-562l97 -45l-125 -131l-705 348v199q228 150 555 303v113q-16 42 -59 75
t-105 33q-72 0 -115.5 -50t-43.5 -138v-76h-177v74q0 90 -44.5 136t-114.5 46q-78 0 -126 -55.5t-48 -153.5q0 -181 166 -231l-66 -158q-135 35 -212 138.5t-77 250.5q0 172 100.5 275.5t249.5 103.5q102 0 168 -42.5t91 -102.5h8q21 65 81.5 109t141.5 44q63 0 107.5 -21
t64.5 -46h10v201h-1159v157h1958v-157z" />
    <glyph glyph-name="bnK_NA" horiz-adv-x="1443" 
d="M723 567h8q-16 206 -16 369q-201 -49 -377 -195zM1485 1174h-590v-58q113 -5 202.5 -38t144.5 -84t83.5 -113.5t28.5 -130.5q0 -121 -60.5 -206t-156.5 -132l-105 139q65 27 106.5 78.5t41.5 124.5q0 84 -78 138t-207 62v-1110h-174q-21 75 -50.5 138t-70.5 116.5
t-96.5 84t-118.5 30.5q-69 0 -107 -35.5t-38 -93.5t43 -111l-156 -57q-64 78 -64 184q0 122 84.5 202.5t221.5 80.5q120 0 212.5 -60.5t147.5 -164.5h8q-15 89 -20 227l-555 248v182q102 102 244.5 182t308.5 107v70h-756v157h1526v-157z" />
    <glyph glyph-name="bnG_NA" horiz-adv-x="1241" 
d="M696 764q0 -102 -52.5 -195t-139.5 -159l-152 110q73 49 116.5 115t43.5 135q0 64 -46 95.5t-126 31.5q-81 0 -170 -35l-131 148q57 144 185.5 235.5t301.5 91.5q230 0 373 -190h8q-13 36 -25 124.5t-12 188.5v76h179v-205h233v-157h-233v-1336h-172q-20 74 -49.5 137.5
t-70 117t-96 84t-118.5 30.5q-69 0 -108.5 -36t-39.5 -95q0 -57 45 -109l-155 -59q-64 78 -64 186q0 122 84 202.5t221 80.5q120 0 212.5 -61t148.5 -166l8 2q-20 85 -23 290v336q0 169 -90 279t-250 110q-98 0 -172.5 -41.5t-119.5 -107.5q67 26 147 26q141 0 225 -74
t84 -206z" />
    <glyph glyph-name="bnGH_NA" horiz-adv-x="1236" 
d="M1044 -285h-174q-28 98 -74 175t-118 126.5t-156 49.5q-71 0 -110 -35.5t-39 -93.5t43 -111l-154 -57q-63 77 -63 184q0 124 85.5 203.5t223.5 79.5q125 0 220 -58.5t151 -159.5h8q-19 108 -23 244l-737 205v178l84 51q33 20 65 37t50.5 25t34.5 14.5t18 7.5v11
q-125 9 -195.5 71.5t-70.5 171.5q0 74 39 140h-193v157h1319v-157h-234v-1459zM872 440h7q-15 179 -15 375v359h-510q-53 -53 -53 -130q0 -69 49 -105t121 -36q103 0 205 64l76 -154l-394 -233z" />
    <glyph glyph-name="bnC_NA" horiz-adv-x="1050" 
d="M1092 1174h-734q18 -36 60.5 -61t120.5 -52l112 -43q142 -49 206.5 -119.5t64.5 -193.5q0 -94 -43 -173v-835h-177q-41 150 -129.5 248t-210.5 98q-67 0 -104 -35t-37 -92q0 -61 45 -113l-153 -59q-68 78 -68 184q0 122 81.5 203.5t219.5 81.5q122 0 217.5 -58
t149.5 -157l8 2q-25 169 -25 305v49q-100 -53 -223 -53q-143 0 -225 76t-82 209v588h-207v157h1133v-157zM352 588q0 -119 123 -119q100 0 183 70t83 166q0 57 -30.5 88t-120.5 63l-84 29q-105 37 -158 94h-8q0 -4 3.5 -47t6 -103.5t2.5 -142.5v-98z" />
    <glyph glyph-name="bnD_NA" horiz-adv-x="1067" 
d="M1108 1174h-762v-437q81 88 212.5 185t248.5 143l151 -90q-61 -183 -61 -449v-651h-174q-20 72 -50.5 135.5t-72.5 117.5t-98 85t-119 31q-67 0 -104 -35t-37 -92q0 -61 45 -113l-154 -59q-67 77 -67 184q0 123 81 204t220 81q120 0 215 -62t151 -166h8q-24 174 -24 308
v36q0 187 47 336q-232 -152 -422 -370l-180 69v609h-203v157h1149v-157z" />
    <glyph glyph-name="bnDH_NA" horiz-adv-x="1185" 
d="M993 -279h-176q-41 147 -135.5 246t-220.5 99q-68 0 -106 -35t-38 -92q0 -61 45 -113l-153 -57q-68 75 -68 184q0 121 81.5 202t219.5 81q123 0 223.5 -59.5t161.5 -166.5l9 2q-20 76 -25 242l-682 246v182l64 35q43 24 87.5 44.5t67.5 28.5l23 9v8q-122 11 -197.5 78
t-75.5 180q0 128 84.5 207.5t227.5 79.5q64 0 125 -17.5t98 -50.5l-60 -143q-68 47 -147 47q-62 0 -100.5 -34.5t-38.5 -92.5q0 -46 29 -77t69.5 -42.5t89.5 -11.5q85 0 164.5 33t171.5 94v274h416v-157h-234v-1453zM823 432l6 2q-18 173 -18 359v61l-463 -246z" />
    <glyph glyph-name="bnT_NA" horiz-adv-x="1310" 
d="M1221 696q0 -118 -43.5 -214t-122.5 -160v-709h-176q-27 97 -75 178t-122.5 136t-159.5 55q-67 0 -105 -35t-38 -92q0 -61 45 -113l-154 -59q-67 77 -67 184q0 123 81.5 204t219.5 81q122 0 222 -63.5t163 -174.5h8q-23 155 -23 305v17q-62 -15 -129 -15
q-114 0 -213.5 41t-173 109t-133 163t-98.5 198t-64 218l160 86q26 -136 70 -250.5t107.5 -205.5t152 -143t192.5 -52q141 0 220 87t79 226q0 107 -43.5 168.5t-126.5 61.5q-57 0 -93 -34t-36 -93q0 -40 21 -73t59 -52l-120 -105q-62 32 -99 97.5t-37 144.5q0 119 83 199
t214 80q168 0 261.5 -112t93.5 -284zM1352 1174h-1393v157h1393v-157z" />
    <glyph glyph-name="bnN_NA" horiz-adv-x="1159" 
d="M1200 1174h-235v-1233h-164q-21 75 -54 143.5t-79.5 130t-109 98.5t-132.5 37q-71 0 -110.5 -36.5t-39.5 -94.5q0 -64 48 -119l-152 -61q-72 79 -72 188q0 127 85.5 208t230.5 81q126 0 223.5 -62t155.5 -167h8q-15 148 -17 215q-22 69 -55.5 131.5t-78.5 116t-103.5 85
t-122.5 31.5q-71 0 -110.5 -36.5t-39.5 -94.5q0 -64 48 -119l-152 -61q-72 79 -72 188q0 127 85 208t231 81q125 0 222.5 -63.5t156.5 -167.5l8 2q-19 138 -19 360v11h-825v157h1241v-157z" />
    <glyph glyph-name="bnP_NA" horiz-adv-x="1323" 
d="M262 1051q95 -11 176.5 -65.5t124.5 -151.5l289 194q-102 152 -291 152q-101 0 -177 -39.5t-122 -89.5zM1130 -74h-167q-26 77 -60.5 142t-80 121t-105 88t-125.5 32q-71 0 -110.5 -36.5t-39.5 -92.5q0 -64 47 -121l-153 -61q-70 77 -70 188q0 128 85.5 208.5t230.5 80.5
q126 0 222.5 -62t153.5 -167l9 2q-17 123 -17 358v49q0 122 -26 217l-607 -409l-90 143l195 131q-54 124 -189 160q-37 16 -98 21l-96 147q47 71 116 131.5t175 105t221 44.5q293 0 428 -230l6 2q-15 39 -26 147t-11 210v61h182v-205h234v-157h-234v-1248z" />
    <glyph glyph-name="bnM_NA" horiz-adv-x="1236" 
d="M821 877q72 0 107 43t35 104q0 65 -37.5 107.5t-112.5 42.5h-416q22 -49 35 -117q59 -10 115 -41t92 -61t84.5 -54t97.5 -24zM1276 1174h-184q51 -66 51 -177q0 -75 -30.5 -142t-94.5 -107v-748h-172q-17 76 -48 145.5t-75 129t-105 95.5t-129 36t-106.5 -35.5
t-38.5 -91.5q0 -60 43 -113l-154 -60q-65 79 -65 185q0 121 83 202.5t222 81.5q122 0 219 -61t160 -172h8q-22 160 -22 352v8q-66 1 -123 20.5t-97.5 47.5t-77 56t-77.5 47.5t-84 19.5q-52 0 -83.5 -30.5t-31.5 -80.5q0 -64 47 -118l-153 -62q-72 76 -72 189q0 91 42 157.5
t120 95.5q-14 70 -58 130h-231v157h1317v-157z" />
    <glyph glyph-name="bnSH_NA" horiz-adv-x="1284" 
d="M428 739q-50 -75 -115 -109t-163 -34q-36 0 -82 8v162q33 -8 75 -8q102 0 151.5 56t49.5 151q0 97 -55 153t-162 56h-168v157h178q198 0 293 -135q94 139 266 139q152 0 234 -104h8q-25 113 -25 242v63h179v-205h233v-157h-233v-1194h-177q-18 67 -48 128.5t-73 116.5
t-103.5 88t-129.5 33t-107 -35t-38 -92t45 -113l-154 -57q-67 74 -67 184q0 121 82 202t221 81q123 0 222 -59.5t161 -167.5h8q-23 155 -23 303v315q0 131 -51.5 197.5t-150.5 66.5q-87 0 -141 -53.5t-54 -152.5q0 -96 58.5 -150.5t154.5 -54.5q29 0 59 6v-160
q-27 -6 -63 -6q-197 0 -295 139z" />
    <glyph glyph-name="bnS_NA" horiz-adv-x="1327" 
d="M1235 1057q0 -102 -41.5 -179.5t-118.5 -115.5v-762h-172q-14 58 -35 114.5t-53.5 112t-71 97t-89.5 67t-107 25.5q-70 0 -108 -35.5t-38 -93.5q0 -63 45 -111l-153 -59q-68 75 -68 184q0 121 82.5 203t220.5 82q121 0 220 -60.5t161 -169.5h9q-23 155 -23 322v49
q-109 6 -186 62.5t-115 148.5q-35 -98 -104.5 -153.5t-170.5 -55.5q-82 0 -156.5 42.5t-127.5 113.5l108 116q44 -53 84 -81.5t92 -28.5q43 0 76.5 25t53.5 69t31.5 89.5t17.5 99.5h-539v157h1409v-157h-145q12 -58 12 -117zM692 1174q5 -122 60.5 -203.5t154.5 -81.5
q75 0 111.5 49.5t36.5 128.5q0 60 -13 107h-350z" />
    <glyph glyph-name="bnH_NA" horiz-adv-x="1572" 
d="M948 27l-131 -129q-364 221 -439 261q-116 62 -211 77q-21 3 -48 6v159h129q215 0 320.5 78t105.5 207q0 94 -55 150.5t-148 56.5q-76 0 -123 -41.5t-47 -110.5q0 -40 21.5 -75t62.5 -56l-131 -98q-68 34 -104.5 99t-36.5 143q0 133 99 222t259 89q120 0 212 -53.5
t138 -147.5q111 178 312 178q158 0 257 -94t99 -258q0 -158 -92.5 -249t-235.5 -91q-117 0 -190 37l41 156q72 -27 133 -27q73 0 120.5 47t47.5 131q0 83 -49.5 130.5t-135.5 47.5q-54 0 -98.5 -22.5t-78 -66t-57 -91t-46.5 -112.5q-30 -123 -131 -197.5t-252 -93.5v-8
q102 -27 285 -136zM1614 1174h-1655v157h1655v-157z" />
    <glyph glyph-name="bnK_SS_NA" horiz-adv-x="1845" 
d="M1139 276q-19 192 -19 406v18h-123q-158 0 -248 89t-90 255v130h-372q77 -112 86 -250q138 -29 236 -143t98 -275v-4q145 -14 265.5 -84t166.5 -142zM991 870h129v304h-278v-134q0 -170 149 -170zM1886 1174h-579v-304h65q182 0 282.5 -88.5t100.5 -236.5
q0 -123 -59.5 -206.5t-153.5 -125.5l-108 139q61 22 102 72.5t41 122.5q0 153 -197 153h-73v-1165h-170q-36 71 -79.5 132t-98 113.5t-121.5 83t-138 30.5q-73 0 -112 -35t-39 -92q0 -82 88 -134l-139 -77q-57 32 -91 90t-34 133q0 123 83 203.5t226 80.5q126 0 249 -68.5
t210 -199.5h8q0 1 -4.5 29t-7.5 50.5t-6 69t-3 97.5q-60 119 -179 202.5t-263 100.5q-27 -84 -77 -124t-103 -40q-60 0 -97.5 34.5t-37.5 94.5t44.5 110t121.5 73q0 102 -50 172t-135 100q-25 -76 -74.5 -115t-101.5 -39q-60 0 -96.5 34.5t-36.5 96.5q0 61 43 110t117 69
q-11 153 -119 254h-125v157h1927v-157z" />
    <glyph glyph-name="bnM_PA" horiz-adv-x="2211" 
d="M1122 1051q74 -10 137.5 -42t117 -99t73.5 -160l319 208q-53 105 -141 163.5t-207 58.5q-101 0 -177 -39.5t-122 -89.5zM2019 0h-186v655q0 75 -12 140l-623 -412l-94 139l201 133q-35 197 -201 246q-27 -88 -98.5 -143.5t-190.5 -55.5q-56 0 -106.5 14t-85 35.5t-70 46
t-63.5 46t-63 35.5t-71 14q-53 0 -84.5 -30.5t-31.5 -80.5q0 -60 47 -118l-152 -62q-72 72 -72 189q0 91 42 157.5t120 95.5q-15 72 -57 130h-209v157h975q79 -44 123 -110q153 125 360 125q86 0 161.5 -22.5t129 -60t90.5 -77t62 -82.5h6q-17 50 -27 151.5t-10 206.5v74
h190v-205h234v-157h-234v-1174zM797 877q72 0 107.5 43t35.5 104q0 65 -38.5 107.5t-113.5 42.5h-413q27 -62 35 -117q49 -9 94 -31t78.5 -46.5t66.5 -48t70.5 -39t77.5 -15.5z" />
    <glyph glyph-name="bnL_PA" horiz-adv-x="1472" 
d="M397 190q98 -13 179.5 -70t128.5 -161l296 203q-114 160 -307 160q-102 0 -176.5 -41t-120.5 -91zM1516 1174h-236v-1614h-182v237q0 107 -29 213l-602 -420l-100 140l196 135q-61 157 -223 184q-22 5 -80 8l-100 142q76 116 212.5 201.5t311.5 84.5q88 0 163 -22
t127.5 -60t88 -76.5t61.5 -82.5l9 2q-15 39 -27 149t-12 221v154q-14 43 -52.5 76t-97.5 33q-69 0 -110 -51t-41 -140v-47h-170v45q0 86 -43.5 136t-116.5 50q-72 0 -115 -43t-43 -120q0 -91 84 -158l-131 -111q-61 41 -100 116.5t-39 152.5q0 151 91.5 243t235.5 92
q101 1 167 -41.5t94 -105.5h8q23 67 75 110.5t132 43.5q100 0 163 -68h9v191h-1135v157h1557v-157z" />
    <glyph glyph-name="bnSS_PA" horiz-adv-x="2029" 
d="M930 1047q123 -12 224.5 -85t137.5 -208l297 200q-51 106 -139.5 166t-208.5 60q-103 0 -185 -41.5t-126 -91.5zM1837 0h-186v655q0 58 -11 133l-616 -415l-92 141l215 143q-24 86 -83 147.5t-146 80.5q-15 -167 -130.5 -265t-287.5 -98q-185 0 -301.5 111.5
t-116.5 298.5q0 143 74 242h-197v157h541q210 0 327 -135q182 150 408 150q86 0 161.5 -22.5t128.5 -60t90 -77t62 -82.5h9q-17 50 -28 152.5t-11 205.5v74h190v-205h234v-157h-234v-1174zM500 686q82 0 141 41l-360 311q-21 -58 -21 -106q0 -108 67.5 -177t172.5 -69z
M500 1178q-77 0 -138 -39l359 -316q22 49 22 109q0 109 -68 177.5t-175 68.5z" />
    <glyph glyph-name="bnS_PA" horiz-adv-x="2328" 
d="M2136 0h-186v655q0 70 -13 140l-622 -412l-94 139l200 133q-40 207 -217 250q-35 -84 -109 -131t-180 -47q-116 0 -199 58.5t-124 152.5q-35 -98 -104 -153.5t-171 -55.5q-83 0 -157 42.5t-125 113.5l106 116q44 -53 84.5 -81.5t91.5 -28.5q44 0 78 25.5t54 68.5t31 89.5
t16 99.5h-537v157h1210q27 -56 37 -92q143 107 328 107q86 0 161.5 -22.5t128.5 -60t90 -77t62 -82.5h6q-17 49 -26.5 150.5t-9.5 207.5v74h190v-205h234v-157h-234v-1174zM692 1174q3 -122 58.5 -203.5t154.5 -81.5q77 0 113.5 49t36.5 129q0 63 -15 107h-348zM1239 1051
q74 -10 137.5 -42t117 -99t73.5 -160l319 208q-53 105 -141 163.5t-207 58.5q-101 0 -177 -39.5t-122 -89.5z" />
    <glyph glyph-name="bnP_PA" horiz-adv-x="1384" 
d="M299 352q98 -15 178 -71t125 -156l301 205q-112 151 -305 151q-101 0 -177 -39.5t-122 -89.5zM299 1051q104 -16 187 -77.5t126 -172.5l301 217q-117 162 -315 162q-101 0 -177 -39.5t-122 -89.5zM1192 -264h-184v221q0 118 -31 223l-612 -426l-95 142l193 131
q-66 153 -223 180q-42 6 -68 6l-100 145q62 93 153 160l248 180q-63 181 -235 211q-32 9 -66 9l-100 147q36 54 84 101.5t112 89t147 66t173 24.5q71 0 135.5 -15.5t112 -39.5t88 -57t66.5 -64.5t46 -65.5h6q-17 49 -26.5 150.5t-9.5 207.5v74h186v-205h233v-157h-233v-1438
zM1036 399l6 2q-10 37 -20.5 123.5t-11.5 171.5q-3 86 -25 170l-139 -98q-89 -63 -209 -135q148 -10 247.5 -77.5t151.5 -156.5z" />
    <glyph glyph-name="bnM_PHA" horiz-adv-x="2052" 
d="M795 877q72 0 107.5 43t35.5 104q0 65 -38.5 107.5t-113.5 42.5h-415q25 -56 37 -115q50 -7 96 -29t79 -47t65 -49.5t69.5 -40.5t77.5 -16zM2093 1174h-1020q45 -79 45 -177q0 -128 -78 -209l88 -102v-145l-274 -209l416 -201h8q-21 236 -21 406v444q118 59 267 59
q184 0 306 -101.5t122 -279.5q0 -140 -71.5 -232t-176.5 -138l-107 145q78 30 126.5 88t48.5 140q0 103 -65 154.5t-165 51.5q-42 0 -100 -14v-803l90 -43l-129 -133l-748 356v177l289 219l-70 80q-45 -5 -61 -5q-66 0 -122.5 19.5t-95.5 48t-74 56.5t-74.5 47.5t-81.5 19.5
q-53 0 -84 -30.5t-31 -80.5q0 -64 47 -118l-154 -62q-71 71 -71 189q0 88 38.5 152.5t112.5 96.5q-20 84 -59 134h-205v157h2134v-157z" />
    <glyph glyph-name="bnS_PHA" horiz-adv-x="2160" 
d="M707 1174q5 -122 60 -203.5t153 -81.5q77 0 113 49t36 129q0 66 -14 107h-348zM1247 1057q0 -171 -106 -260l96 -111v-145l-274 -209l415 -201h8q-20 225 -20 406v444q118 59 266 59q184 0 306 -101.5t122 -279.5q0 -140 -71.5 -232t-176.5 -138l-106 145q78 30 126 88
t48 140q0 103 -64.5 154.5t-164.5 51.5q-43 0 -101 -14v-803l90 -43l-129 -133l-747 356v177l289 219l-88 102q-10 -2 -33 -2q-119 0 -201.5 55t-124.5 156q-35 -98 -103.5 -153.5t-170.5 -55.5q-81 0 -155.5 42.5t-127.5 113.5l109 116q41 -52 82 -81t92 -29q44 0 77.5 25
t53.5 69t31.5 89.5t17.5 99.5h-553v157h2243v-157h-967q12 -58 12 -117z" />
    <glyph glyph-name="bnL_PHA" horiz-adv-x="2314" 
d="M2355 1174h-1089v-314l129 -155v-138l-283 -209l430 -219h8q-20 225 -20 404v438q118 59 270 59q184 0 306 -101.5t122 -279.5q0 -73 -21 -135.5t-58 -106.5t-79.5 -75.5t-91.5 -52.5l-104 145q78 30 126 88t48 140q0 103 -64.5 154.5t-164.5 51.5q-43 0 -101 -14v-809
l86 -45l-125 -131l-757 393v172l284 211l-127 152q-37 48 -72.5 74t-86.5 26q-64 0 -104 -50t-40 -136v-74h-170v72q0 90 -44 136t-116 46q-70 0 -118.5 -54.5t-48.5 -148.5q0 -117 64 -182.5t171 -65.5q58 0 119 25l24 -160q-74 -29 -151 -29q-178 0 -292 114t-114 296
q0 168 97.5 269.5t236.5 101.5q108 0 170 -47t84 -109h10q15 67 68.5 114.5t140.5 47.5q59 0 101.5 -21.5t62.5 -46.5h8v179h-1120v157h2396v-157z" />
    <glyph glyph-name="bnSS_PHA" horiz-adv-x="1951" 
d="M500 1180q-70 0 -133 -37l354 -312q22 49 22 105q0 106 -69.5 175t-173.5 69zM500 690q81 0 145 45l-360 312q-25 -52 -25 -111q0 -106 68.5 -176t171.5 -70zM1430 -70l-130 -133l-733 350v172l269 195l-91 82q-108 -68 -245 -68q-181 0 -299.5 113t-118.5 295
q0 139 74 238h-197v157h2034v-157h-1147q76 -98 76 -238q0 -119 -56 -213l158 -143v-144l-258 -190l401 -193h9q-19 214 -19 428v482q117 57 264 57q184 0 306 -101.5t122 -279.5q0 -138 -71 -230.5t-176 -140.5l-107 148q78 28 126 85.5t48 139.5q0 103 -64.5 156
t-162.5 53q-50 0 -103 -16v-861z" />
    <glyph glyph-name="bnD_BHA" horiz-adv-x="1343" 
d="M1384 1174h-806v-392q82 77 211 160t249 131l154 -90q-64 -184 -64 -451v-30q63 -60 108.5 -160.5t45.5 -220.5q0 -99 -34 -183.5t-97.5 -148t-162 -99.5t-220.5 -36t-227.5 41t-183.5 110.5t-141.5 167.5t-105.5 204.5t-71 228.5l156 71q22 -101 54 -190.5t81.5 -176
t110.5 -148t145.5 -99t181.5 -37.5q164 0 254 83.5t90 217.5q0 104 -49 182h-8q-99 -235 -303 -235q-124 0 -199.5 73t-75.5 179q0 89 39 145l174 -27q-39 -42 -39 -110q0 -47 28 -75t81 -28q56 0 101 48.5t89 156.5v99q0 198 47 337q-226 -130 -424 -323l-180 69v556h-434
v157h1425v-157z" />
    <glyph glyph-name="bnM_BHA" horiz-adv-x="1341" 
d="M870 877q71 0 106.5 43t35.5 104q0 65 -38.5 107.5t-113.5 42.5h-424q22 -48 35 -115q51 -8 98 -30t81.5 -47t68 -49t72 -40t79.5 -16zM1382 1174h-241q51 -66 51 -177q0 -74 -30.5 -140.5t-92.5 -106.5q71 -71 119.5 -174t48.5 -232q0 -204 -136 -336.5t-378 -132.5
q-127 0 -236 43.5t-191 123t-142.5 178t-104.5 220.5l148 92q35 -103 81.5 -187t110 -153t149 -107t185.5 -38q163 0 253.5 84.5t90.5 216.5q0 102 -49 184h-8q-99 -235 -303 -235q-124 0 -200.5 73t-76.5 179q0 83 41 145l174 -26q-39 -42 -39 -111q0 -47 28 -74.5
t81 -27.5q61 0 109.5 58.5t95.5 191.5q-15 -3 -33 -3q-56 0 -106.5 14t-85 35.5t-70 46t-63.5 46t-63 35.5t-71 14q-53 0 -84 -30.5t-31 -80.5q0 -64 47 -118l-153 -62q-72 72 -72 189q0 88 39.5 153.5t114.5 95.5q-19 82 -60 134h-270v157h1423v-157z" />
    <glyph glyph-name="bnB_BHA" horiz-adv-x="1294" 
d="M907 518h11q-17 219 -17 385v53q-232 -97 -426 -245zM1335 1174h-254v-746q63 -60 108.5 -160t45.5 -219q0 -206 -133 -337.5t-375 -131.5q-122 0 -227.5 41.5t-182 110t-138.5 164t-102 194t-67 209.5l156 86q20 -92 48.5 -175.5t76.5 -169.5t107.5 -148t144.5 -101
t184 -39q163 0 250.5 83.5t87.5 217.5q0 103 -49 185h-8q-99 -238 -303 -238q-125 0 -199 73t-74 181q0 90 37 143l172 -26q-37 -43 -37 -111q0 -47 28 -74.5t81 -27.5t96 43t84 139l-594 258v199q259 217 602 338v39h-942v157h1376v-157z" />
    <glyph glyph-name="bnL_BHA" horiz-adv-x="1486" 
d="M1528 1174h-254v-738q63 -59 107 -159t44 -220q0 -204 -136 -336.5t-378 -132.5q-127 0 -240 44.5t-199 122.5t-151 175.5t-110 212.5l145 97q36 -98 87 -181t119.5 -152t159 -108t193.5 -39q161 0 250.5 84.5t89.5 216.5q0 105 -47 183h-8q-32 -111 -106.5 -172.5
t-178.5 -61.5q-123 0 -196.5 72.5t-73.5 179.5q0 101 47 168l172 -27q-18 -21 -30.5 -59t-12.5 -74q0 -49 26 -76.5t77 -27.5q61 0 102.5 54.5t69.5 154.5v416q-14 41 -56.5 74.5t-103.5 33.5q-70 0 -113 -50t-43 -138v-74h-170v74q0 90 -44 135t-117 45q-69 0 -117.5 -53.5
t-48.5 -147.5q0 -107 58.5 -164t152.5 -57q36 0 67 8l17 -164q-52 -10 -99 -10q-159 0 -268 104t-109 279q0 169 98.5 271t237.5 102q106 0 168 -44.5t86 -107.5h8q19 68 74 113t141 45q109 0 172 -68h9v177h-1137v157h1569v-157z" />
    <glyph glyph-name="bnK_MA" horiz-adv-x="1880" 
d="M1919 1174h-283v-1358h-176q-95 142 -273 236.5t-360 125.5q-22 -86 -73 -128t-115 -42q-63 0 -104 37t-41 100q0 68 45.5 120t122.5 71v4l-556 274v183q100 100 246 183.5t310 113.5v80h-703v157h1960v-157zM668 524h8q-14 181 -14 375v23q-192 -47 -381 -201zM1466 74
q-12 210 -12 352v748h-614v-66q114 -4 203 -36.5t141.5 -84.5t79 -113t26.5 -126q0 -112 -57 -194.5t-152 -127.5l-102 137q137 67 137 185q0 88 -71 139t-205 55v-604q169 -17 332.5 -86.5t293.5 -177.5z" />
    <glyph glyph-name="bnG_MA" horiz-adv-x="1783" 
d="M1417 141q-1 20 -4 75t-5.5 126t-2.5 154v678h-358v-809q117 -22 214.5 -85t155.5 -139zM1587 -154h-174q-52 130 -153.5 226t-229.5 131q-23 -83 -74 -124.5t-112 -41.5q-63 0 -104.5 37.5t-41.5 101.5q0 68 44.5 120t121.5 71v411q0 169 -90 279t-250 110
q-96 0 -171.5 -42t-116.5 -105q73 27 149 27q125 0 210 -74t85 -203q0 -227 -242 -393l-135 127q197 127 197 270q0 62 -46 98.5t-122 36.5q-81 0 -170 -35l-131 136q56 140 185.5 233.5t301.5 93.5q246 0 373 -188h8q-13 38 -25 126.5t-12 188.5v72h185v-205h774v-157h-234
v-1328z" />
    <glyph glyph-name="bnNG_MA" horiz-adv-x="1812" 
d="M743 981q72 0 110 33.5t38 87.5q0 38 -27 72h-4v4q-39 39 -102 39q-61 0 -93 -39.5t-32 -112.5v-68q56 -16 110 -16zM1620 -420h-176q-86 151 -221 243t-289 120q-22 -86 -72.5 -129t-113.5 -43q-62 0 -104 37t-42 100q0 67 44 118t118 70v64h-41q-152 0 -278 55
t-208 148t-128.5 213.5t-51.5 254.5l166 37q5 -131 46.5 -236t110 -171.5t156 -101.5t187.5 -35q156 0 251 67t95 174q0 59 -27 103q-158 -117 -313 -117q-129 0 -200.5 69.5t-71.5 184.5v117q-155 87 -246 252h-252v157h363q44 -142 145 -237q3 119 78.5 190.5t202.5 71.5
q71 0 135 -25h970v-157h-233v-1594zM1450 -141q-12 210 -12 368v947h-398q13 -41 13 -76q0 -111 -82.5 -181.5t-225.5 -70.5q-50 0 -112 10v-39q0 -100 102 -100q68 0 152 39.5t205 128.5q65 -49 108 -129t43 -185q0 -139 -77 -238.5t-218 -142.5v-90q142 -19 275 -81.5
t227 -159.5z" />
    <glyph glyph-name="bnTT_MA" horiz-adv-x="1579" 
d="M1217 55q-13 227 -13 353v766h-844v-558q0 -68 42 -104.5t118 -36.5q122 0 202.5 75.5t80.5 188.5q0 67 -33.5 106.5t-97.5 39.5q-32 0 -63 -16t-48 -42l-94 150q36 36 91.5 60t119.5 24q137 0 222 -85.5t85 -238.5q0 -190 -143 -317v-144q118 -22 217 -83.5t158 -137.5z
M965 1407q0 -29 -7 -76h660v-157h-232v-1416h-176q-50 129 -153 225.5t-232 131.5q-24 -82 -73.5 -123t-108.5 -41q-64 0 -105.5 36.5t-41.5 100.5q0 67 43.5 119t119.5 72v45q-68 -19 -139 -19q-158 0 -251 81t-93 224v564h-217v157h813q6 38 6 66q0 84 -52.5 119.5
t-168.5 35.5h-195q-103 0 -178 25t-115.5 68t-59.5 93t-19 109q0 40 4 58l180 32q-6 -60 -6 -61q0 -71 44.5 -114.5t162.5 -43.5h215q164 0 269.5 -81t105.5 -230z" />
    <glyph glyph-name="bnDD_MA" horiz-adv-x="1873" 
d="M1511 -53q-12 210 -12 358v869h-792v-222q0 -52 20.5 -76t67.5 -24q51 0 136 46.5t181 129.5q69 -43 120.5 -134t51.5 -208q0 -209 -147 -340v-158q116 -26 217 -94t157 -147zM1915 1174h-234v-1516h-174q-53 129 -156.5 227.5t-232.5 139.5q-22 -81 -70.5 -120.5
t-109.5 -39.5q-63 0 -104 37.5t-41 101.5q0 69 45 121.5t123 69.5v55q-95 -31 -209 -31q-123 0 -230 39t-186 108.5t-136.5 163.5t-88.5 204.5t-35 230.5l182 41q4 -147 43 -264.5t105 -193t154.5 -115.5t191.5 -40q156 0 253 80t97 207q0 65 -31 119q-153 -121 -295 -121
q-126 0 -193 72.5t-67 193.5v230h-557v157h1956v-157z" />
    <glyph glyph-name="bnNN_MA" horiz-adv-x="1740" 
d="M1409 186q-1 18 -3.5 75t-4.5 126.5t-2 153.5v633h-363v-764q118 -22 216.5 -85t156.5 -139zM664 582q-82 -50 -199 -50q-176 0 -287.5 108.5t-111.5 277.5q0 188 114.5 309t315.5 121q250 0 378 -209l9 2q-27 122 -27 315v80h180v-205h746v-157h-201v-1283h-176
q-52 131 -154.5 227.5t-230.5 129.5q-22 -82 -72.5 -123t-111.5 -41q-63 0 -104.5 36.5t-41.5 100.5q0 67 44 118.5t118 70.5v249q0 88 -11 163t-36.5 141t-64 112.5t-97.5 73.5t-133 27q-122 0 -188 -72.5t-66 -185.5q0 -102 62.5 -159t164.5 -57q69 0 135 29z" />
    <glyph glyph-name="bnT_MA" horiz-adv-x="1802" 
d="M1845 1174h-235v-1536h-176q-75 138 -213 234t-295 126q-22 -85 -72 -126.5t-113 -41.5t-105 37t-42 100q0 67 44 118.5t118 70.5v77q-12 -2 -39 -2q-115 0 -214 41t-171 109.5t-130.5 164.5t-96 198.5t-62.5 218.5l158 84q23 -108 53 -201t75 -179t99.5 -146t128 -96
t158.5 -36q143 0 224 88t81 232q0 106 -43 167.5t-127 61.5q-56 0 -90.5 -33.5t-34.5 -91.5q0 -89 76 -133l-121 -105q-62 36 -97.5 99.5t-35.5 142.5q0 124 83 202.5t216 78.5q167 0 257.5 -112t90.5 -281q0 -155 -67 -265.5t-187 -163.5v-118q141 -22 278 -89t222 -159
q-13 228 -13 354v910h-1468v157h1886v-157z" />
    <glyph glyph-name="bnD_MA" horiz-adv-x="1624" 
d="M1262 106q-13 228 -13 355v713h-897v-443q103 96 227.5 184.5t241.5 137.5l152 -88q-76 -218 -76 -510v-127q115 -22 210 -83.5t155 -138.5zM1665 1174h-233v-1362h-177q-52 129 -151.5 224t-224.5 130q-23 -82 -73.5 -122t-111.5 -40q-62 0 -103.5 36.5t-41.5 100.5
q0 67 44 118.5t120 70.5v131q0 220 51 381q-112 -71 -203.5 -149.5t-212.5 -205.5l-182 76v611h-207v157h1706v-157z" />
    <glyph glyph-name="bnDH_MA" horiz-adv-x="1703" 
d="M1341 94q-12 216 -12 355v725h-360v-857q116 -22 214 -84.5t158 -138.5zM1745 1174h-234v-1375h-176q-51 130 -154 227t-229 132q-22 -83 -72.5 -124.5t-111.5 -41.5q-64 0 -104.5 36.5t-40.5 100.5q0 95 79 152l-598 217v184l64 35q44 24 88.5 44.5t67.5 28.5l22 9v8
q-124 11 -198 77.5t-74 180.5q0 128 84 207.5t227 79.5q65 0 125.5 -17.5t99.5 -50.5l-59 -143q-71 47 -150 47q-62 0 -100.5 -34.5t-38.5 -92.5q0 -67 56 -99t133 -32q147 0 335 125v276h959v-157zM799 430l8 2q-21 166 -21 359v63l-467 -248z" />
    <glyph glyph-name="bnN_MA" horiz-adv-x="1675" 
d="M1313 233q-13 227 -13 355v586h-360v-717q117 -23 216.5 -86t156.5 -138zM1810 1174h-327v-1235h-174q-53 132 -155.5 228.5t-229.5 129.5q-22 -83 -72.5 -124.5t-112.5 -41.5q-64 0 -104.5 36.5t-40.5 100.5q0 67 43.5 119t118.5 72v143l-103 86q-78 62 -132.5 90.5
t-106.5 28.5q-73 0 -113.5 -37t-40.5 -96q0 -70 53 -127l-145 -72q-37 36 -60.5 90.5t-23.5 116.5q0 123 86.5 206t228.5 83q89 0 166.5 -33.5t173.5 -110.5l17 -14v361h-801v157h1855v-157z" />
    </font>
</defs>
</svg>
